<?xml version="1.0" standalone="no"?>
<!DOCTYPE svg PUBLIC "-//W3C//DTD SVG 1.1//EN" "http://www.w3.org/Graphics/SVG/1.1/DTD/svg11.dtd" >
<svg>
<metadata>
Created by FontForge 20090914 at Mon Aug 31 18:37:06 2020
 By www-data
Copyright &#194;&#169; 1995 ParaGraph Intl., &#194;&#169; 1998 ParaType Inc., ParaType Ltd. All rights reserved.
</metadata>
<defs>
<font id="FuturaPT-Light" horiz-adv-x="500" >
  <font-face 
    font-family="Futura PT Light"
    font-weight="300"
    font-stretch="normal"
    units-per-em="1000"
    panose-1="2 11 4 2 2 2 4 2 3 3"
    ascent="763"
    descent="-237"
    x-height="408"
    cap-height="667"
    bbox="-298 -250.001 1018 900"
    underline-thickness="50"
    underline-position="-150"
    unicode-range="U+0020-U+FB02"
  />
<missing-glyph horiz-adv-x="233" 
 />
    <glyph glyph-name="afii10017.var.accented" unicode="&#x410;`" horiz-adv-x="586" 
d="M524 0l-89 219h-284l-89 -219h-48l281 687l277 -687h-48zM167 259h252l-125 316zM359 854l50 -25l-134 -126l-32 18z" />
    <glyph glyph-name="afii10022.var.accented" unicode="&#x415;`" horiz-adv-x="464" 
d="M410 667v-40h-276v-242h270v-40h-270v-305h276v-40h-320v667h320zM298 854l50 -25l-134 -126l-32 18z" />
    <glyph glyph-name="afii10026.var.accented" unicode="&#x418;`" horiz-adv-x="700" 
d="M566 0v556l-476 -573v684h44v-566l476 573v-674h-44zM416 854l50 -25l-134 -126l-32 18z" />
    <glyph glyph-name="afii10032.var.accented" unicode="&#x41e;`" horiz-adv-x="800" 
d="M400 676c97.333 0 179.333 -33.333 246 -100s100 -148 100 -244s-33.333 -177.167 -100 -243.5s-148.667 -99.5 -246 -99.5s-179.333 33.167 -246 99.5s-100 147.5 -100 243.5s33.333 177.333 100 244s148.667 100 246 100zM400 29c85.333 0 156.666 29.167 213.999 87.5
s86 130.166 86 215.499c0 86 -28.667 158.167 -86 216.5s-128.666 87.5 -213.999 87.5s-156.666 -29.167 -213.999 -87.5s-86 -130.5 -86 -216.5c0 -85.333 28.667 -157.166 86 -215.499s128.666 -87.5 213.999 -87.5zM466 854l50 -25l-134 -126l-32 18z" />
    <glyph glyph-name="afii10037.var.accented" unicode="&#x423;`" horiz-adv-x="550" 
d="M14 667h50l231 -432l195 432h46l-305 -667h-46l85 186zM341 854l50 -25l-134 -126l-32 18z" />
    <glyph glyph-name="afii10045.var.accented" unicode="&#x42b;`" horiz-adv-x="690" 
d="M90 0l0.000976562 667h44v-287h116c153.333 0 230 -61 230 -183c0 -55.333 -17.833 -102 -53.5 -140s-89.834 -57 -162.501 -57h-174zM134.001 340v-300.001h112c67.333 0 116 14.667 146 44c28 26.667 42 64.334 42 113.001c0 58 -23 99 -69 123
c-26 13.333 -68.333 20 -127 20h-104zM556.001 666.999h44v-667h-44v667zM411.001 853.999l50 -25l-134 -126l-32 18z" />
    <glyph glyph-name="afii10047.var.accented" unicode="&#x42d;`" horiz-adv-x="678" 
d="M54 72v57.999c32 -34.667 68 -60.167 108 -76.5s78.667 -24.5 116 -24.5c76 0 144.333 27 205 81s92.334 125.333 95.001 214h-444v40h442c-7.33301 78.667 -39.5 143.667 -96.5 195s-123.833 77 -200.5 77c-43.333 0 -84.5 -9.16699 -123.5 -27.5
s-72.833 -44.166 -101.5 -77.499v58c61.333 58 136 87 224 87c96 0 177.667 -33.333 245 -100s101 -148 101 -244c0 -94 -33.333 -174.667 -100 -242s-149.334 -101 -248.001 -101c-85.333 0 -159.333 27.667 -222 83zM365 853.999l50 -25l-134 -126l-32 18z" />
    <glyph glyph-name="afii10048.var.accented" unicode="&#x42e;`" horiz-adv-x="960" 
d="M134 372h102c10 88 46.667 160.667 110 218s138 86 224 86c94.667 0 174.334 -33.333 239.001 -100s97 -148 97 -244s-32.333 -177.167 -97 -243.5s-144.334 -99.5 -239.001 -99.5s-174 33.333 -238 100s-96.667 147.667 -98 243h-100v-332h-44v667h44v-295zM570 29
c83.333 0 152.5 29.167 207.5 87.5s82.5 130.166 82.5 215.499s-27.667 157.333 -83 216s-124.333 88 -207 88s-151.667 -29.333 -207 -88s-83 -130.667 -83 -216s27.5 -157.166 82.5 -215.499s124.167 -87.5 207.5 -87.5zM546 854l50 -25l-134 -126l-32 18z" />
    <glyph glyph-name="afii10049.var.accented" unicode="&#x42f;`" horiz-adv-x="470" 
d="M34 0l202.002 299.003c-25.333 0.666992 -50.333 5.66699 -75 15c-8.66699 3.33301 -17.5 7.83301 -26.5 13.5s-20.333 14.667 -34 27s-24.834 29.666 -33.501 51.999s-13 47.833 -13 76.5c0 39.333 8.66699 72.166 26 98.499s37.666 46.166 60.999 59.499
c29.333 17.333 71 26 125 26h114v-667h-44v299h-50l-200 -299h-52zM336.002 627.003l-70.001 0.000976562c-38.667 0 -69 -5.33301 -91 -16c-23.333 -10.667 -41.666 -27.334 -54.999 -50.001s-20 -48.667 -20 -78c0 -46.667 14.667 -83 44 -109
c26 -23.333 64.667 -35 116 -35h76v288zM301.001 854.004l50 -25l-134 -126l-32 18z" />
    <glyph glyph-name="afii10023.var.accented" unicode="&#x401;`" horiz-adv-x="464" 
d="M410 667v-40h-276v-242h270v-40h-270v-305h276v-40h-320v667h320zM103 780c0 10.667 3.66699 19.667 11 27s16.333 11 27 11s19.667 -3.66699 27 -11s11 -16.333 11 -27s-3.66699 -19.667 -11 -27s-16.333 -11 -27 -11s-19.667 3.66699 -27 11s-11 16.333 -11 27z
M319 780c0 10.667 3.66699 19.667 11 27s16.333 11 27 11s19.667 -3.66699 27 -11s11 -16.333 11 -27s-3.66699 -19.667 -11 -27s-16.333 -11 -27 -11s-19.667 3.66699 -27 11s-11 16.333 -11 27zM282 854l44 -25l-134 -126l-26 18z" />
    <glyph glyph-name="afii10065.var.accented" unicode="&#x430;`" horiz-adv-x="516" 
d="M404 337v71.001h40v-408h-40v73c-36.667 -56 -89.667 -84 -159 -84c-55.333 0 -102.333 19.667 -141 59s-58 91.333 -58 156c0 63.333 18.333 114.666 55 153.999s84.667 59 144 59c68 0 121 -26.667 159 -80zM247 379.001c-43.333 0 -80.666 -15.499 -111.999 -46.499
s-47 -72.833 -47 -125.5c0 -48.667 14.333 -90.834 43 -126.501s67.667 -53.5 117 -53.5c48.667 0 87.167 17.5 115.5 52.5s42.5 77.5 42.5 127.5c0 55.333 -16.333 97.833 -49 127.5s-69.334 44.5 -110.001 44.5zM313 620.002l43 -25l-105 -128l-30 16z" />
    <glyph glyph-name="afii10070.var.accented" unicode="&#x435;`" horiz-adv-x="483" 
d="M437 199h-349.003c0 -50.667 15.833 -92 47.5 -124s69.834 -48 114.501 -48c32 0 60.333 8.5 85 25.5s43.667 39.5 57 67.5l34 -20c-15.333 -29.333 -37.666 -55.166 -66.999 -77.499s-66.666 -33.5 -111.999 -33.5c-62 0 -111 20.167 -147 60.5s-54 91.166 -54 152.499
c0 67.333 19.5 120 58.5 158s85.5 57 139.5 57c55.333 0 101.333 -20.333 138 -61s55 -93 55 -157zM90.9971 237h304c-5.33301 41.333 -21.833 75.333 -49.5 102s-61.5 40 -101.5 40c-40.667 0 -75 -13.5 -103 -40.5s-44.667 -60.833 -50 -101.5zM295.997 620l43 -25
l-105 -128l-30 16z" />
    <glyph glyph-name="afii10074.var.accented" unicode="&#x438;`" horiz-adv-x="474" 
d="M72 408h40v-327l290 350v-431h-40v325l-290 -350v433zM292 620l43 -25l-105 -128l-30 16z" />
    <glyph glyph-name="afii10080.var.accented" unicode="&#x43e;`" horiz-adv-x="520" 
d="M260 417c60.667 0 111.5 -20.5 152.5 -61.5s61.5 -91.833 61.5 -152.5s-20.5 -111.5 -61.5 -152.5s-91.833 -61.5 -152.5 -61.5s-111.5 20.5 -152.5 61.5s-61.5 91.833 -61.5 152.5s20.5 111.5 61.5 152.5s91.833 61.5 152.5 61.5zM260 27c48.667 0 89.5 17 122.5 51
s49.5 75.667 49.5 125s-16.5 91 -49.5 125s-73.833 51 -122.5 51s-89.5 -17 -122.5 -51s-49.5 -75.667 -49.5 -125s16.5 -91 49.5 -125s73.833 -51 122.5 -51zM315 620l43 -25l-105 -128l-30 16z" />
    <glyph glyph-name="afii10085.var.accented" unicode="&#x443;`" horiz-adv-x="428" 
d="M106 -230l96 223l-194 415h46l171 -363l149 363h46l-268 -638h-46zM269 620l43 -25l-105 -128l-30 16z" />
    <glyph glyph-name="afii10093.var.accented" unicode="&#x44b;`" 
d="M72 408h39.999v-170h97c46.667 0 81.334 -12.667 104.001 -38c19.333 -21.333 29 -48.333 29 -81c0 -36.667 -12 -66 -36 -88c-22 -20.667 -54.667 -31 -98 -31h-136v408zM111.999 38h96c28 0 49.333 6.33301 64 19c18.667 15.333 28 36 28 62
c0 27.333 -9.66699 48.333 -29 63c-16 12 -37.667 18 -65 18h-94v-162zM387.999 408h40v-408h-40v408zM304.999 620l43 -25l-105 -128l-30 16z" />
    <glyph glyph-name="afii10095.var.accented" unicode="&#x44d;`" horiz-adv-x="412" 
d="M38 10l0.000976562 42c30 -16.667 66.667 -25 110 -25c55.333 0 99.333 17.667 132 53c27.333 28.667 42 65.334 44 110.001h-239v38h239c-5.33301 49.333 -27.666 88.666 -66.999 117.999c-30.667 22 -68 33 -112 33c-42 0 -76.333 -7 -103 -21v40
c33.333 12.667 67.666 19 102.999 19c63.333 0 114.333 -17 153 -51c45.333 -39.333 68 -93 68 -161c0 -66 -20.333 -118.667 -61 -158c-40 -38.667 -92.333 -58 -157 -58c-44.667 0 -81.334 7 -110.001 21zM231.001 620l43 -25l-105 -128l-30 16z" />
    <glyph glyph-name="afii10096.var.accented" unicode="&#x44e;`" horiz-adv-x="640" 
d="M112 228l70 -0.000976562c6 54.667 28.167 99.834 66.5 135.501s84.833 53.5 139.5 53.5c58.667 0 107.667 -20.5 147 -61.5s59 -91.833 59 -152.5s-19.667 -111.5 -59 -152.5s-88.333 -61.5 -147 -61.5c-54.667 0 -102 18.5 -142 55.5s-61.333 85.5 -64 145.5h-70v-190
h-40v408h40v-180zM388 26.999c46.667 0 85.667 16.833 117 50.5s47 75.5 47 125.5s-15.667 91.833 -47 125.5s-70.333 50.5 -117 50.5s-85.667 -16.833 -117 -50.5s-47 -75.5 -47 -125.5s15.667 -91.833 47 -125.5s70.333 -50.5 117 -50.5zM375 619.999l43 -25l-105 -128
l-30 16z" />
    <glyph glyph-name="afii10097.var.accented" unicode="&#x44f;`" horiz-adv-x="386" 
d="M28 0l130 178c-31.333 1.33301 -58 11.333 -80 30c-22.667 20 -34 47 -34 81c0 39.333 12.333 69.333 37 90c22 19.333 54.333 29 97 29h136v-408h-40v176h-70l-128 -176h-48zM274 214v155.999h-96c-28 0 -49.667 -6 -65 -18c-18 -15.333 -27 -36 -27 -62
c0 -25.333 8.66699 -44.666 26 -57.999c16 -12 38 -18 66 -18h96zM248 619.999l43 -25l-105 -128l-30 16z" />
    <glyph glyph-name="afii10071.var.accented" unicode="&#x451;`" horiz-adv-x="483" 
d="M437 199l-348.999 0.00195312c-2 -48.667 13.667 -90.334 47 -125.001c30 -31.333 68.333 -47 115 -47c32 0 60.667 8.66699 86 26c24 17.333 42.667 39.666 56 66.999l34 -20c-18.667 -33.333 -42 -59.666 -70 -78.999c-30.667 -21.333 -67 -32 -109 -32
c-56.667 0 -104 18.333 -142 55c-39.333 38 -59 90.667 -59 158s20.333 120.666 61 159.999c37.333 36.667 83 55 137 55c53.333 0 97.666 -17.667 132.999 -53c41.333 -41.333 61.333 -96.333 60 -165zM91.001 237.002l304 0.000976562
c-5.33301 40.667 -20.666 73.667 -45.999 99c-28.667 28.667 -63.667 43 -105 43c-40 0 -75.333 -14.667 -106 -44c-26.667 -26.667 -42.334 -59.334 -47.001 -98.001zM115.001 526.003c0 10 3.5 18.5 10.5 25.5s15.5 10.5 25.5 10.5s18.5 -3.5 25.5 -10.5
s10.5 -15.5 10.5 -25.5s-3.5 -18.5 -10.5 -25.5s-15.5 -10.5 -25.5 -10.5s-18.5 3.5 -25.5 10.5s-10.5 15.5 -10.5 25.5zM301.001 526.003c0 10 3.5 18.5 10.5 25.5s15.5 10.5 25.5 10.5s18.5 -3.5 25.5 -10.5s10.5 -15.5 10.5 -25.5s-3.5 -18.5 -10.5 -25.5
s-15.5 -10.5 -25.5 -10.5s-18.5 3.5 -25.5 10.5s-10.5 15.5 -10.5 25.5zM280.001 620.003l37 -25l-105 -128l-24 16z" />
    <glyph glyph-name="fi" unicode="fi" horiz-adv-x="442" 
d="M214 370h-102v-370h-40v370h-46v38h46v163c0 50 7.33301 86.333 22 109c28 40.667 70.333 61 127 61s99 -20.333 127 -61c14.667 -22.667 22 -59 22 -109v-17h-40v17c0 40 -5.66699 69.333 -17 88c-17.333 29.333 -48 44 -92 44c-43.333 0 -74 -14.667 -92 -44
c-11.333 -18.667 -17 -48 -17 -88v-163h102v-38zM330 408h40v-408h-40v408z" />
    <glyph glyph-name="fl" unicode="fl" horiz-adv-x="442" 
d="M214 370h-102v-370h-40v370h-46v38h46v163c0 50 7.33301 86.333 22 109c28 40.667 70.333 61 127 61s99 -20.333 127 -61c14.667 -22.667 22 -59 22 -109v-571h-40v571c0 40 -5.66699 69.333 -17 88c-18 29.333 -48.667 44 -92 44s-74 -14.667 -92 -44
c-11.333 -18 -17 -47.333 -17 -88v-163h102v-38z" />
    <glyph glyph-name=".notdef" horiz-adv-x="233" 
 />
    <glyph glyph-name="space" unicode=" " horiz-adv-x="233" 
 />
    <glyph glyph-name="exclam" unicode="!" horiz-adv-x="260" 
d="M152 119h-44v548h44v-548zM93 30c0 10.667 3.5 19.5 10.5 26.5s15.833 10.5 26.5 10.5s19.5 -3.5 26.5 -10.5s10.5 -15.833 10.5 -26.5s-3.5 -19.5 -10.5 -26.5s-15.833 -10.5 -26.5 -10.5s-19.5 3.5 -26.5 10.5s-10.5 15.833 -10.5 26.5z" />
    <glyph glyph-name="quotedbl" unicode="&#x22;" horiz-adv-x="280" 
d="M104 667l-7 -269h-30l-7 269h44zM220 667l-7 -269h-30l-7 269h44z" />
    <glyph glyph-name="numbersign" unicode="#" horiz-adv-x="600" 
d="M375 0h-40l33 221h-164l-33 -221h-40l33 221h-118l6 38h118l24 161h-118l6 38h118l32 209h40l-32 -209h164l32 209h40l-32 -209h118l-6 -38h-118l-24 -161h118l-6 -38h-118zM374 259l24 161h-164l-24 -161h164z" />
    <glyph glyph-name="dollar" unicode="$" horiz-adv-x="548" 
d="M443 581l-32.001 -27.001c-3.33301 8 -7.83301 16.333 -13.5 25s-17 19.5 -34 32.5s-35.833 21.167 -56.5 24.5v-270c46.667 -21.333 79.667 -39 99 -53c47.333 -32.667 71 -75.667 71 -129c0 -45.333 -15.667 -86.666 -47 -123.999s-72.333 -60 -123 -68v-99h-40v96
c-62 0 -113 23.333 -153 70c-19.333 22.667 -33.666 47 -42.999 73l38 18c8 -24 20 -45.333 36 -64c29.333 -36.667 70 -55.667 122 -57v310l-25 12c-32 15.333 -56 28.833 -72 40.5s-29 25.834 -39 42.501c-14 23.333 -21 48.666 -21 75.999
c0 45.333 14.667 83.833 44 115.5s67 48.5 113 50.5v89h40v-89c62 -7.33301 107.333 -39 136 -95zM306.999 318.999l0.000976562 -287c37.333 8 67.333 26.333 90 55s34 60.667 34 96c0 43.333 -21.667 78.333 -65 105c-1.33301 0.666992 -4 2.16699 -8 4.5
s-10.333 5.83301 -19 10.5s-19.334 10 -32.001 16zM267 385.999v250c-34 -2 -61 -15.333 -81 -40s-30 -52.667 -30 -84c0 -29.333 9 -53.833 27 -73.5s46 -37.167 84 -52.5z" />
    <glyph glyph-name="percent" unicode="%" horiz-adv-x="608" 
d="M169 673c40.667 0 73.334 -12.333 98.001 -37s37 -56 37 -94s-12.333 -69.333 -37 -94s-57.334 -37 -98.001 -37s-73.334 12.333 -98.001 37s-37 56 -37 94s12.333 69.333 37 94s57.334 37 98.001 37zM169 447c30 0 53.333 9.66699 70 29s25 41.333 25 66
s-8.33301 46.667 -25 66s-40 29 -70 29s-53.333 -9.66699 -70 -29s-25 -41.333 -25 -66s8.33301 -46.667 25 -66s40 -29 70 -29zM92 1l394 681l30 -16l-394 -681zM439 256c40.667 0 73.334 -12.333 98.001 -37s37 -56 37 -94s-12.333 -69.333 -37 -94
s-57.334 -37 -98.001 -37s-73.334 12.333 -98.001 37s-37 56 -37 94s12.333 69.333 37 94s57.334 37 98.001 37zM439 30c30 0 53.333 9.66699 70 29s25 41.333 25 66s-8.33301 46.667 -25 66s-40 29 -70 29s-53.333 -9.66699 -70 -29s-25 -41.333 -25 -66
s8.33301 -46.667 25 -66s40 -29 70 -29z" />
    <glyph glyph-name="ampersand" unicode="&#x26;" horiz-adv-x="628" 
d="M567 259l31.999 -27.001c-26 -35.333 -54.333 -67.666 -85 -96.999l100 -135h-56l-77 105c-50.667 -42 -90 -70.333 -118 -85c-43.333 -22 -84.666 -33 -123.999 -33c-48.667 0 -89 15.333 -121 46c-34.667 33.333 -52 75.333 -52 126c0 48.667 14.667 90.667 44 126
c18 22 46 45.667 84 71l71 46c-26 40.667 -43.667 70.5 -53 89.5s-14 38.5 -14 58.5c0 36 12.667 66.667 38 92c24 24.667 54.667 37 92 37c32.667 0 61 -11 85 -33c24.667 -22.667 37 -53 37 -91c0 -38.667 -16.333 -74.334 -49 -107.001c-16 -16 -41 -35.333 -75 -58
l163 -220c22.667 22.667 48.667 52.334 78 89.001zM455.999 139.999l-167.001 228l-63 -41c-39.333 -25.333 -67.666 -49.666 -84.999 -72.999c-19.333 -26.667 -29 -57.334 -29 -92.001c0 -40 11.667 -72.333 35 -97c24 -25.333 55 -38 93 -38c36.667 0 75.667 12 117 36
c32.667 18 65.667 43.667 99 77zM300.998 423.999c33.333 21.333 57.999 40.3301 73.999 56.9971c20.667 22 31 46.333 31 73c0 24.667 -7.66699 44.667 -23 60s-34.666 23 -57.999 23c-21.333 0 -39.666 -7.33301 -54.999 -22c-18.667 -17.333 -28 -39.666 -28 -66.999
c0 -10.667 2.33301 -22.167 7 -34.5s9.16699 -22.166 13.5 -29.499s11.166 -18.166 20.499 -32.499z" />
    <glyph glyph-name="quotesingle" unicode="'" horiz-adv-x="164" 
d="M104 667l-7 -269h-30l-7 269h44z" />
    <glyph glyph-name="parenleft" unicode="(" horiz-adv-x="282" 
d="M146 290c0 -70.667 7 -148 21 -232c10.667 -68.667 25.667 -133.667 45 -195l-38 -23c-18 50.667 -34 111.667 -48 183c-17.333 89.333 -26 178.333 -26 267c0 89.333 8.66699 178.333 26 267c14 71.333 30 132.333 48 183l38 -23
c-18.667 -57.333 -33.667 -122.333 -45 -195c-14 -86.667 -21 -164 -21 -232z" />
    <glyph glyph-name="parenright" unicode=")" horiz-adv-x="282" 
d="M108 -160l-38 23c19.333 61.333 34.333 126.333 45 195c14 84 21 161.333 21 232c0 68 -7 145.333 -21 232c-11.333 72.667 -26.333 137.667 -45 195l38 23c18 -50.667 34 -111.667 48 -183c17.333 -88.667 26 -177.667 26 -267c0 -88.667 -8.66699 -177.667 -26 -267
c-14 -71.333 -30 -132.333 -48 -183z" />
    <glyph glyph-name="asterisk" unicode="*" horiz-adv-x="548" 
d="M130 640l125 -44l-3 133h44l-3 -133l125 44l14 -41l-128 -38l81 -106l-35 -25l-76 110l-76 -110l-35 25l81 106l-128 38z" />
    <glyph glyph-name="plus" unicode="+" 
d="M33 310v38h197v182h40v-182h197v-38h-197v-182h-40v182h-197z" />
    <glyph glyph-name="comma" unicode="," horiz-adv-x="228" 
d="M38 -137l60 202l40 -12l-74 -200z" />
    <glyph glyph-name="hyphen" unicode="-" horiz-adv-x="300" 
d="M50 184v46h200v-46h-200z" />
    <glyph glyph-name="period" unicode="." horiz-adv-x="202" 
d="M64 30c0 10.667 3.5 19.5 10.5 26.5s15.833 10.5 26.5 10.5s19.5 -3.5 26.5 -10.5s10.5 -15.833 10.5 -26.5s-3.5 -19.5 -10.5 -26.5s-15.833 -10.5 -26.5 -10.5s-19.5 3.5 -26.5 10.5s-10.5 15.833 -10.5 26.5z" />
    <glyph glyph-name="slash" unicode="/" horiz-adv-x="576" 
d="M20 -158l504 901l32 -16l-504 -901z" />
    <glyph glyph-name="zero" unicode="0" horiz-adv-x="548" 
d="M274 676c60 0 112.333 -27 157 -81c56.667 -67.333 85 -154.666 85 -261.999s-28.333 -194.666 -85 -261.999c-46 -54.667 -98.333 -82 -157 -82s-111 27.333 -157 82c-56.667 67.333 -85 154.666 -85 261.999s28.333 194.666 85 261.999c44.667 54 97 81 157 81zM274 29
c46 0 87.333 22.667 124 68c48 59.333 72 138 72 236s-24 176.667 -72 236c-36 44.667 -77.333 67 -124 67s-88 -22.333 -124 -67c-48 -59.333 -72 -138 -72 -236s24 -176.667 72 -236c36.667 -45.333 78 -68 124 -68z" />
    <glyph glyph-name="one" unicode="1" horiz-adv-x="548" 
d="M272 0v627h-104l20 40h128v-667h-44z" />
    <glyph glyph-name="two" unicode="2" horiz-adv-x="548" 
d="M471 0l-410.997 -0.00195312l256 282c35.333 40 59.666 70 72.999 90c26 40 39 78 39 114c0 42.667 -14.5 78.334 -43.5 107.001s-66.167 43 -111.5 43c-48 0 -86.333 -16.333 -115 -49c-26 -28.667 -39 -65 -39 -109h-44c0 56.667 17.667 103.334 53 140.001
c37.333 38.667 86.666 58 147.999 58c57.333 0 104.666 -18.167 141.999 -54.5s56 -81.5 56 -135.5c0 -47.333 -16 -93 -48 -137c-15.333 -21.333 -35 -45.333 -59 -72l-214 -237h318v-40z" />
    <glyph glyph-name="three" unicode="3" horiz-adv-x="548" 
d="M76 162l44.001 0.000976562c1.33301 -26 8.66602 -49.667 21.999 -71c12.667 -18 30 -32.833 52 -44.5s44 -17.5 66 -17.5c40.667 0 75.834 15.333 105.501 46s44.5 67 44.5 109c0 54.667 -21 95.334 -63 122.001c-20.667 13.333 -49 20 -85 20v40c36 0 66 10.333 90 31
c32.667 27.333 49 63.666 49 108.999c0 37.333 -11.333 68.333 -34 93s-54 37 -94 37c-41.333 0 -73.333 -13 -96 -39c-21.333 -23.333 -32.666 -53 -33.999 -89h-42c0.666992 47.333 17 87.333 49 120c31.333 32 72.333 48 123 48c53.333 0 95.666 -16 126.999 -48
s47 -71.667 47 -119c0 -33.333 -8.33301 -64.833 -25 -94.5s-43.334 -51.834 -80.001 -66.501c35.333 -11.333 63.166 -31.666 83.499 -60.999s30.5 -63.333 30.5 -102c0 -55.333 -19 -101.833 -57 -139.5s-84.333 -56.5 -139 -56.5c-31.333 0 -61.666 7.66699 -90.999 23
s-52.333 36.666 -69 63.999c-16 26 -24 54.667 -24 86z" />
    <glyph glyph-name="four" unicode="4" horiz-adv-x="548" 
d="M415 689v-522h93v-40h-93v-127h-44v127h-359zM90 167h281v392z" />
    <glyph glyph-name="five" unicode="5" horiz-adv-x="548" 
d="M470 667l0.00195312 -40.002h-224l-56 -180c16 4 31 6 45 6c70 0 126.167 -21.667 168.5 -65s63.5 -98.666 63.5 -165.999c0 -70 -22.833 -126.333 -68.5 -169s-101.834 -64 -168.501 -64c-90.667 0 -157.334 36.667 -200.001 110l39 16
c38.667 -57.333 92.667 -86 162 -86c55.333 0 100.833 18 136.5 54s53.5 82 53.5 138c0 56.667 -17.5 102.834 -52.5 138.501s-80.167 53.5 -135.5 53.5c-38 0 -72.667 -9.66699 -104 -29l86 283h255z" />
    <glyph glyph-name="six" unicode="6" horiz-adv-x="548" 
d="M301 676l34 -25.999l-148 -210c28.667 12 59 18 91 18c66.667 0 122 -22 166 -66s66 -99.667 66 -167s-22.333 -123.5 -67 -168.5s-101.667 -67.5 -171 -67.5c-68 0 -124.333 22.167 -169 66.5s-67 101.166 -67 170.499c0 48.667 14.333 94 43 136zM273 29.001
c54.667 0 100.167 18.668 136.5 56.001s54.5 83.666 54.5 138.999c0 56.667 -18 103.167 -54 139.5s-81.667 54.5 -137 54.5s-101 -18.333 -137 -55s-54 -83 -54 -139s18.167 -102.5 54.5 -139.5s81.833 -55.5 136.5 -55.5z" />
    <glyph glyph-name="seven" unicode="7" horiz-adv-x="548" 
d="M22 14l432 613h-405v40h483l-477 -678z" />
    <glyph glyph-name="eight" unicode="8" horiz-adv-x="548" 
d="M358 346c34.667 -13.333 61.5 -35.333 80.5 -66s28.5 -65 28.5 -103c0 -56.667 -18.667 -102.167 -56 -136.5s-83 -51.5 -137 -51.5s-99.667 17.167 -137 51.5s-56 79.833 -56 136.5c0 38 9.5 72.333 28.5 103s45.833 52.667 80.5 66c-62 32.667 -93 84 -93 154
c0 50 17 91.833 51 125.5s76 50.5 126 50.5s92 -16.833 126 -50.5s51 -75.5 51 -125.5c0 -70 -31 -121.333 -93 -154zM274 365c36 0 66.833 12.833 92.5 38.5s38.5 57.834 38.5 96.501c0 39.333 -12.667 71.833 -38 97.5s-56.333 38.5 -93 38.5s-67.667 -12.833 -93 -38.5
s-38 -58.167 -38 -97.5c0 -38.667 12.833 -70.834 38.5 -96.501s56.5 -38.5 92.5 -38.5zM274 29c44 0 79.498 14.167 106.498 42.5s40.5 63.5 40.5 105.5c0 44 -13.667 80 -41 108s-62.666 42 -105.999 42s-78.666 -14 -105.999 -42s-41 -64 -41 -108
c0 -42 13.5 -77.167 40.5 -105.5s62.5 -42.5 106.5 -42.5z" />
    <glyph glyph-name="nine" unicode="9" horiz-adv-x="548" 
d="M247 -11l-34 26l148 211c-28.667 -12 -59 -18 -91 -18c-66.667 0 -122 22 -166 66s-66 99.667 -66 167s22.333 123.333 67 168s101.667 67 171 67c68 0 124.333 -22.333 169 -67s67 -101 67 -169c0 -48.667 -14.333 -94 -43 -136zM275 636
c-54.667 0 -100.167 -18.667 -136.5 -56s-54.5 -83.333 -54.5 -138c0 -56.667 18.167 -103.167 54.5 -139.5s81.833 -54.5 136.5 -54.5c55.333 0 101 18.333 137 55s54 83 54 139c0 55.333 -18.167 101.5 -54.5 138.5s-81.833 55.5 -136.5 55.5z" />
    <glyph glyph-name="colon" unicode=":" horiz-adv-x="202" 
d="M64 380c0 10.667 3.5 19.5 10.5 26.5s15.833 10.5 26.5 10.5s19.5 -3.5 26.5 -10.5s10.5 -15.833 10.5 -26.5s-3.5 -19.5 -10.5 -26.5s-15.833 -10.5 -26.5 -10.5s-19.5 3.5 -26.5 10.5s-10.5 15.833 -10.5 26.5zM64 26c0 10.667 3.5 19.5 10.5 26.5
s15.833 10.5 26.5 10.5s19.5 -3.5 26.5 -10.5s10.5 -15.833 10.5 -26.5s-3.5 -19.5 -10.5 -26.5s-15.833 -10.5 -26.5 -10.5s-19.5 3.5 -26.5 10.5s-10.5 15.833 -10.5 26.5z" />
    <glyph glyph-name="semicolon" unicode=";" horiz-adv-x="228" 
d="M66 380c0 10.667 3.5 19.5 10.5 26.5s15.833 10.5 26.5 10.5s19.5 -3.5 26.5 -10.5s10.5 -15.833 10.5 -26.5s-3.5 -19.5 -10.5 -26.5s-15.833 -10.5 -26.5 -10.5s-19.5 3.5 -26.5 10.5s-10.5 15.833 -10.5 26.5zM38 -137l60 202l40 -12l-74 -200z" />
    <glyph glyph-name="less" unicode="&#x3c;" 
d="M33 347l434 192v-41l-390 -170l390 -170v-41l-434 192v38z" />
    <glyph glyph-name="equal" unicode="=" 
d="M33 381v38h434v-38h-434zM33 239v38h434v-38h-434z" />
    <glyph glyph-name="greater" unicode="&#x3e;" 
d="M467 309l-434 -192v41l390 170l-390 170v41l434 -192v-38z" />
    <glyph glyph-name="question" unicode="?" horiz-adv-x="466" 
d="M330 260l39.999 0.000976562c0 -35.333 -7 -64.666 -21 -87.999c-22.667 -38.667 -60.667 -58 -114 -58c-41.333 0 -75 12 -101 36c-26.667 24.667 -40 58.334 -40 101.001c0 41.333 14.667 74.333 44 99c6.66699 5.33301 14.167 10 22.5 14s15.166 7 20.499 9
s14 4.66699 26 8s19.667 5.66602 23 6.99902c2.66699 0.666992 8 2.16699 16 4.5s13.833 4.16602 17.5 5.49902l15.5 5.5c6.66699 2.33301 12 4.66602 16 6.99902s8.33301 5.16602 13 8.49902s9 7 13 11c16.667 19.333 25 46.666 25 81.999c0 38 -10 68 -30 90
c-20.667 22.667 -49 34 -85 34s-64.333 -11.333 -85 -34c-18.667 -20 -28 -50 -28 -90c0 -13.333 2.33301 -26.666 7 -39.999h-44c-4.66699 14.667 -7 30 -7 46c0 49.333 14.667 88 44 116c30 28 68.667 42 116 42c49.333 0 88.333 -15 117 -45c27.333 -28 41 -67 41 -117
c0 -43.333 -12 -78.666 -36 -105.999c-21.333 -23.333 -51 -40.333 -89 -51l-25.5 -6.5c-11.667 -3 -20.667 -5.5 -27 -7.5s-13.666 -4.66699 -21.999 -8s-15.166 -7.33301 -20.499 -12c-22.667 -18 -34 -42.667 -34 -74c0 -27.333 8.33301 -50 25 -68
c18 -19.333 41.667 -29 71 -29c36 0 62.333 12 79 36c11.333 16 17 40 17 72zM196.999 26.001c0 10.667 3.5 19.5 10.5 26.5s15.833 10.5 26.5 10.5s19.5 -3.5 26.5 -10.5s10.5 -15.833 10.5 -26.5s-3.5 -19.5 -10.5 -26.5s-15.833 -10.5 -26.5 -10.5s-19.5 3.5 -26.5 10.5
s-10.5 15.833 -10.5 26.5z" />
    <glyph glyph-name="at" unicode="@" horiz-adv-x="732" 
d="M489 413l15.0049 78h32c-33.333 -171.333 -50 -261.666 -50 -270.999c0 -14 4 -26.333 12 -37s19.667 -16 35 -16c34.667 0 64.834 21 90.501 63s38.5 91.333 38.5 148c0 79.333 -27.333 143.5 -82 192.5s-122.334 73.5 -203.001 73.5c-88 0 -161.833 -30 -221.5 -90
s-89.5 -133.667 -89.5 -221c0 -64 16.833 -123 50.5 -177s79.5 -92.333 137.5 -115c40.667 -16 87 -24 139 -24c70.667 0 132.334 12.667 185.001 38l37 18l12 -29c-38.667 -20 -78.334 -34.667 -119.001 -44c-39.333 -8.66699 -78 -13 -116 -13
c-104.667 0 -190.834 32.333 -258.501 97s-101.5 147 -101.5 247c0 96.667 33.333 178 100 244s148.334 99 245.001 99c87.333 0 161.666 -27.5 222.999 -82.5s92 -126.167 92 -213.5c0 -67.333 -16.5 -124 -49.5 -170s-69.833 -69 -110.5 -69
c-21.333 0 -38.5 6.33301 -51.5 19s-19.5 30.667 -19.5 54c-13.333 -24 -31.333 -42.5 -54 -55.5s-46.667 -19.5 -72 -19.5c-42 0 -75.667 15.5 -101 46.5s-38 69.167 -38 114.5c0 56.667 16.5 105.167 49.5 145.5s74.833 60.5 125.5 60.5
c7.33301 0 14.666 -0.666992 21.999 -2s18.166 -4.33301 32.499 -9s27.166 -13.834 38.499 -27.501s19.666 -31.167 24.999 -52.5zM340.005 169c36 0 66.833 17.167 92.5 51.5s38.5 79.5 38.5 135.5c0 10 -0.833008 19.833 -2.5 29.5s-5.33398 22 -11.001 37
s-15.667 27 -30 36s-32.166 13.5 -53.499 13.5c-43.333 0 -78 -17.167 -104 -51.5s-39 -74.833 -39 -121.5c0 -40.667 10.833 -72.5 32.5 -95.5s47.167 -34.5 76.5 -34.5z" />
    <glyph glyph-name="A" unicode="A" horiz-adv-x="586" 
d="M524 0l-89 219h-284l-89 -219h-48l281 687l277 -687h-48zM167 259h252l-125 316z" />
    <glyph glyph-name="B" unicode="B" horiz-adv-x="534" 
d="M90 0l-0.00195312 667.001h146c57.333 0 102.333 -15.167 135 -45.5s49 -70.833 49 -121.5c0 -65.333 -26 -114 -78 -146c42.667 -6.66699 76.334 -25.334 101.001 -56.001s37 -67.667 37 -111c0 -57.333 -19.167 -102.833 -57.5 -136.5s-88.166 -50.5 -149.499 -50.5
h-183zM133.998 627.001v-262.001h106c38 0 68.333 9.33301 91 28c29.333 24 44 58 44 102c0 44.667 -15 79.334 -45 104.001c-24 18.667 -61 28 -111 28h-85zM133.998 325l0.000976562 -285h112c20.667 0 37 0.5 49 1.5s27.5 4.5 46.5 10.5s35.5 15.333 49.5 28
c28.667 25.333 43 59.333 43 102c0 60.667 -23.667 102 -71 124c-28.667 12.667 -70.334 19 -125.001 19h-104z" />
    <glyph glyph-name="C" unicode="C" horiz-adv-x="678" 
d="M624 589l-0.000976562 -58.002c-28.667 33.333 -62.5 59.166 -101.5 77.499s-80.167 27.5 -123.5 27.5c-84.667 0 -155.667 -29.667 -213 -89s-86 -131.666 -86 -216.999c0 -47.333 9.16699 -90.666 27.5 -129.999s42.333 -71.166 72 -95.499s61.834 -43 96.501 -56
s69.334 -19.5 104.001 -19.5c37.333 0 76 8.16699 116 24.5s76 41.833 108 76.5v-58c-62.667 -55.333 -136.667 -83 -222 -83c-98.667 0 -181.334 33.667 -248.001 101s-100 148 -100 242c0 96 33.667 177.333 101 244s149 100 245 100c88 0 162.667 -29 224 -87z" />
    <glyph glyph-name="D" unicode="D" horiz-adv-x="618" 
d="M222 0l-132.002 -0.000976562v667h132c102 0 184 -31 246 -93c32.667 -32.667 56.834 -70.667 72.501 -114s23.5 -85.666 23.5 -126.999c0 -40.667 -7.66699 -82.5 -23 -125.5s-39.666 -81.167 -72.999 -114.5c-62 -62 -144 -93 -246 -93zM133.998 626.999
l-0.000976562 -587h87c88 0 159.5 27.167 214.5 81.5s82.5 124.833 82.5 211.5c0 86 -27.667 156.5 -83 211.5s-126.666 82.5 -213.999 82.5h-87z" />
    <glyph glyph-name="E" unicode="E" horiz-adv-x="464" 
d="M410 667v-40h-276v-242h270v-40h-270v-305h276v-40h-320v667h320z" />
    <glyph glyph-name="F" unicode="F" horiz-adv-x="406" 
d="M360 667v-40h-226v-242h220v-40h-220v-345h-44v667h270z" />
    <glyph glyph-name="G" unicode="G" horiz-adv-x="772" 
d="M438 280l-0.000976562 39.999h280c0 -88 -22.667 -161 -68 -219c-58.667 -74.667 -142.334 -112 -251.001 -112c-98.667 0 -180.834 32.333 -246.501 97s-98.5 146.667 -98.5 246c0 98 33.5 179.833 100.5 245.5s149.5 98.5 247.5 98.5c76.667 0 146.334 -24 209.001 -72
c30.667 -24 57.334 -52 80.001 -84l-35 -28c-16 27.333 -37.333 52 -64 74c-56 46.667 -119.667 70 -191 70c-85.333 0 -156.833 -29.667 -214.5 -89s-86.5 -131.666 -86.5 -216.999c0 -84 28.333 -155.167 85 -213.5s127.667 -87.5 213 -87.5
c52.667 0 99.5 11.167 140.5 33.5s71.5 48.833 91.5 79.5c26.667 41.333 41.334 87.333 44.001 138h-236z" />
    <glyph glyph-name="H" unicode="H" horiz-adv-x="672" 
d="M134 667v-283h404v283h44v-667h-44v344h-404v-344h-44v667h44z" />
    <glyph glyph-name="I" unicode="I" horiz-adv-x="224" 
d="M90 667h44v-667h-44v667z" />
    <glyph glyph-name="J" unicode="J" horiz-adv-x="263" 
d="M129 667l44.001 0.00195312v-537c0 -50.667 -11 -87.334 -33 -110.001c-20.667 -20.667 -48.334 -31 -83.001 -31c-28 0 -52.333 8.33301 -73 25c-14.667 12 -27.667 27 -39 45l31 26c8.66699 -16.667 19 -29.334 31 -38.001c16 -12 33.333 -18 52 -18
c19.333 0 35.333 6.33301 48 19c14.667 14.667 22 39.667 22 75v544z" />
    <glyph glyph-name="K" unicode="K" horiz-adv-x="540" 
d="M134 667v-314l315 314h58l-323 -319l342 -348h-60l-314 318l-18 -17v-301h-44v667h44z" />
    <glyph glyph-name="L" unicode="L" horiz-adv-x="334" 
d="M90 667h44v-627h186v-40h-230v667z" />
    <glyph glyph-name="M" unicode="M" horiz-adv-x="896" 
d="M127 0h-44l76 690l289 -617l289 617l76 -690h-44l-59 536c-174 -373.333 -261.333 -560 -262 -560l-262 560z" />
    <glyph glyph-name="N" unicode="N" horiz-adv-x="784" 
d="M134 0h-44v674l560 -586v579h44v-684l-560 586v-569z" />
    <glyph glyph-name="O" unicode="O" horiz-adv-x="800" 
d="M400 676c97.333 0 179.333 -33.333 246 -100s100 -148 100 -244s-33.333 -177.167 -100 -243.5s-148.667 -99.5 -246 -99.5c-98 0 -180.167 33.167 -246.5 99.5s-99.5 147.5 -99.5 243.5s33.333 177.333 100 244s148.667 100 246 100zM400 29
c85.333 0 156.666 29.167 213.999 87.5s86 130.166 86 215.499c0 86 -28.667 158.167 -86 216.5s-128.666 87.5 -213.999 87.5s-156.666 -29.167 -213.999 -87.5s-86 -130.5 -86 -216.5c0 -85.333 28.667 -157.166 86 -215.499s128.666 -87.5 213.999 -87.5z" />
    <glyph glyph-name="P" unicode="P" horiz-adv-x="446" 
d="M220 317l-86.001 -0.000976562v-317h-44v667h129c56.667 0 103.334 -15.167 140.001 -45.5s55 -73.166 55 -128.499c0 -54.667 -17.667 -97.667 -53 -129s-82.333 -47 -141 -47zM133.999 626.999v-269.999h88c44 0 79.333 12.167 106 36.5s40 57.166 40 98.499
c0 42 -13.5 75 -40.5 99s-64.5 36 -112.5 36h-81z" />
    <glyph glyph-name="Q" unicode="Q" horiz-adv-x="800" 
d="M736 0h-58l-59 64c-63.333 -50 -136.333 -75 -219 -75c-97.333 0 -179.333 33.167 -246 99.5s-100 147.5 -100 243.5s33.333 177.333 100 244s148.667 100 246 100c96.667 0 178.5 -33.333 245.5 -100s100.5 -148 100.5 -244c0 -92.667 -32 -172.667 -96 -240zM400 29
c72 0 135.666 21.666 190.999 64.999l-167 179h58l139 -150c52.667 57.333 79 127 79 209c0 85.333 -28.667 157.333 -86 216s-128.666 88 -213.999 88s-156.666 -29.167 -213.999 -87.5s-86 -130.5 -86 -216.5c0 -85.333 28.667 -157.166 86 -215.499
s128.666 -87.5 213.999 -87.5z" />
    <glyph glyph-name="R" unicode="R" horiz-adv-x="468" 
d="M420 0h-50.001l-216 315h-20v-315h-44v667h96c60.667 0 107.667 -11.333 141 -34c46 -32 69 -79.667 69 -143c0 -36.667 -9 -69.5 -27 -98.5s-46.333 -50.167 -85 -63.5c-25.333 -8.66699 -52.666 -13 -81.999 -13zM133.999 627v-272h64c47.333 0 84.5 12 111.5 36
s40.5 57.333 40.5 100c0 56 -19.667 94.667 -59 116c-23.333 13.333 -57.333 20 -102 20h-55z" />
    <glyph glyph-name="S" unicode="S" horiz-adv-x="514" 
d="M426 581l-32.001 -26.9961c-28 54.667 -71.667 82 -131 82c-38 0 -68.167 -12 -90.5 -36s-33.5 -53.333 -33.5 -88c0 -17.333 2.5 -32.333 7.5 -45s14 -24.334 27 -35.001s24.5 -18.834 34.5 -24.501s26 -13.834 48 -24.501c72 -34.667 116.333 -58 133 -70
c47.333 -32.667 71 -75.667 71 -129c0 -55.333 -20.333 -101.666 -61 -138.999s-89.667 -56 -147 -56c-63.333 0 -115 23.333 -155 70c-19.333 22.667 -33.666 47 -42.999 73l38 18c8 -24 20 -45.333 36 -64c30 -38 71.667 -57 125 -57c45.333 0 83.5 14.667 114.5 44
s46.5 66 46.5 110c0 43.333 -21.667 78.333 -65 105c-19.333 11.333 -57 30.666 -113 57.999c-36.667 18 -63.5 32.667 -80.5 44s-30.833 26 -41.5 44c-14 23.333 -21 48.666 -21 75.999c0 43.333 14.667 81.833 44 115.5s71.666 50.5 126.999 50.5
c34 0 65.333 -8.16699 94 -24.5s51.334 -39.833 68.001 -70.5z" />
    <glyph glyph-name="T" unicode="T" horiz-adv-x="418" 
d="M404 627h-173v-627h-44v627h-173v40h390v-40z" />
    <glyph glyph-name="U" unicode="U" horiz-adv-x="634" 
d="M90 667h44v-417c0 -35.333 1.83301 -63.5 5.5 -84.5s11.167 -40.833 22.5 -59.5c17.333 -28 40.5 -47.833 69.5 -59.5s57.5 -17.5 85.5 -17.5s56.5 5.83301 85.5 17.5s52.167 31.5 69.5 59.5c11.333 18.667 18.833 38.5 22.5 59.5s5.5 49.167 5.5 84.5v417h44v-417
c0 -41.333 -2.33301 -74.333 -7 -99s-15 -48.667 -31 -72c-41.333 -60 -104.333 -90 -189 -90s-147.667 30 -189 90c-16 23.333 -26.333 47.333 -31 72s-7 57.667 -7 99v417z" />
    <glyph glyph-name="V" unicode="V" horiz-adv-x="510" 
d="M14 667h48l196 -568l190 568h48l-238 -694z" />
    <glyph glyph-name="W" unicode="W" horiz-adv-x="984" 
d="M14 667h48l184 -566l241 602l226 -602l209 566h48l-257 -692l-226 606l-248 -606z" />
    <glyph glyph-name="X" unicode="X" horiz-adv-x="470" 
d="M23 0l183 340l-175 327h48l151 -285l152 285h48l-174 -327l183 -340h-48l-161 300l-159 -300h-48z" />
    <glyph glyph-name="Y" unicode="Y" horiz-adv-x="516" 
d="M233 0v285l-219 382h50l192 -337l196 337h50l-225 -382v-285h-44z" />
    <glyph glyph-name="Z" unicode="Z" horiz-adv-x="554" 
d="M517 667l-406 -627h395v-40h-469l406 627h-367v40h441z" />
    <glyph glyph-name="bracketleft" unicode="[" horiz-adv-x="278" 
d="M238 689h-106v-809h106v-40h-150v889h150v-40z" />
    <glyph glyph-name="backslash" unicode="\" horiz-adv-x="576" 
d="M556 -158l-32 -16l-504 901l32 16z" />
    <glyph glyph-name="bracketright" unicode="]" horiz-adv-x="278" 
d="M40 -120h106v809h-106v40h150v-889h-150v40z" />
    <glyph glyph-name="asciicircum" unicode="^" 
d="M250 636l-167 -254h-46l186 285h54l186 -285h-46z" />
    <glyph glyph-name="underscore" unicode="_" 
d="M0 -116v38h500v-38h-500z" />
    <glyph glyph-name="grave" unicode="`" 
d="M248 467l-105 128l43 25l92 -137z" />
    <glyph glyph-name="a" unicode="a" horiz-adv-x="516" 
d="M404 337v71.001h40v-408h-40v73c-36.667 -56 -89.667 -84 -159 -84c-55.333 0 -102.333 19.667 -141 59s-58 91.333 -58 156c0 63.333 18.333 114.666 55 153.999s84.667 59 144 59c68 0 121 -26.667 159 -80zM247 379.001c-43.333 0 -80.666 -15.499 -111.999 -46.499
s-47 -72.833 -47 -125.5c0 -48.667 14.333 -90.834 43 -126.501s67.667 -53.5 117 -53.5c48.667 0 87.167 17.5 115.5 52.5s42.5 77.5 42.5 127.5c0 55.333 -16.333 97.833 -49 127.5s-69.334 44.5 -110.001 44.5z" />
    <glyph glyph-name="b" unicode="b" horiz-adv-x="516" 
d="M72 729l40.002 0.00195312v-392c39.333 53.333 92.666 80 159.999 80c60 0 108 -19.833 144 -59.5s54 -89.834 54 -150.501c0 -62 -18.167 -113.833 -54.5 -155.5s-84.833 -62.5 -145.5 -62.5c-30.667 0 -58.334 6.16699 -83.001 18.5s-41.667 23.666 -51 33.999
s-17.333 20.833 -24 31.5v-73h-40v729zM269.002 27.002c50 0 89 17 117 51s42 77 42 129c0 54 -15.333 96.167 -46 126.5s-68 45.5 -112 45.5c-43.333 0 -80.833 -15 -112.5 -45s-47.5 -71.667 -47.5 -125c0 -52.667 14 -96.167 42 -130.5s67 -51.5 117 -51.5z" />
    <glyph glyph-name="c" unicode="c" horiz-adv-x="442" 
d="M399 365l0.000976562 -52.999c-38.667 44.667 -85.667 67 -141 67c-49.333 0 -90 -16.833 -122 -50.5s-48 -75.834 -48 -126.501c0 -54.667 17 -97.5 51 -128.5s73 -46.5 117 -46.5c54 0 103.333 24.333 148 73v-54c-42.667 -38 -92.334 -57 -149.001 -57
c-61.333 0 -111.5 20.167 -150.5 60.5s-58.5 90.833 -58.5 151.5c0 62 19.333 113.5 58 154.5s90 61.5 154 61.5c52.667 0 99.667 -17.333 141 -52z" />
    <glyph glyph-name="d" unicode="d" horiz-adv-x="516" 
d="M404 337l0.000976562 392h40v-729h-40v73c-36.667 -56 -89.334 -84 -158.001 -84c-55.333 0 -102.5 19.167 -141.5 57.5s-58.5 91.5 -58.5 159.5c0 69.333 19.667 121.833 59 157.5s86.333 53.5 141 53.5c68 0 120.667 -26.667 158 -80zM246.001 379
c-44.667 0 -82.167 -15 -112.5 -45s-45.5 -72.333 -45.5 -127c0 -56.667 15.667 -100.834 47 -132.501s69 -47.5 113 -47.5c43.333 0 80.5 15.833 111.5 47.5s46.5 75.834 46.5 132.501c0 49.333 -14.333 90.333 -43 123s-67.667 49 -117 49z" />
    <glyph glyph-name="e" unicode="e" horiz-adv-x="483" 
d="M437 199h-349.003c0 -50.667 15.833 -92 47.5 -124s69.834 -48 114.501 -48c32 0 60.333 8.5 85 25.5s43.667 39.5 57 67.5l34 -20c-15.333 -29.333 -37.666 -55.166 -66.999 -77.499s-66.666 -33.5 -111.999 -33.5c-62 0 -111 20.167 -147 60.5s-54 91.166 -54 152.499
c0 67.333 19.5 120 58.5 158s85.5 57 139.5 57c55.333 0 101.333 -20.333 138 -61s55 -93 55 -157zM90.9971 237h304c-5.33301 41.333 -21.833 75.333 -49.5 102s-61.5 40 -101.5 40c-40.667 0 -75 -13.5 -103 -40.5s-44.667 -60.833 -50 -101.5z" />
    <glyph glyph-name="f" unicode="f" horiz-adv-x="214" 
d="M214 370h-102v-370h-40v370h-46v38h46v194c0 52 10.333 88.167 31 108.5s46 30.5 76 30.5c9.33301 0 21 -2 35 -6v-37c-8 3.33301 -18.333 5 -31 5c-21.333 0 -38.5 -7.5 -51.5 -22.5s-19.5 -43.833 -19.5 -86.5v-186h102v-38z" />
    <glyph glyph-name="g" unicode="g" horiz-adv-x="520" 
d="M408 408l40.002 -0.000976562v-396c0 -76.667 -18.167 -136.167 -54.5 -178.5s-86.5 -63.5 -150.5 -63.5c-55.333 0 -101.833 15.5 -139.5 46.5s-57.834 73.833 -60.501 128.5h42c3.33301 -42 19.5 -75.333 48.5 -100s65.5 -37 109.5 -37c30 0 56.167 6 78.5 18
s38.833 25.667 49.5 41s19 34 25 56s9.5 39 10.5 51s1.5 24.667 1.5 38v58c-38.667 -54 -92.334 -81 -161.001 -81c-54 0 -101 19 -141 57s-60 90.667 -60 158c0 60.667 18.667 111.334 56 152.001s87.333 61 150 61c66.667 0 118.667 -26.667 156 -80v71zM248.002 378.999
c-48.667 0 -87.499 -17.168 -116.499 -51.501s-43.5 -76.166 -43.5 -125.499c0 -50 14.5 -91.667 43.5 -125s67.167 -50 114.5 -50c49.333 0 89 17 119 51s45 76.667 45 128c0 48.667 -14.833 89.667 -44.5 123s-68.834 50 -117.501 50z" />
    <glyph glyph-name="h" unicode="h" horiz-adv-x="442" 
d="M72 0l-0.00195312 728.999h40v-385c27.333 48.667 69 73 125 73c50.667 0 88.334 -19 113.001 -57c13.333 -21.333 20 -55.666 20 -102.999v-257h-40v257c0 38 -5.33301 65.333 -16 82c-16 26.667 -42.667 40 -80 40c-45.333 0 -78.666 -19 -99.999 -57
c-14.667 -26 -22 -62.667 -22 -110v-212h-40z" />
    <glyph glyph-name="i" unicode="i" horiz-adv-x="184" 
d="M72 408h40v-408h-40v408zM92 507c-10 0 -18.5 3.5 -25.5 10.5s-10.5 15.833 -10.5 26.5s3.5 19.5 10.5 26.5s15.5 10.5 25.5 10.5s18.5 -3.5 25.5 -10.5s10.5 -15.833 10.5 -26.5s-3.5 -19.5 -10.5 -26.5s-15.5 -10.5 -25.5 -10.5z" />
    <glyph glyph-name="j" unicode="j" horiz-adv-x="184" 
d="M72 408h40v-638h-40v638zM92 507c-10 0 -18.5 3.5 -25.5 10.5s-10.5 15.833 -10.5 26.5s3.5 19.5 10.5 26.5s15.5 10.5 25.5 10.5s18.5 -3.5 25.5 -10.5s10.5 -15.833 10.5 -26.5s-3.5 -19.5 -10.5 -26.5s-15.5 -10.5 -25.5 -10.5z" />
    <glyph glyph-name="k" unicode="k" horiz-adv-x="396" 
d="M72 729h40v-496l168 175h52l-172 -177l228 -231h-54l-201 202l-21 -21v-181h-40v729z" />
    <glyph glyph-name="l" unicode="l" horiz-adv-x="184" 
d="M72 729h40v-729h-40v729z" />
    <glyph glyph-name="m" unicode="m" horiz-adv-x="652" 
d="M72 0l0.00195312 408h40v-51c23.333 40 58.666 60 105.999 60c57.333 0 95.333 -24.667 114 -74c23.333 49.333 63.666 74 120.999 74c38.667 0 69.334 -11.333 92.001 -34c23.333 -23.333 35 -60.333 35 -111v-272h-40v272c0 39.333 -8 67.333 -24 84
c-14.667 15.333 -35 23 -61 23c-20 0 -37.5 -4 -52.5 -12s-26 -17 -33 -27s-12.333 -22.333 -16 -37s-5.83398 -25.667 -6.50098 -33s-1 -15.333 -1 -24v-246h-40v262c0 78 -30 117 -90 117c-34 0 -59.833 -13.167 -77.5 -39.5s-26.5 -60.833 -26.5 -103.5v-236h-40z" />
    <glyph glyph-name="n" unicode="n" horiz-adv-x="442" 
d="M72 0l-0.00195312 407.999h40v-64c27.333 48.667 69 73 125 73c50.667 0 88.334 -19 113.001 -57c13.333 -21.333 20 -55.666 20 -102.999v-257h-40v257c0 38 -5.33301 65.333 -16 82c-16 26.667 -42.667 40 -80 40c-45.333 0 -78.666 -19 -99.999 -57
c-14.667 -26 -22 -62.667 -22 -110v-212h-40z" />
    <glyph glyph-name="o" unicode="o" horiz-adv-x="520" 
d="M260 417c60.667 0 111.5 -20.5 152.5 -61.5s61.5 -91.833 61.5 -152.5s-20.5 -111.5 -61.5 -152.5s-91.833 -61.5 -152.5 -61.5s-111.5 20.5 -152.5 61.5s-61.5 91.833 -61.5 152.5s20.5 111.5 61.5 152.5s91.833 61.5 152.5 61.5zM260 27c48.667 0 89.5 17 122.5 51
s49.5 75.667 49.5 125s-16.5 91 -49.5 125s-73.833 51 -122.5 51s-89.5 -17 -122.5 -51s-49.5 -75.667 -49.5 -125s16.5 -91 49.5 -125s73.833 -51 122.5 -51z" />
    <glyph glyph-name="p" unicode="p" horiz-adv-x="516" 
d="M112 73l0.00195312 -302.998h-40v638h40v-71c39.333 53.333 92.666 80 159.999 80c60 0 108 -19.833 144 -59.5s54 -89.834 54 -150.501c0 -62 -18.167 -113.833 -54.5 -155.5s-84.833 -62.5 -145.5 -62.5c-30.667 0 -58.334 6.16699 -83.001 18.5
s-41.667 23.666 -51 33.999s-17.333 20.833 -24 31.5zM269.002 27.002c50 0 89 17 117 51s42 77 42 129c0 54 -15.333 96.167 -46 126.5s-68 45.5 -112 45.5c-43.333 0 -80.833 -15 -112.5 -45s-47.5 -71.667 -47.5 -125c0 -52.667 14 -96.167 42 -130.5s67 -51.5 117 -51.5
z" />
    <glyph glyph-name="q" unicode="q" horiz-adv-x="516" 
d="M444 -230h-39.999v303c-36.667 -56 -89.334 -84 -158.001 -84c-55.333 0 -102.5 19.167 -141.5 57.5s-58.5 91.5 -58.5 159.5c0 69.333 19.667 121.833 59 157.5s86.333 53.5 141 53.5c68 0 120.667 -26.667 158 -80v71h40v-638zM246.001 379
c-44.667 0 -82.167 -15 -112.5 -45s-45.5 -72.333 -45.5 -127c0 -56.667 15.667 -100.834 47 -132.501s69 -47.5 113 -47.5c43.333 0 80.5 15.833 111.5 47.5s46.5 75.834 46.5 132.501c0 49.333 -14.333 90.333 -43 123s-67.667 49 -117 49z" />
    <glyph glyph-name="r" unicode="r" horiz-adv-x="260" 
d="M72 0l-0.00292969 408h40v-53c18 41.333 48 62 90 62c16 0 30.333 -3.33301 43 -10l-20 -36c-7.33301 5.33301 -17.333 8 -30 8c-19.333 0 -35.166 -5.5 -47.499 -16.5s-20.666 -26.333 -24.999 -46s-7.16602 -36.167 -8.49902 -49.5s-2 -29.333 -2 -48v-219h-40z" />
    <glyph glyph-name="s" unicode="s" horiz-adv-x="334" 
d="M280 351l-34 -18c-13.333 30.667 -37 46 -71 46c-21.333 0 -38.166 -6.66699 -50.499 -20s-18.5 -28.333 -18.5 -45c0 -12.667 3.66699 -23.5 11 -32.5s15 -15.667 23 -20s20.667 -9.83301 38 -16.5c2.66699 -0.666992 9.16699 -3.16699 19.5 -7.5l20.5 -8.5
c3.33301 -1.33301 9.16602 -3.83301 17.499 -7.5s14.5 -7 18.5 -10s8.83301 -6.83301 14.5 -11.5s10.5 -9.66699 14.5 -15c14 -17.333 21 -39.333 21 -66c0 -43.333 -13.167 -75.833 -39.5 -97.5s-57.5 -32.5 -93.5 -32.5c-34.667 0 -64.667 9.66699 -90 29
s-42.333 45.666 -51 78.999l39 12c6.66699 -26 19.5 -46.167 38.5 -60.5s40.167 -21.5 63.5 -21.5c26 0 47.667 8.5 65 25.5s26 38.5 26 64.5c0 21.333 -6.66699 37.833 -20 49.5s-37 24.5 -71 38.5c-46.667 19.333 -76.334 37.333 -89.001 54c-12 16 -18 33.667 -18 53
c0 30.667 10.333 55.834 31 75.501s46.667 29.5 78 29.5c52.667 0 88.334 -22 107.001 -66z" />
    <glyph glyph-name="t" unicode="t" horiz-adv-x="194" 
d="M186 370h-71v-370h-40v370h-45v38h45v146h40v-146h71v-38z" />
    <glyph glyph-name="u" unicode="u" horiz-adv-x="438" 
d="M72 408h40v-246c0 -47.333 8.66699 -81.333 26 -102c18.667 -22 45.667 -33 81 -33s62.333 11 81 33c17.333 20.667 26 54.667 26 102v246h40v-257c0 -48 -10.333 -85.333 -31 -112c-26 -33.333 -64.667 -50 -116 -50s-90 16.667 -116 50c-20.667 26.667 -31 64 -31 112
v257z" />
    <glyph glyph-name="v" unicode="v" horiz-adv-x="390" 
d="M8 408h44l144 -339l142 339h44l-186 -433z" />
    <glyph glyph-name="w" unicode="w" horiz-adv-x="672" 
d="M8 408h44l141 -337l141 362l141 -362l145 337h44l-189 -433l-141 362l-141 -362z" />
    <glyph glyph-name="x" unicode="x" horiz-adv-x="400" 
d="M8 0l165 214l-151 194h49l129 -168l127 168h49l-148 -194l164 -214h-49l-143 188l-143 -188h-49z" />
    <glyph glyph-name="y" unicode="y" horiz-adv-x="428" 
d="M106 -230l96 223l-194 415h46l171 -363l149 363h46l-268 -638h-46z" />
    <glyph glyph-name="z" unicode="z" horiz-adv-x="452" 
d="M434 408l-330 -370h328v-38h-414l334 370h-282v38h364z" />
    <glyph glyph-name="braceleft" unicode="{" horiz-adv-x="278" 
d="M40 270v28.999c17.333 4.66699 30.5 12.667 39.5 24s14.5 22.5 16.5 33.5s3 25.167 3 42.5v194c0 48.667 10.333 83.334 31 104.001c21.333 21.333 54 32 98 32h12v-40c-38 0 -64 -8 -78 -24c-12.667 -14 -19 -39 -19 -75v-194c0 -32 -4.5 -56.5 -13.5 -73.5
s-25.833 -29.833 -50.5 -38.5c42.667 -15.333 64 -54 64 -116v-182c0 -41.333 6.33301 -69 19 -83c13.333 -15.333 39.333 -23 78 -23v-40h-9c-47.333 0 -81.333 11.333 -102 34c-20 22 -30 62 -30 120v176c0 11.333 -0.5 21 -1.5 29s-3.16699 17.5 -6.5 28.5
s-9.33301 20 -18 27s-19.667 12.167 -33 15.5z" />
    <glyph glyph-name="bar" unicode="|" 
d="M230 -250v1000h40v-1000h-40z" />
    <glyph glyph-name="braceright" unicode="}" horiz-adv-x="278" 
d="M238 299v-28.999c-13.333 -3.33301 -24.333 -8.5 -33 -15.5s-14.667 -16 -18 -27s-5.5 -20.5 -6.5 -28.5s-1.5 -17.667 -1.5 -29v-176c0 -58 -10 -98 -30 -120c-20.667 -22.667 -54.667 -34 -102 -34h-9v40c38.667 0 64.667 7.66699 78 23c12.667 14 19 41.667 19 83v182
c0 62 21.333 100.667 64 116c-24.667 8.66699 -41.5 21.5 -50.5 38.5s-13.5 41.5 -13.5 73.5v194c0 36 -6.33301 61 -19 75c-14 16 -40 24 -78 24v40h12c44 0 76.667 -10.667 98 -32c20.667 -20.667 31 -55.334 31 -104.001v-194c0 -17.333 1 -31.5 3 -42.5
s7.5 -22.167 16.5 -33.5s22.167 -19.333 39.5 -24z" />
    <glyph glyph-name="asciitilde" unicode="~" 
d="M39 195l-26.999 16.001c12 25.333 27.667 47.666 47 66.999c24.667 23.333 53 35 85 35c24.667 0 62.334 -13.333 113.001 -40c48 -24.667 82.333 -37 103 -37c25.333 0 47 9 65 27c12.667 12.667 24.667 29.667 36 51l27 -16c-12 -24 -25 -43.333 -39 -58
c-26.667 -28 -58.334 -42 -95.001 -42c-29.333 0 -75.333 17.333 -138 52c-30.667 16.667 -55.667 25 -75 25c-24.667 0 -46 -8.66699 -64 -26c-14.667 -14 -27.334 -32 -38.001 -54z" />
    <glyph glyph-name="uni00A0" unicode="&#xa0;" horiz-adv-x="233" 
 />
    <glyph glyph-name="exclamdown" unicode="&#xa1;" horiz-adv-x="260" 
d="M108 318h44v-548h-44v548zM167 407c0 -10.667 -3.5 -19.5 -10.5 -26.5s-15.833 -10.5 -26.5 -10.5s-19.5 3.5 -26.5 10.5s-10.5 15.833 -10.5 26.5s3.5 19.5 10.5 26.5s15.833 10.5 26.5 10.5s19.5 -3.5 26.5 -10.5s10.5 -15.833 10.5 -26.5z" />
    <glyph glyph-name="cent" unicode="&#xa2;" horiz-adv-x="548" 
d="M319 655v-102c45.333 0 88.333 -17 129 -51v-53c-38.667 41.333 -81.667 63.333 -129 66v-350c50.667 2 95.334 26 134.001 72v-54c-40.667 -35.333 -85.334 -54 -134.001 -56v-114h-38v114c-55.333 7.33301 -100.166 30.5 -134.499 69.5s-51.5 86.167 -51.5 141.5
c0 57.333 17.167 105.5 51.5 144.5s79.166 62.167 134.499 69.5v103h38zM281 165l-0.000976562 349.001c-47.333 -8.66699 -83.166 -29.834 -107.499 -63.501s-36.5 -70.834 -36.5 -111.501c0 -40 12.5 -77.167 37.5 -111.5s60.5 -55.166 106.5 -62.499z" />
    <glyph glyph-name="sterling" unicode="&#xa3;" horiz-adv-x="548" 
d="M97 273l-0.00488281 40.0029h98l-21 35c-17.333 29.333 -30.666 52.666 -39.999 69.999c-15.333 30.667 -23 58.667 -23 84c0 48 17 88.667 51 122c34.667 33.333 77.334 50 128.001 50c46.667 0 85.334 -15 116.001 -45c35.333 -35.333 53 -82 53 -140h-44
c0 50 -14 87.667 -42 113c-23.333 21.333 -51.333 32 -84 32c-38.667 0 -70.667 -13 -96 -39c-24 -24.667 -36 -54 -36 -88c0 -26 9 -55.667 27 -89c6.66699 -12.667 22 -38.334 46 -77.001l17 -28h121v-40h-108c14.667 -29.333 22 -58.666 22 -87.999
c0 -36.667 -15.333 -75 -46 -115l65 -22c34 -11.333 58 -17 72 -17c22 0 41 7 57 21s28.333 30 37 48l36 -22c-12.667 -24.667 -30 -46 -52 -64s-46.333 -27 -73 -27c-8 0 -17.333 1.16699 -28 3.5s-19.667 4.66602 -27 6.99902l-34 11c-15.333 5 -25.666 8.5 -30.999 10.5
c-34 11.333 -58.667 17 -74 17c-27.333 0 -57.666 -15.333 -90.999 -46l-24 32c35.333 38 75 57 119 57c33.333 34.667 50 70 50 106c0 29.333 -9 58.666 -27 87.999h-114z" />
    <glyph glyph-name="currency" unicode="&#xa4;" horiz-adv-x="548" 
d="M40 90l-24 25l90 89c-37.333 41.333 -56 90 -56 146c0 55.333 17.667 103 53 143l-90 90l24 24l90 -89c40.667 37.333 89.667 56 147 56s106.333 -18.667 147 -56l90 89l24 -24l-90 -90c36 -39.333 54 -87.333 54 -144c0 -52 -18.333 -99.667 -55 -143l91 -91l-24 -24
l-91 91c-40 -36.667 -88 -55 -144 -55s-104.667 17.667 -146 53zM461 350c0 51.333 -18.333 95.5 -55 132.5s-80.667 55.5 -132 55.5s-95.166 -18.5 -131.499 -55.5s-54.5 -81.167 -54.5 -132.5s18.167 -95.333 54.5 -132s80.166 -55 131.499 -55s95.333 18.333 132 55
s55 80.667 55 132z" />
    <glyph glyph-name="yen" unicode="&#xa5;" horiz-adv-x="548" 
d="M500 391h-145l-61 -103h206v-40h-207v-248h-44v248h-200v40h198l-59 103h-139v40h116l-134 236h51l190 -335l194 335h51l-139 -236h122v-40z" />
    <glyph glyph-name="brokenbar" unicode="&#xa6;" 
d="M230 390v360h40v-360h-40zM230 -250v360h40v-360h-40z" />
    <glyph glyph-name="section" unicode="&#xa7;" horiz-adv-x="548" 
d="M116 13l44 -0.00195312c0 -48 9.33301 -81.667 28 -101c21.333 -21.333 50.666 -32 87.999 -32c35.333 0 63.333 10.333 84 31s31 47 31 79c0 34.667 -11 62.334 -33 83.001c-18 17.333 -52.667 33 -104 47c-48.667 13.333 -84 30 -106 50c-32 29.333 -48 68 -48 116
c0 42 11 77 33 105c20.667 26.667 47.334 46 80.001 58c-28.667 13.333 -51 29.666 -67 48.999c-19.333 24 -29 53 -29 87c0 46 14.667 83.667 44 113c29.333 28 68.666 42 117.999 42c53.333 0 94 -14.333 122 -43c27.333 -28 41 -71 41 -129h-44v9
c0 42.667 -11 74.334 -33 95.001c-20 18.667 -47.667 28 -83 28c-37.333 0 -66.666 -10 -87.999 -30c-20.667 -18.667 -31 -44.667 -31 -78c0 -30.667 10.333 -56 31 -76c8 -8 24.167 -17.667 48.5 -29s42.833 -18.666 55.5 -21.999c48 -14 84 -33 108 -57
c28 -28 42 -66.667 42 -116c0 -40.667 -10 -73.667 -30 -99c-18 -24 -42.667 -42 -74 -54c30 -14.667 53 -33.667 69 -57c16 -24 24 -53 24 -87c0 -47.333 -13.333 -84.333 -40 -111c-28.667 -29.333 -69.667 -44 -123 -44c-50.667 0 -88.667 12 -114 36
c-29.333 28 -44 73.667 -44 137zM274 420.998c-38 0 -69.333 -12.668 -94 -38.001c-22.667 -23.333 -34 -54 -34 -92c0 -39.333 11.333 -69.666 34 -90.999c26 -24.667 57.333 -37 94 -37s68 13 94 39c22.667 24 34 54 34 90c0 38.667 -11.667 69.667 -35 93
c-22.667 24 -53.667 36 -93 36z" />
    <glyph glyph-name="dieresis" unicode="&#xa8;" 
d="M131 526c0 10 3.5 18.5 10.5 25.5s15.5 10.5 25.5 10.5s18.5 -3.5 25.5 -10.5s10.5 -15.5 10.5 -25.5s-3.5 -18.5 -10.5 -25.5s-15.5 -10.5 -25.5 -10.5s-18.5 3.5 -25.5 10.5s-10.5 15.5 -10.5 25.5zM297 526c0 10 3.5 18.5 10.5 25.5s15.5 10.5 25.5 10.5
s18.5 -3.5 25.5 -10.5s10.5 -15.5 10.5 -25.5s-3.5 -18.5 -10.5 -25.5s-15.5 -10.5 -25.5 -10.5s-18.5 3.5 -25.5 10.5s-10.5 15.5 -10.5 25.5z" />
    <glyph glyph-name="copyright" unicode="&#xa9;" horiz-adv-x="740" 
d="M27 333c0 95.333 33.5 176.5 100.5 243.5s147.833 100.5 242.5 100.5s175.5 -33.5 242.5 -100.5s100.5 -148.167 100.5 -243.5c0 -94.667 -33.5 -175.5 -100.5 -242.5s-147.833 -100.5 -242.5 -100.5s-175.5 33.5 -242.5 100.5s-100.5 147.833 -100.5 242.5zM679 333
c0 86 -30.333 159.833 -91 221.5s-133.334 92.5 -218.001 92.5s-157.334 -30.833 -218.001 -92.5s-91 -135.5 -91 -221.5s30.333 -159.667 91 -221s133.334 -92 218.001 -92s157.334 30.667 218.001 92s91 135 91 221zM513 474v-53c-33.333 45.333 -76.666 68 -129.999 68
c-46 0 -83.833 -15.167 -113.5 -45.5s-44.5 -68.833 -44.5 -115.5c0 -45.333 15.167 -83 45.5 -113s68.166 -45 113.499 -45c51.333 0 94.333 21.667 129 65v-52c-40 -32.667 -83 -49 -129 -49c-56 0 -102.833 18.5 -140.5 55.5s-56.5 83.5 -56.5 139.5
c0 56.667 18.833 103.5 56.5 140.5s84.5 55.5 140.5 55.5c49.333 0 92.333 -17 129 -51z" />
    <glyph glyph-name="ordfeminine" unicode="&#xaa;" horiz-adv-x="338" 
d="M266 615l0.00195312 46h26v-268h-26v48c-10.667 -16 -24.334 -28.667 -41.001 -38c-18.667 -10.667 -39.334 -16 -62.001 -16c-38.667 0 -70 12 -94 36c-26 26 -39 60.667 -39 104c0 44 13 79 39 105c23.333 23.333 55.333 35 96 35c22.667 0 42.667 -5 60 -15
c16 -8.66699 29.667 -21 41 -37zM163.002 643c-32 0 -57.335 -9.99902 -76.002 -29.999c-19.333 -20.667 -29 -49 -29 -85c0 -38.667 11.333 -68.667 34 -90c19.333 -18 43 -27 71 -27c28.667 0 52.334 9.33301 71.001 28c22.667 22.667 34 52.667 34 90
c0 35.333 -10.667 63.666 -32 84.999c-19.333 19.333 -43.666 29 -72.999 29zM37 325.001h255v-34h-255v34z" />
    <glyph glyph-name="guillemotleft" unicode="&#xab;" horiz-adv-x="348" 
d="M80 207l108 -126l-26 -24l-130 150l130 150l26 -24zM186 207l108 -126l-26 -24l-130 150l130 150l26 -24z" />
    <glyph glyph-name="logicalnot" unicode="&#xac;" 
d="M467 0h-40v229h-394v38h434v-267z" />
    <glyph glyph-name="uni00AD" unicode="&#xad;" horiz-adv-x="300" 
d="M50 184v46h200v-46h-200z" />
    <glyph glyph-name="registered" unicode="&#xae;" horiz-adv-x="740" 
d="M27 333c0 95.333 33.5 176.5 100.5 243.5s147.833 100.5 242.5 100.5s175.5 -33.5 242.5 -100.5s100.5 -148.167 100.5 -243.5c0 -94.667 -33.5 -175.5 -100.5 -242.5s-147.833 -100.5 -242.5 -100.5s-175.5 33.5 -242.5 100.5s-100.5 147.833 -100.5 242.5zM679 333
c0 86 -30.333 159.833 -91 221.5s-133.334 92.5 -218.001 92.5s-157.334 -30.833 -218.001 -92.5s-91 -135.5 -91 -221.5s30.333 -159.667 91 -221s133.334 -92 218.001 -92s157.334 30.667 218.001 92s91 135 91 221zM495 135h-40l-117 171h-7v-171h-34v370h62
c40.667 0 70.5 -7.83301 89.5 -23.5s28.5 -41.5 28.5 -77.5c0 -44 -21.333 -74.333 -64 -91c-6.66699 -2.66699 -13.167 -4.5 -19.5 -5.5s-10.833 -1.5 -13.5 -1.5h-4zM331 474l0.000976562 -137h34c51.333 0 77 22.667 77 68c0 16 -2.66699 29 -8 39s-13 17 -23 21
s-18.333 6.5 -25 7.5s-15.334 1.5 -26.001 1.5h-29z" />
    <glyph glyph-name="macron" unicode="&#xaf;" 
d="M115 493v39h270v-39h-270z" />
    <glyph glyph-name="degree" unicode="&#xb0;" 
d="M250 667c40 0 72.5 -12.333 97.5 -37s37.5 -56 37.5 -94s-12.5 -69.333 -37.5 -94s-57.5 -37 -97.5 -37s-72.5 12.333 -97.5 37s-37.5 56 -37.5 94s12.5 69.333 37.5 94s57.5 37 97.5 37zM250 639c-30.667 0 -55.5 -9.83301 -74.5 -29.5s-28.5 -44.167 -28.5 -73.5
s9.5 -53.833 28.5 -73.5s43.833 -29.5 74.5 -29.5s55.5 9.83301 74.5 29.5s28.5 44.167 28.5 73.5s-9.5 53.833 -28.5 73.5s-43.833 29.5 -74.5 29.5z" />
    <glyph glyph-name="plusminus" unicode="&#xb1;" 
d="M33 339v38h197v181h40v-181h197v-38h-197v-181h-40v181h-197zM33 76v38h434v-38h-434z" />
    <glyph glyph-name="twosuperior" unicode="&#xb2;" horiz-adv-x="330" 
d="M283 267l-245.999 0.000976562l146 169c21.333 25.333 35 43 41 53c14 22 21 45.333 21 70c0 22.667 -7.16699 41.167 -21.5 55.5s-33.833 21.5 -58.5 21.5c-26 0 -46.667 -8.33301 -62 -25c-14 -15.333 -21 -34.333 -21 -57h-36c0 33.333 10.667 61.333 32 84
s50.666 34 87.999 34c34.667 0 63.167 -10.667 85.5 -32s33.5 -48.333 33.5 -81c0 -28 -8.66699 -55.667 -26 -83c-1.33301 -1.33301 -4.33301 -5.33301 -9 -12l-13 -18.5c-4 -5.66699 -7.33301 -9.83398 -10 -12.501l-110 -130h166v-36z" />
    <glyph glyph-name="threesuperior" unicode="&#xb3;" horiz-adv-x="330" 
d="M48 365l35.998 -0.00195312c1.33301 -14.667 5.33301 -27 12 -37c14.667 -20 35.334 -30 62.001 -30c22 0 40.5 8 55.5 24s22.5 36 22.5 60c0 30.667 -13.333 52.334 -40 65.001c-14 6.66699 -32.667 10 -56 10v36c22.667 0 42 5.66699 58 17c22 16 33 36.333 33 61
c0 18.667 -5.66699 34.167 -17 46.5s-27.333 18.5 -48 18.5s-37 -6.33301 -49 -19c-12 -12 -18 -27 -18 -45h-36c1.33301 28.667 11 52.667 29 72c16.667 18.667 41.334 28 74.001 28c32 0 57.5 -9.66699 76.5 -29s28.5 -43 28.5 -71c0 -47.333 -21 -79.333 -63 -96
c21.333 -6.66699 38 -18.667 50 -36s18 -37.666 18 -60.999c0 -34 -11.333 -62 -34 -84s-50.667 -33 -84 -33c-42 0 -74 17.333 -96 52c-9.33301 15.333 -14 32.333 -14 51z" />
    <glyph glyph-name="acute" unicode="&#xb4;" 
d="M305 620l43 -25l-105 -128l-30 16z" />
    <glyph glyph-name="mu" unicode="&#xb5;" 
d="M112 -230l-40.001 0.00195312v638h40v-207c0 -62.667 13 -107.334 39 -134.001s57 -40 93 -40c39.333 0 73.166 16.667 101.499 50s42.5 78.666 42.5 135.999v195h40v-408h-40v90c-9.33301 -24.667 -23.666 -46 -42.999 -64c-27.333 -24.667 -61.666 -37 -102.999 -37
c-58 0 -101.333 27 -130 81v-300z" />
    <glyph glyph-name="mu" unicode="&#x3bc;" 
d="M112 -230l-40.001 0.00195312v638h40v-207c0 -62.667 13 -107.334 39 -134.001s57 -40 93 -40c39.333 0 73.166 16.667 101.499 50s42.5 78.666 42.5 135.999v195h40v-408h-40v90c-9.33301 -24.667 -23.666 -46 -42.999 -64c-27.333 -24.667 -61.666 -37 -102.999 -37
c-58 0 -101.333 27 -130 81v-300z" />
    <glyph glyph-name="paragraph" unicode="&#xb6;" horiz-adv-x="531" 
d="M257 -95l-36 -0.000976562v406h-9c-66 0 -116 18 -150 54c-29.333 30.667 -44 71.334 -44 122.001c0 55.333 18.333 99.333 55 132c36 32 89 48 159 48h231v-33h-53v-729h-36v729h-117v-729z" />
    <glyph glyph-name="periodcentered" unicode="&#xb7;" horiz-adv-x="200" 
d="M52 340c0 13.333 4.66699 24.666 14 33.999s20.666 14 33.999 14s24.666 -4.66699 33.999 -14s14 -20.666 14 -33.999s-4.66699 -24.666 -14 -33.999s-20.666 -14 -33.999 -14s-24.666 4.66699 -33.999 14s-14 20.666 -14 33.999z" />
    <glyph glyph-name="cedilla" unicode="&#xb8;" 
d="M268 -50l46 -20l-100 -124l-28 16z" />
    <glyph glyph-name="onesuperior" unicode="&#xb9;" horiz-adv-x="330" 
d="M152 267v364h-62l12 36h88v-400h-38z" />
    <glyph glyph-name="ordmasculine" unicode="&#xba;" horiz-adv-x="342" 
d="M174 667c40.667 0 74 -14.001 100 -42.001c25.333 -27.333 38 -59.666 38 -96.999c0 -40 -12.333 -73 -37 -99c-26 -28 -61 -42 -105 -42c-40.667 0 -74 13 -100 39c-26.667 26.667 -40 60 -40 100s12.667 73.333 38 100c26 27.333 61.333 41 106 41zM37 324.999h267v-34
h-267v34zM170 642.999c-30.667 0 -56.999 -11.002 -78.999 -33.002s-33 -49.667 -33 -83s11.667 -61.666 35 -84.999c21.333 -20.667 46.666 -31 75.999 -31c31.333 0 57.666 10 78.999 30c24 22.667 36 51.334 36 86.001c0 35.333 -11.667 64 -35 86
c-21.333 20 -47.666 30 -78.999 30z" />
    <glyph glyph-name="guillemotright" unicode="&#xbb;" horiz-adv-x="348" 
d="M162 207l-108 126l26 24l130 -150l-130 -150l-26 24zM268 207l-108 126l26 24l130 -150l-130 -150l-26 24z" />
    <glyph glyph-name="onequarter" unicode="&#xbc;" horiz-adv-x="760" 
d="M152 267v364h-62l12 36h88v-400h-38zM188 1l394 681l30 -16l-394 -681zM680 413v-301h56v-36h-56v-76h-38v76h-204zM508 112h134v190z" />
    <glyph glyph-name="onehalf" unicode="&#xbd;" horiz-adv-x="760" 
d="M152 267v364h-62l12 36h88v-400h-38zM158 1l394 681l30 -16l-394 -681zM713 0l-245.999 0.000976562l146 169c22 25.333 35.667 43 41 53c14 22 21 45.333 21 70c0 22.667 -7.16699 41.167 -21.5 55.5s-33.833 21.5 -58.5 21.5c-26 0 -46.667 -8.33301 -62 -25
c-14 -15.333 -21 -34.333 -21 -57h-36c0 33.333 10.667 61.333 32 84s50.666 34 87.999 34c34.667 0 63.167 -10.667 85.5 -32s33.5 -48.333 33.5 -81c0 -28 -8.66699 -55.667 -26 -83c-1.33301 -1.33301 -4.33301 -5.33301 -9 -12l-13 -18.5
c-4 -5.66699 -7.33301 -9.83398 -10 -12.501l-110 -130h166v-36z" />
    <glyph glyph-name="threequarters" unicode="&#xbe;" horiz-adv-x="760" 
d="M48 365l35.998 -0.00195312c1.33301 -14.667 5.33301 -27 12 -37c14.667 -20 35.334 -30 62.001 -30c22 0 40.5 8 55.5 24s22.5 36 22.5 60c0 30.667 -13.333 52.334 -40 65.001c-14 6.66699 -32.667 10 -56 10v36c22.667 0 42 5.66699 58 17c22 16 33 36.333 33 61
c0 18.667 -5.66699 34.167 -17 46.5s-27.333 18.5 -48 18.5s-37 -6.33301 -49 -19c-12 -12 -18 -27 -18 -45h-36c1.33301 28.667 11 52.667 29 72c16.667 18.667 41.334 28 74.001 28c32 0 57.5 -9.66699 76.5 -29s28.5 -43 28.5 -71c0 -47.333 -21 -79.333 -63 -96
c21.333 -6.66699 38 -18.667 50 -36s18 -37.666 18 -60.999c0 -34 -11.333 -62 -34 -84s-50.667 -33 -84 -33c-42 0 -74 17.333 -96 52c-9.33301 15.333 -14 32.333 -14 51zM207.998 0.998047l394 681l30 -16l-394 -681zM679.998 412.998v-301h56v-36h-56v-76h-38v76h-204z
M507.998 111.998h134v190z" />
    <glyph glyph-name="questiondown" unicode="&#xbf;" horiz-adv-x="466" 
d="M136 174l-39.998 0.00292969c0 35.333 7 64.666 21 87.999c22.667 38.667 60.667 58 114 58c41.333 0 75 -12 101 -36c26.667 -24.667 40 -58.334 40 -101.001c0 -41.333 -14.667 -74.333 -44 -99c-18 -15.333 -48.667 -28 -92 -38c-44.667 -10.667 -75 -24.667 -91 -42
c-16.667 -19.333 -25 -46.666 -25 -81.999c0 -38 10 -68 30 -90c20.667 -22.667 49 -34 85 -34s64.333 11.333 85 34c18.667 20 28 50 28 90c0 13.333 -2.33301 26.666 -7 39.999h44c4.66699 -14.667 7 -30 7 -46c0 -49.333 -14.667 -88 -44 -116
c-30 -28 -68.667 -42 -116 -42c-49.333 0 -88.333 15 -117 45c-27.333 28 -41 67 -41 117c0 43.333 12 78.666 36 105.999c21.333 23.333 51 40.333 89 51l25.5 6.5c11.667 3 20.667 5.5 27 7.5s13.666 4.66699 21.999 8s15.166 7.33301 20.499 12
c22.667 18 34 42.667 34 74c0 27.333 -8.33301 50 -25 68c-18 19.333 -41.667 29 -71 29c-36 0 -62.333 -12 -79 -36c-11.333 -16 -17 -40 -17 -72zM269.002 407.003c0 -10.667 -3.5 -19.5 -10.5 -26.5s-15.833 -10.5 -26.5 -10.5s-19.5 3.5 -26.5 10.5
s-10.5 15.833 -10.5 26.5s3.5 19.5 10.5 26.5s15.833 10.5 26.5 10.5s19.5 -3.5 26.5 -10.5s10.5 -15.833 10.5 -26.5z" />
    <glyph glyph-name="Agrave" unicode="&#xc0;" horiz-adv-x="586" 
d="M524 0l-89 219h-284l-89 -219h-48l281 687l277 -687h-48zM167 259h252l-125 316zM311 703l-134 126l50 25l116 -133z" />
    <glyph glyph-name="Aacute" unicode="&#xc1;" horiz-adv-x="586" 
d="M524 0l-89 219h-284l-89 -219h-48l281 687l277 -687h-48zM167 259h252l-125 316zM359 854l50 -25l-134 -126l-32 18z" />
    <glyph glyph-name="Acircumflex" unicode="&#xc2;" horiz-adv-x="586" 
d="M524 0l-89 219h-284l-89 -219h-48l281 687l277 -687h-48zM167 259h252l-125 316zM293 786l-96 -64l-34 27l130 90l130 -90l-34 -27z" />
    <glyph glyph-name="Atilde" unicode="&#xc3;" horiz-adv-x="586" 
d="M524 0l-89 219h-284l-89 -219h-48l281 687l277 -687h-48zM167 259h252l-125 316zM192 717l-29.001 21.998c7.33301 16.667 15 29.334 23 38.001c13.333 14.667 28.333 22 45 22c14.667 0 36 -5.66699 64 -17c31.333 -12 51 -18 59 -18c8.66699 0 17 4 25 12
c7.33301 8.66699 12.333 17.334 15 26.001l29 -22c-6 -18 -15.333 -32.333 -28 -43c-12.667 -11.333 -28 -17 -46 -17c-12 0 -31.333 5.66699 -58 17c-28.667 12 -48 18 -58 18c-11.333 0 -20.666 -4.66699 -27.999 -14c-4 -4.66699 -8.33301 -12.667 -13 -24z" />
    <glyph glyph-name="Adieresis" unicode="&#xc4;" horiz-adv-x="586" 
d="M524 0l-89 219h-284l-89 -219h-48l281 687l277 -687h-48zM167 259h252l-125 316zM162 780c0 10.667 3.66699 19.667 11 27s16.333 11 27 11s19.667 -3.66699 27 -11s11 -16.333 11 -27s-3.66699 -19.667 -11 -27s-16.333 -11 -27 -11s-19.667 3.66699 -27 11
s-11 16.333 -11 27zM348 780c0 10.667 3.66699 19.667 11 27s16.333 11 27 11s19.667 -3.66699 27 -11s11 -16.333 11 -27s-3.66699 -19.667 -11 -27s-16.333 -11 -27 -11s-19.667 3.66699 -27 11s-11 16.333 -11 27z" />
    <glyph glyph-name="Aring" unicode="&#xc5;" horiz-adv-x="586" 
d="M524 0l-89 219h-284l-89 -219h-48l281 687l277 -687h-48zM167 259h252l-125 316zM213 787c0 22 7.83301 40.833 23.5 56.5s34.5 23.5 56.5 23.5s40.833 -7.83301 56.5 -23.5s23.5 -34.5 23.5 -56.5s-7.83301 -40.833 -23.5 -56.5s-34.5 -23.5 -56.5 -23.5
s-40.833 7.83301 -56.5 23.5s-23.5 34.5 -23.5 56.5zM252 787c0 -12 3.83301 -21.833 11.5 -29.5s17.5 -11.5 29.5 -11.5s21.833 3.83301 29.5 11.5s11.5 17.5 11.5 29.5s-3.83301 21.833 -11.5 29.5s-17.5 11.5 -29.5 11.5s-21.833 -3.83301 -29.5 -11.5
s-11.5 -17.5 -11.5 -29.5z" />
    <glyph glyph-name="AE" unicode="&#xc6;" horiz-adv-x="852" 
d="M523 0l-89 219h-285l-87 -219h-48l269 667h289l17 -40h-275l99 -242h268l17 -40h-268l124 -305h273l18 -40h-322zM165 259h252l-127 314z" />
    <glyph glyph-name="Ccedilla" unicode="&#xc7;" horiz-adv-x="678" 
d="M624 589l-0.000976562 -58.002c-28.667 33.333 -62.5 59.166 -101.5 77.499s-80.167 27.5 -123.5 27.5c-84.667 0 -155.667 -29.667 -213 -89s-86 -131.666 -86 -216.999c0 -47.333 9.16699 -90.666 27.5 -129.999s42.333 -71.166 72 -95.499s61.834 -43 96.501 -56
s69.334 -19.5 104.001 -19.5c37.333 0 76 8.16699 116 24.5s76 41.833 108 76.5v-58c-62.667 -55.333 -136.667 -83 -222 -83c-98.667 0 -181.334 33.667 -248.001 101s-100 148 -100 242c0 96 33.667 177.333 101 244s149 100 245 100c88 0 162.667 -29 224 -87z
M389.999 -50.002l46 -26l-108 -126l-30 18z" />
    <glyph glyph-name="Egrave" unicode="&#xc8;" horiz-adv-x="464" 
d="M410 667v-40h-276v-242h270v-40h-270v-305h276v-40h-320v667h320zM278 703l-134 126l50 25l116 -133z" />
    <glyph glyph-name="Eacute" unicode="&#xc9;" horiz-adv-x="464" 
d="M410 667v-40h-276v-242h270v-40h-270v-305h276v-40h-320v667h320zM316 854l50 -25l-134 -126l-32 18z" />
    <glyph glyph-name="Ecircumflex" unicode="&#xca;" horiz-adv-x="464" 
d="M410 667v-40h-276v-242h270v-40h-270v-305h276v-40h-320v667h320zM250 786l-96 -64l-34 27l130 90l130 -90l-34 -27z" />
    <glyph glyph-name="Edieresis" unicode="&#xcb;" horiz-adv-x="464" 
d="M410 667v-40h-276v-242h270v-40h-270v-305h276v-40h-320v667h320zM119 780c0 10.667 3.66699 19.667 11 27s16.333 11 27 11s19.667 -3.66699 27 -11s11 -16.333 11 -27s-3.66699 -19.667 -11 -27s-16.333 -11 -27 -11s-19.667 3.66699 -27 11s-11 16.333 -11 27z
M305 780c0 10.667 3.66699 19.667 11 27s16.333 11 27 11s19.667 -3.66699 27 -11s11 -16.333 11 -27s-3.66699 -19.667 -11 -27s-16.333 -11 -27 -11s-19.667 3.66699 -27 11s-11 16.333 -11 27z" />
    <glyph glyph-name="Igrave" unicode="&#xcc;" horiz-adv-x="224" 
d="M90 667h44v-667h-44v667zM110 703l-105 134l56 17l90 -136z" />
    <glyph glyph-name="Iacute" unicode="&#xcd;" horiz-adv-x="224" 
d="M90 667h44v-667h-44v667zM162 854l57 -17l-106 -134l-40 15z" />
    <glyph glyph-name="Icircumflex" unicode="&#xce;" horiz-adv-x="224" 
d="M90 667h44v-667h-44v667zM112 782l-80 -60l-35 28l115 89l115 -89l-35 -27z" />
    <glyph glyph-name="Idieresis" unicode="&#xcf;" horiz-adv-x="224" 
d="M90 667h44v-667h-44v667zM10 780c0 10.667 3.66699 19.667 11 27s16.333 11 27 11s19.667 -3.66699 27 -11s11 -16.333 11 -27s-3.66699 -19.667 -11 -27s-16.333 -11 -27 -11s-19.667 3.66699 -27 11s-11 16.333 -11 27zM138 780c0 10.667 3.66699 19.667 11 27
s16.333 11 27 11s19.667 -3.66699 27 -11s11 -16.333 11 -27s-3.66699 -19.667 -11 -27s-16.333 -11 -27 -11s-19.667 3.66699 -27 11s-11 16.333 -11 27z" />
    <glyph glyph-name="Eth" unicode="&#xd0;" horiz-adv-x="618" 
d="M222 0l-132.002 -0.000976562v345h-90v40h90v282h132c102 0 184 -31 246 -93c32.667 -32.667 56.834 -70.667 72.501 -114s23.5 -85.666 23.5 -126.999c0 -40.667 -7.66699 -82.5 -23 -125.5s-39.666 -81.167 -72.999 -114.5c-62 -62 -144 -93 -246 -93zM133.998 626.999
l-0.000976562 -242h136v-40h-136v-305h87c88 0 159.5 27.167 214.5 81.5s82.5 124.833 82.5 211.5c0 86 -27.667 156.5 -83 211.5s-126.666 82.5 -213.999 82.5h-87z" />
    <glyph glyph-name="Ntilde" unicode="&#xd1;" horiz-adv-x="784" 
d="M134 0h-44v674l560 -586v579h44v-684l-560 586v-569zM291 717l-29.001 21.998c7.33301 16.667 15 29.334 23 38.001c13.333 14.667 28.333 22 45 22c14.667 0 36 -5.66699 64 -17c31.333 -12 51 -18 59 -18c8.66699 0 17 4 25 12
c7.33301 8.66699 12.333 17.334 15 26.001l29 -22c-6 -18 -15.333 -32.333 -28 -43c-12.667 -11.333 -28 -17 -46 -17c-12 0 -31.333 5.66699 -58 17c-28.667 12 -48 18 -58 18c-11.333 0 -20.666 -4.66699 -27.999 -14c-4 -4.66699 -8.33301 -12.667 -13 -24z" />
    <glyph glyph-name="Ograve" unicode="&#xd2;" horiz-adv-x="800" 
d="M400 676c97.333 0 179.333 -33.333 246 -100s100 -148 100 -244s-33.333 -177.167 -100 -243.5s-148.667 -99.5 -246 -99.5c-98 0 -180.167 33.167 -246.5 99.5s-99.5 147.5 -99.5 243.5s33.333 177.333 100 244s148.667 100 246 100zM400 29
c85.333 0 156.666 29.167 213.999 87.5s86 130.166 86 215.499c0 86 -28.667 158.167 -86 216.5s-128.666 87.5 -213.999 87.5s-156.666 -29.167 -213.999 -87.5s-86 -130.5 -86 -216.5c0 -85.333 28.667 -157.166 86 -215.499s128.666 -87.5 213.999 -87.5zM418 703
l-134 126l50 25l116 -133z" />
    <glyph glyph-name="Oacute" unicode="&#xd3;" horiz-adv-x="800" 
d="M400 676c97.333 0 179.333 -33.333 246 -100s100 -148 100 -244s-33.333 -177.167 -100 -243.5s-148.667 -99.5 -246 -99.5c-98 0 -180.167 33.167 -246.5 99.5s-99.5 147.5 -99.5 243.5s33.333 177.333 100 244s148.667 100 246 100zM400 29
c85.333 0 156.666 29.167 213.999 87.5s86 130.166 86 215.499c0 86 -28.667 158.167 -86 216.5s-128.666 87.5 -213.999 87.5s-156.666 -29.167 -213.999 -87.5s-86 -130.5 -86 -216.5c0 -85.333 28.667 -157.166 86 -215.499s128.666 -87.5 213.999 -87.5zM466 854l50 -25
l-134 -126l-32 18z" />
    <glyph glyph-name="Ocircumflex" unicode="&#xd4;" horiz-adv-x="800" 
d="M400 676c97.333 0 179.333 -33.333 246 -100s100 -148 100 -244s-33.333 -177.167 -100 -243.5s-148.667 -99.5 -246 -99.5c-98 0 -180.167 33.167 -246.5 99.5s-99.5 147.5 -99.5 243.5s33.333 177.333 100 244s148.667 100 246 100zM400 29
c85.333 0 156.666 29.167 213.999 87.5s86 130.166 86 215.499c0 86 -28.667 158.167 -86 216.5s-128.666 87.5 -213.999 87.5s-156.666 -29.167 -213.999 -87.5s-86 -130.5 -86 -216.5c0 -85.333 28.667 -157.166 86 -215.499s128.666 -87.5 213.999 -87.5zM400 786
l-96 -64l-34 27l130 90l130 -90l-34 -27z" />
    <glyph glyph-name="Otilde" unicode="&#xd5;" horiz-adv-x="800" 
d="M400 676c97.333 0 179.333 -33.333 246 -100s100 -148 100 -244s-33.333 -177.167 -100 -243.5s-148.667 -99.5 -246 -99.5c-98 0 -180.167 33.167 -246.5 99.5s-99.5 147.5 -99.5 243.5s33.333 177.333 100 244s148.667 100 246 100zM400 29
c85.333 0 156.666 29.167 213.999 87.5s86 130.166 86 215.499c0 86 -28.667 158.167 -86 216.5s-128.666 87.5 -213.999 87.5s-156.666 -29.167 -213.999 -87.5s-86 -130.5 -86 -216.5c0 -85.333 28.667 -157.166 86 -215.499s128.666 -87.5 213.999 -87.5zM299 717
l-29.001 21.998c7.33301 16.667 15 29.334 23 38.001c13.333 14.667 28.333 22 45 22c14.667 0 36 -5.66699 64 -17c31.333 -12 51 -18 59 -18c8.66699 0 17 4 25 12c7.33301 8.66699 12.333 17.334 15 26.001l29 -22c-6 -18 -15.333 -32.333 -28 -43
c-12.667 -11.333 -28 -17 -46 -17c-12 0 -31.333 5.66699 -58 17c-28.667 12 -48 18 -58 18c-11.333 0 -20.666 -4.66699 -27.999 -14c-4 -4.66699 -8.33301 -12.667 -13 -24z" />
    <glyph glyph-name="Odieresis" unicode="&#xd6;" horiz-adv-x="800" 
d="M400 676c97.333 0 179.333 -33.333 246 -100s100 -148 100 -244s-33.333 -177.167 -100 -243.5s-148.667 -99.5 -246 -99.5c-98 0 -180.167 33.167 -246.5 99.5s-99.5 147.5 -99.5 243.5s33.333 177.333 100 244s148.667 100 246 100zM400 29
c85.333 0 156.666 29.167 213.999 87.5s86 130.166 86 215.499c0 86 -28.667 158.167 -86 216.5s-128.666 87.5 -213.999 87.5s-156.666 -29.167 -213.999 -87.5s-86 -130.5 -86 -216.5c0 -85.333 28.667 -157.166 86 -215.499s128.666 -87.5 213.999 -87.5zM269 780
c0 10.667 3.66699 19.667 11 27s16.333 11 27 11s19.667 -3.66699 27 -11s11 -16.333 11 -27s-3.66699 -19.667 -11 -27s-16.333 -11 -27 -11s-19.667 3.66699 -27 11s-11 16.333 -11 27zM455 780c0 10.667 3.66699 19.667 11 27s16.333 11 27 11s19.667 -3.66699 27 -11
s11 -16.333 11 -27s-3.66699 -19.667 -11 -27s-16.333 -11 -27 -11s-19.667 3.66699 -27 11s-11 16.333 -11 27z" />
    <glyph glyph-name="multiply" unicode="&#xd7;" 
d="M67 173l156 156l-156 156l27 27l156 -156l156 156l27 -27l-156 -156l156 -156l-27 -27l-156 156l-156 -156z" />
    <glyph glyph-name="Oslash" unicode="&#xd8;" horiz-adv-x="800" 
d="M64 21l79 79c-59.333 66 -89 143.333 -89 232c0 96 33.5 177.333 100.5 244s148.833 100 245.5 100c89.333 0 166.333 -28.667 231 -86l78 79l27 -27l-78 -78c58.667 -66 88 -143.333 88 -232c0 -96 -33.5 -177.167 -100.5 -243.5s-148.833 -99.5 -245.5 -99.5
c-90 0 -167 28.333 -231 85l-78 -79zM628 533l-428.999 -429.999c57.333 -49.333 124.333 -74 201 -74c85.333 0 156.666 29.167 213.999 87.5s86 130.166 86 215.499c0 78 -24 145 -72 201zM173.001 130.001l427.999 431c-56 50 -123 75 -201 75
c-85.333 0 -156.666 -29.333 -213.999 -88s-86 -130.667 -86 -216c0 -76 24.333 -143.333 73 -202z" />
    <glyph glyph-name="Ugrave" unicode="&#xd9;" horiz-adv-x="634" 
d="M90 667h44v-417c0 -35.333 1.83301 -63.5 5.5 -84.5s11.167 -40.833 22.5 -59.5c17.333 -28 40.5 -47.833 69.5 -59.5s57.5 -17.5 85.5 -17.5s56.5 5.83301 85.5 17.5s52.167 31.5 69.5 59.5c11.333 18.667 18.833 38.5 22.5 59.5s5.5 49.167 5.5 84.5v417h44v-417
c0 -41.333 -2.33301 -74.333 -7 -99s-15 -48.667 -31 -72c-41.333 -60 -104.333 -90 -189 -90s-147.667 30 -189 90c-16 23.333 -26.333 47.333 -31 72s-7 57.667 -7 99v417zM335 703l-134 126l50 25l116 -133z" />
    <glyph glyph-name="Uacute" unicode="&#xda;" horiz-adv-x="634" 
d="M90 667h44v-417c0 -35.333 1.83301 -63.5 5.5 -84.5s11.167 -40.833 22.5 -59.5c17.333 -28 40.5 -47.833 69.5 -59.5s57.5 -17.5 85.5 -17.5s56.5 5.83301 85.5 17.5s52.167 31.5 69.5 59.5c11.333 18.667 18.833 38.5 22.5 59.5s5.5 49.167 5.5 84.5v417h44v-417
c0 -41.333 -2.33301 -74.333 -7 -99s-15 -48.667 -31 -72c-41.333 -60 -104.333 -90 -189 -90s-147.667 30 -189 90c-16 23.333 -26.333 47.333 -31 72s-7 57.667 -7 99v417zM383 854l50 -25l-134 -126l-32 18z" />
    <glyph glyph-name="Ucircumflex" unicode="&#xdb;" horiz-adv-x="634" 
d="M90 667h44v-417c0 -35.333 1.83301 -63.5 5.5 -84.5s11.167 -40.833 22.5 -59.5c17.333 -28 40.5 -47.833 69.5 -59.5s57.5 -17.5 85.5 -17.5s56.5 5.83301 85.5 17.5s52.167 31.5 69.5 59.5c11.333 18.667 18.833 38.5 22.5 59.5s5.5 49.167 5.5 84.5v417h44v-417
c0 -41.333 -2.33301 -74.333 -7 -99s-15 -48.667 -31 -72c-41.333 -60 -104.333 -90 -189 -90s-147.667 30 -189 90c-16 23.333 -26.333 47.333 -31 72s-7 57.667 -7 99v417zM317 786l-96 -64l-34 27l130 90l130 -90l-34 -27z" />
    <glyph glyph-name="Udieresis" unicode="&#xdc;" horiz-adv-x="634" 
d="M90 667h44v-417c0 -35.333 1.83301 -63.5 5.5 -84.5s11.167 -40.833 22.5 -59.5c17.333 -28 40.5 -47.833 69.5 -59.5s57.5 -17.5 85.5 -17.5s56.5 5.83301 85.5 17.5s52.167 31.5 69.5 59.5c11.333 18.667 18.833 38.5 22.5 59.5s5.5 49.167 5.5 84.5v417h44v-417
c0 -41.333 -2.33301 -74.333 -7 -99s-15 -48.667 -31 -72c-41.333 -60 -104.333 -90 -189 -90s-147.667 30 -189 90c-16 23.333 -26.333 47.333 -31 72s-7 57.667 -7 99v417zM186 780c0 10.667 3.66699 19.667 11 27s16.333 11 27 11s19.667 -3.66699 27 -11
s11 -16.333 11 -27s-3.66699 -19.667 -11 -27s-16.333 -11 -27 -11s-19.667 3.66699 -27 11s-11 16.333 -11 27zM372 780c0 10.667 3.66699 19.667 11 27s16.333 11 27 11s19.667 -3.66699 27 -11s11 -16.333 11 -27s-3.66699 -19.667 -11 -27s-16.333 -11 -27 -11
s-19.667 3.66699 -27 11s-11 16.333 -11 27z" />
    <glyph glyph-name="Yacute" unicode="&#xdd;" horiz-adv-x="516" 
d="M233 0v285l-219 382h50l192 -337l196 337h50l-225 -382v-285h-44zM324 854l50 -25l-134 -126l-32 18z" />
    <glyph glyph-name="Thorn" unicode="&#xde;" horiz-adv-x="446" 
d="M90 0l-0.000976562 666.999h44v-120h85c56.667 0 103.334 -15.167 140.001 -45.5s55 -73.166 55 -128.499c0 -54.667 -17.667 -97.667 -53 -129s-82.333 -47 -141 -47h-86v-197h-44zM133.999 506.999v-269.999h88c44 0 79.333 12.167 106 36.5s40 57.166 40 98.499
c0 42 -13.5 75 -40.5 99s-64.5 36 -112.5 36h-81z" />
    <glyph glyph-name="germandbls" unicode="&#xdf;" horiz-adv-x="481" 
d="M113 0l-40.001 0.000976562v370h-69v38h69v164c0 60 13.667 103.667 41 131c25.333 25.333 60.333 38 105 38c38.667 0 70.334 -10.667 95.001 -32c32 -27.333 48 -69 48 -125c0 -36.667 -7.66699 -67 -23 -91c-14 -20.667 -32.333 -36.334 -55 -47.001
c35.333 -12 67.666 -31.333 96.999 -58c41.333 -38.667 62 -89.334 62 -152.001c0 -66 -21.667 -121 -65 -165c-44 -45.333 -100 -70.666 -168 -75.999v40c59.333 5.33301 107.333 28 144 68c31.333 34.667 47 76.667 47 126c0 54 -16.667 98.333 -50 133
c-35.333 38 -82.333 59 -141 63v35c32.667 1.33301 58.334 11.333 77.001 30c22 20.667 33 50.334 33 89.001c0 40.667 -9 71.667 -27 93c-18.667 20.667 -44 31 -76 31s-56.667 -9 -74 -27c-20 -20.667 -30 -53.334 -30 -98.001v-578z" />
    <glyph glyph-name="agrave" unicode="&#xe0;" horiz-adv-x="516" 
d="M404 337v71.001h40v-408h-40v73c-36.667 -56 -89.667 -84 -159 -84c-55.333 0 -102.333 19.667 -141 59s-58 91.333 -58 156c0 63.333 18.333 114.666 55 153.999s84.667 59 144 59c68 0 121 -26.667 159 -80zM247 379.001c-43.333 0 -80.666 -15.499 -111.999 -46.499
s-47 -72.833 -47 -125.5c0 -48.667 14.333 -90.834 43 -126.501s67.667 -53.5 117 -53.5c48.667 0 87.167 17.5 115.5 52.5s42.5 77.5 42.5 127.5c0 55.333 -16.333 97.833 -49 127.5s-69.334 44.5 -110.001 44.5zM268 467.002l-105 128l43 25l92 -137z" />
    <glyph glyph-name="aacute" unicode="&#xe1;" horiz-adv-x="516" 
d="M404 337v71.001h40v-408h-40v73c-36.667 -56 -89.667 -84 -159 -84c-55.333 0 -102.333 19.667 -141 59s-58 91.333 -58 156c0 63.333 18.333 114.666 55 153.999s84.667 59 144 59c68 0 121 -26.667 159 -80zM247 379.001c-43.333 0 -80.666 -15.499 -111.999 -46.499
s-47 -72.833 -47 -125.5c0 -48.667 14.333 -90.834 43 -126.501s67.667 -53.5 117 -53.5c48.667 0 87.167 17.5 115.5 52.5s42.5 77.5 42.5 127.5c0 55.333 -16.333 97.833 -49 127.5s-69.334 44.5 -110.001 44.5zM313 620.002l43 -25l-105 -128l-30 16z" />
    <glyph glyph-name="acircumflex" unicode="&#xe2;" horiz-adv-x="516" 
d="M404 337v71.001h40v-408h-40v73c-36.667 -56 -89.667 -84 -159 -84c-55.333 0 -102.333 19.667 -141 59s-58 91.333 -58 156c0 63.333 18.333 114.666 55 153.999s84.667 59 144 59c68 0 121 -26.667 159 -80zM247 379.001c-43.333 0 -80.666 -15.499 -111.999 -46.499
s-47 -72.833 -47 -125.5c0 -48.667 14.333 -90.834 43 -126.501s67.667 -53.5 117 -53.5c48.667 0 87.167 17.5 115.5 52.5s42.5 77.5 42.5 127.5c0 55.333 -16.333 97.833 -49 127.5s-69.334 44.5 -110.001 44.5zM259 535.002l-90 -68l-32 25l122 94l122 -94l-32 -25z" />
    <glyph glyph-name="atilde" unicode="&#xe3;" horiz-adv-x="516" 
d="M404 337v71.001h40v-408h-40v73c-36.667 -56 -89.667 -84 -159 -84c-55.333 0 -102.333 19.667 -141 59s-58 91.333 -58 156c0 63.333 18.333 114.666 55 153.999s84.667 59 144 59c68 0 121 -26.667 159 -80zM247 379.001c-43.333 0 -80.666 -15.499 -111.999 -46.499
s-47 -72.833 -47 -125.5c0 -48.667 14.333 -90.834 43 -126.501s67.667 -53.5 117 -53.5c48.667 0 87.167 17.5 115.5 52.5s42.5 77.5 42.5 127.5c0 55.333 -16.333 97.833 -49 127.5s-69.334 44.5 -110.001 44.5zM168 487.002l-26.001 18.999
c6 16.667 13.667 29.334 23 38.001c12.667 12.667 28 19 46 19c14.667 0 38.667 -7.33301 72 -22c20.667 -8.66699 36.334 -13 47.001 -13s19.667 4 27 12c9.33301 12 14 20.333 14 25l25 -20c-6 -16 -14.667 -29.333 -26 -40c-13.333 -11.333 -28.333 -17 -45 -17
c-12 0 -31.333 5.66699 -58 17c-28.667 12 -48.334 18 -59.001 18c-11.333 0 -20.666 -4 -27.999 -12c-6 -6.66699 -10 -14.667 -12 -24z" />
    <glyph glyph-name="adieresis" unicode="&#xe4;" horiz-adv-x="516" 
d="M404 337v71.001h40v-408h-40v73c-36.667 -56 -89.667 -84 -159 -84c-55.333 0 -102.333 19.667 -141 59s-58 91.333 -58 156c0 63.333 18.333 114.666 55 153.999s84.667 59 144 59c68 0 121 -26.667 159 -80zM247 379.001c-43.333 0 -80.666 -15.499 -111.999 -46.499
s-47 -72.833 -47 -125.5c0 -48.667 14.333 -90.834 43 -126.501s67.667 -53.5 117 -53.5c48.667 0 87.167 17.5 115.5 52.5s42.5 77.5 42.5 127.5c0 55.333 -16.333 97.833 -49 127.5s-69.334 44.5 -110.001 44.5zM150 526.002c0 10 3.5 18.5 10.5 25.5s15.5 10.5 25.5 10.5
s18.5 -3.5 25.5 -10.5s10.5 -15.5 10.5 -25.5s-3.5 -18.5 -10.5 -25.5s-15.5 -10.5 -25.5 -10.5s-18.5 3.5 -25.5 10.5s-10.5 15.5 -10.5 25.5zM316 526.002c0 10 3.5 18.5 10.5 25.5s15.5 10.5 25.5 10.5s18.5 -3.5 25.5 -10.5s10.5 -15.5 10.5 -25.5
s-3.5 -18.5 -10.5 -25.5s-15.5 -10.5 -25.5 -10.5s-18.5 3.5 -25.5 10.5s-10.5 15.5 -10.5 25.5z" />
    <glyph glyph-name="aring" unicode="&#xe5;" horiz-adv-x="516" 
d="M404 337v71.001h40v-408h-40v73c-36.667 -56 -89.667 -84 -159 -84c-55.333 0 -102.333 19.667 -141 59s-58 91.333 -58 156c0 63.333 18.333 114.666 55 153.999s84.667 59 144 59c68 0 121 -26.667 159 -80zM247 379.001c-43.333 0 -80.666 -15.499 -111.999 -46.499
s-47 -72.833 -47 -125.5c0 -48.667 14.333 -90.834 43 -126.501s67.667 -53.5 117 -53.5c48.667 0 87.167 17.5 115.5 52.5s42.5 77.5 42.5 127.5c0 55.333 -16.333 97.833 -49 127.5s-69.334 44.5 -110.001 44.5zM187 549.002c0 22 7.33301 40.333 22 55s33 22 55 22
s40.333 -7.33301 55 -22s22 -33 22 -55s-7.33301 -40.333 -22 -55s-33 -22 -55 -22s-40.333 7.33301 -55 22s-22 33 -22 55zM223 549.002c0 -12 3.83301 -21.833 11.5 -29.5s17.5 -11.5 29.5 -11.5s21.833 3.83301 29.5 11.5s11.5 17.5 11.5 29.5
s-3.83301 21.833 -11.5 29.5s-17.5 11.5 -29.5 11.5s-21.833 -3.83301 -29.5 -11.5s-11.5 -17.5 -11.5 -29.5z" />
    <glyph glyph-name="ae" unicode="&#xe6;" horiz-adv-x="792" 
d="M747 198l-350.003 -0.000976562c0.666992 -50.667 16 -91.834 46 -123.501s67.333 -47.5 112 -47.5c62.667 0 111.667 30.667 147 92l34 -24c-45.333 -70.667 -106 -106 -182 -106c-77.333 0 -133.333 34 -168 102c-11.333 -33.333 -31.833 -58.666 -61.5 -75.999
s-65.5 -26 -107.5 -26c-54.667 0 -97 12.5 -127 37.5s-45 54.833 -45 89.5c0 32.667 14 62.334 42 89.001s73.667 40 137 40c55.333 0 99 -14 131 -42c0 117.333 -47.333 176 -142 176c-44.667 0 -91 -12.333 -139 -37v41c45.333 22.667 92.333 34 141 34
c38.667 0 72.334 -9.66699 101.001 -29s49.334 -47.666 62.001 -84.999c17.333 35.333 41.333 63.166 72 83.499s65 30.5 103 30.5c52.667 0 97.834 -19 135.501 -57s57.167 -92 58.5 -162zM401.997 235.999h302.999c-6 41.333 -23.167 75.5 -51.5 102.5
s-62.166 40.5 -101.499 40.5s-72.833 -13.667 -100.5 -41s-44.167 -61.333 -49.5 -102zM222.996 206.999c-44 0 -77.667 -8.66797 -101 -26.001s-35 -39 -35 -65c0 -25.333 11.167 -46.5 33.5 -63.5s54.5 -25.5 96.5 -25.5c46.667 0 80.834 9.5 102.501 28.5
s32.5 40.5 32.5 64.5c0 22.667 -10.333 42.834 -31 60.501s-53.334 26.5 -98.001 26.5z" />
    <glyph glyph-name="ccedilla" unicode="&#xe7;" horiz-adv-x="442" 
d="M399 365l0.000976562 -52.999c-38.667 44.667 -85.667 67 -141 67c-49.333 0 -90 -16.833 -122 -50.5s-48 -75.834 -48 -126.501c0 -54.667 17 -97.5 51 -128.5s73 -46.5 117 -46.5c54 0 103.333 24.333 148 73v-54c-42.667 -38 -92.334 -57 -149.001 -57
c-61.333 0 -111.5 20.167 -150.5 60.5s-58.5 90.833 -58.5 151.5c0 62 19.333 113.5 58 154.5s90 61.5 154 61.5c52.667 0 99.667 -17.333 141 -52zM239.001 -49.999l46 -20l-100 -124l-28 16z" />
    <glyph glyph-name="egrave" unicode="&#xe8;" horiz-adv-x="483" 
d="M437 199h-349.003c0 -50.667 15.833 -92 47.5 -124s69.834 -48 114.501 -48c32 0 60.333 8.5 85 25.5s43.667 39.5 57 67.5l34 -20c-15.333 -29.333 -37.666 -55.166 -66.999 -77.499s-66.666 -33.5 -111.999 -33.5c-62 0 -111 20.167 -147 60.5s-54 91.166 -54 152.499
c0 67.333 19.5 120 58.5 158s85.5 57 139.5 57c55.333 0 101.333 -20.333 138 -61s55 -93 55 -157zM90.9971 237h304c-5.33301 41.333 -21.833 75.333 -49.5 102s-61.5 40 -101.5 40c-40.667 0 -75 -13.5 -103 -40.5s-44.667 -60.833 -50 -101.5zM247.997 467l-105 128
l43 25l92 -137z" />
    <glyph glyph-name="eacute" unicode="&#xe9;" horiz-adv-x="483" 
d="M437 199h-349.003c0 -50.667 15.833 -92 47.5 -124s69.834 -48 114.501 -48c32 0 60.333 8.5 85 25.5s43.667 39.5 57 67.5l34 -20c-15.333 -29.333 -37.666 -55.166 -66.999 -77.499s-66.666 -33.5 -111.999 -33.5c-62 0 -111 20.167 -147 60.5s-54 91.166 -54 152.499
c0 67.333 19.5 120 58.5 158s85.5 57 139.5 57c55.333 0 101.333 -20.333 138 -61s55 -93 55 -157zM90.9971 237h304c-5.33301 41.333 -21.833 75.333 -49.5 102s-61.5 40 -101.5 40c-40.667 0 -75 -13.5 -103 -40.5s-44.667 -60.833 -50 -101.5zM297.997 620l43 -25
l-105 -128l-30 16z" />
    <glyph glyph-name="ecircumflex" unicode="&#xea;" horiz-adv-x="483" 
d="M437 199h-349.003c0 -50.667 15.833 -92 47.5 -124s69.834 -48 114.501 -48c32 0 60.333 8.5 85 25.5s43.667 39.5 57 67.5l34 -20c-15.333 -29.333 -37.666 -55.166 -66.999 -77.499s-66.666 -33.5 -111.999 -33.5c-62 0 -111 20.167 -147 60.5s-54 91.166 -54 152.499
c0 67.333 19.5 120 58.5 158s85.5 57 139.5 57c55.333 0 101.333 -20.333 138 -61s55 -93 55 -157zM90.9971 237h304c-5.33301 41.333 -21.833 75.333 -49.5 102s-61.5 40 -101.5 40c-40.667 0 -75 -13.5 -103 -40.5s-44.667 -60.833 -50 -101.5zM249.997 535l-90 -68
l-32 25l122 94l122 -94l-32 -25z" />
    <glyph glyph-name="edieresis" unicode="&#xeb;" horiz-adv-x="483" 
d="M437 199h-349.003c0 -50.667 15.833 -92 47.5 -124s69.834 -48 114.501 -48c32 0 60.333 8.5 85 25.5s43.667 39.5 57 67.5l34 -20c-15.333 -29.333 -37.666 -55.166 -66.999 -77.499s-66.666 -33.5 -111.999 -33.5c-62 0 -111 20.167 -147 60.5s-54 91.166 -54 152.499
c0 67.333 19.5 120 58.5 158s85.5 57 139.5 57c55.333 0 101.333 -20.333 138 -61s55 -93 55 -157zM90.9971 237h304c-5.33301 41.333 -21.833 75.333 -49.5 102s-61.5 40 -101.5 40c-40.667 0 -75 -13.5 -103 -40.5s-44.667 -60.833 -50 -101.5zM123.997 526
c0 10 3.5 18.5 10.5 25.5s15.5 10.5 25.5 10.5s18.5 -3.5 25.5 -10.5s10.5 -15.5 10.5 -25.5s-3.5 -18.5 -10.5 -25.5s-15.5 -10.5 -25.5 -10.5s-18.5 3.5 -25.5 10.5s-10.5 15.5 -10.5 25.5zM289.997 526c0 10 3.5 18.5 10.5 25.5s15.5 10.5 25.5 10.5
s18.5 -3.5 25.5 -10.5s10.5 -15.5 10.5 -25.5s-3.5 -18.5 -10.5 -25.5s-15.5 -10.5 -25.5 -10.5s-18.5 3.5 -25.5 10.5s-10.5 15.5 -10.5 25.5z" />
    <glyph glyph-name="igrave" unicode="&#xec;" horiz-adv-x="184" 
d="M72 408h40v-408h-40v408zM90 467l-105 128l43 25l92 -137z" />
    <glyph glyph-name="iacute" unicode="&#xed;" horiz-adv-x="184" 
d="M72 408h40v-408h-40v408zM147 620l43 -25l-105 -128l-30 16z" />
    <glyph glyph-name="icircumflex" unicode="&#xee;" horiz-adv-x="184" 
d="M72 408h40v-408h-40v408zM92 531l-70 -60l-30 26l100 86l100 -86l-30 -26z" />
    <glyph glyph-name="idieresis" unicode="&#xef;" horiz-adv-x="184" 
d="M72 408h40v-408h-40v408zM-27 526c0 10 3.5 18.5 10.5 25.5s15.5 10.5 25.5 10.5s18.5 -3.5 25.5 -10.5s10.5 -15.5 10.5 -25.5s-3.5 -18.5 -10.5 -25.5s-15.5 -10.5 -25.5 -10.5s-18.5 3.5 -25.5 10.5s-10.5 15.5 -10.5 25.5zM139 526c0 10 3.5 18.5 10.5 25.5
s15.5 10.5 25.5 10.5s18.5 -3.5 25.5 -10.5s10.5 -15.5 10.5 -25.5s-3.5 -18.5 -10.5 -25.5s-15.5 -10.5 -25.5 -10.5s-18.5 3.5 -25.5 10.5s-10.5 15.5 -10.5 25.5z" />
    <glyph glyph-name="eth" unicode="&#xf0;" horiz-adv-x="516" 
d="M105 636l4.99902 36.9961c42.667 -4.66699 81 -14.334 115 -29.001c28 -11.333 57 -28.666 87 -51.999l146 49l12 -35l-127 -42c30 -28.667 54 -59.667 72 -93c36.667 -66 55 -143.667 55 -233c0 -83.333 -21.667 -146.666 -65 -189.999
c-39.333 -39.333 -88 -59 -146 -59c-59.333 0 -108.666 19.667 -147.999 59c-43.333 43.333 -65 98 -65 164c0 66.667 21.333 121.334 64 164.001c39.333 40.667 90 61 152 61c62.667 0 111.667 -26 147 -78h2c-6.66699 36.667 -19.667 71.334 -39 104.001
c-20.667 34.667 -45 63.334 -73 86.001l-162 -53l-12 34l140 46c-46.667 31.333 -100 51.333 -160 60zM427.999 217.996c0 57.333 -17.666 103 -52.999 137c-29.333 29.333 -67 44 -113 44c-48.667 0 -89 -16.667 -121 -50c-35.333 -36 -53 -82.333 -53 -139
c0 -53.333 16.333 -97 49 -131c33.333 -34.667 74 -52 122 -52c43.333 0 80.666 15 111.999 45c38 37.333 57 86 57 146z" />
    <glyph glyph-name="ntilde" unicode="&#xf1;" horiz-adv-x="442" 
d="M72 0l-0.00195312 407.999h40v-64c27.333 48.667 69 73 125 73c50.667 0 88.334 -19 113.001 -57c13.333 -21.333 20 -55.666 20 -102.999v-257h-40v257c0 38 -5.33301 65.333 -16 82c-16 26.667 -42.667 40 -80 40c-45.333 0 -78.666 -19 -99.999 -57
c-14.667 -26 -22 -62.667 -22 -110v-212h-40zM119.998 486.999l-26.001 18.999c6 16.667 13.667 29.334 23 38.001c12.667 12.667 28 19 46 19c14.667 0 38.667 -7.33301 72 -22c20.667 -8.66699 36.334 -13 47.001 -13s19.667 4 27 12c9.33301 12 14 20.333 14 25l25 -20
c-6 -16 -14.667 -29.333 -26 -40c-13.333 -11.333 -28.333 -17 -45 -17c-12 0 -31.333 5.66699 -58 17c-28.667 12 -48.334 18 -59.001 18c-11.333 0 -20.666 -4 -27.999 -12c-6 -6.66699 -10 -14.667 -12 -24z" />
    <glyph glyph-name="ograve" unicode="&#xf2;" horiz-adv-x="520" 
d="M260 417c60.667 0 111.5 -20.5 152.5 -61.5s61.5 -91.833 61.5 -152.5s-20.5 -111.5 -61.5 -152.5s-91.833 -61.5 -152.5 -61.5s-111.5 20.5 -152.5 61.5s-61.5 91.833 -61.5 152.5s20.5 111.5 61.5 152.5s91.833 61.5 152.5 61.5zM260 27c48.667 0 89.5 17 122.5 51
s49.5 75.667 49.5 125s-16.5 91 -49.5 125s-73.833 51 -122.5 51s-89.5 -17 -122.5 -51s-49.5 -75.667 -49.5 -125s16.5 -91 49.5 -125s73.833 -51 122.5 -51zM278 467l-105 128l43 25l92 -137z" />
    <glyph glyph-name="oacute" unicode="&#xf3;" horiz-adv-x="520" 
d="M260 417c60.667 0 111.5 -20.5 152.5 -61.5s61.5 -91.833 61.5 -152.5s-20.5 -111.5 -61.5 -152.5s-91.833 -61.5 -152.5 -61.5s-111.5 20.5 -152.5 61.5s-61.5 91.833 -61.5 152.5s20.5 111.5 61.5 152.5s91.833 61.5 152.5 61.5zM260 27c48.667 0 89.5 17 122.5 51
s49.5 75.667 49.5 125s-16.5 91 -49.5 125s-73.833 51 -122.5 51s-89.5 -17 -122.5 -51s-49.5 -75.667 -49.5 -125s16.5 -91 49.5 -125s73.833 -51 122.5 -51zM305 620l43 -25l-105 -128l-30 16z" />
    <glyph glyph-name="ocircumflex" unicode="&#xf4;" horiz-adv-x="520" 
d="M260 417c60.667 0 111.5 -20.5 152.5 -61.5s61.5 -91.833 61.5 -152.5s-20.5 -111.5 -61.5 -152.5s-91.833 -61.5 -152.5 -61.5s-111.5 20.5 -152.5 61.5s-61.5 91.833 -61.5 152.5s20.5 111.5 61.5 152.5s91.833 61.5 152.5 61.5zM260 27c48.667 0 89.5 17 122.5 51
s49.5 75.667 49.5 125s-16.5 91 -49.5 125s-73.833 51 -122.5 51s-89.5 -17 -122.5 -51s-49.5 -75.667 -49.5 -125s16.5 -91 49.5 -125s73.833 -51 122.5 -51zM260 535l-90 -68l-32 25l122 94l122 -94l-32 -25z" />
    <glyph glyph-name="otilde" unicode="&#xf5;" horiz-adv-x="520" 
d="M260 417c60.667 0 111.5 -20.5 152.5 -61.5s61.5 -91.833 61.5 -152.5s-20.5 -111.5 -61.5 -152.5s-91.833 -61.5 -152.5 -61.5s-111.5 20.5 -152.5 61.5s-61.5 91.833 -61.5 152.5s20.5 111.5 61.5 152.5s91.833 61.5 152.5 61.5zM260 27c48.667 0 89.5 17 122.5 51
s49.5 75.667 49.5 125s-16.5 91 -49.5 125s-73.833 51 -122.5 51s-89.5 -17 -122.5 -51s-49.5 -75.667 -49.5 -125s16.5 -91 49.5 -125s73.833 -51 122.5 -51zM159 487l-26.001 18.999c6 16.667 13.667 29.334 23 38.001c12.667 12.667 28 19 46 19
c14.667 0 38.667 -7.33301 72 -22c20.667 -8.66699 36.334 -13 47.001 -13s19.667 4 27 12c9.33301 12 14 20.333 14 25l25 -20c-6 -16 -14.667 -29.333 -26 -40c-13.333 -11.333 -28.333 -17 -45 -17c-12 0 -31.333 5.66699 -58 17c-28.667 12 -48.334 18 -59.001 18
c-11.333 0 -20.666 -4 -27.999 -12c-6 -6.66699 -10 -14.667 -12 -24z" />
    <glyph glyph-name="odieresis" unicode="&#xf6;" horiz-adv-x="520" 
d="M260 417c60.667 0 111.5 -20.5 152.5 -61.5s61.5 -91.833 61.5 -152.5s-20.5 -111.5 -61.5 -152.5s-91.833 -61.5 -152.5 -61.5s-111.5 20.5 -152.5 61.5s-61.5 91.833 -61.5 152.5s20.5 111.5 61.5 152.5s91.833 61.5 152.5 61.5zM260 27c48.667 0 89.5 17 122.5 51
s49.5 75.667 49.5 125s-16.5 91 -49.5 125s-73.833 51 -122.5 51s-89.5 -17 -122.5 -51s-49.5 -75.667 -49.5 -125s16.5 -91 49.5 -125s73.833 -51 122.5 -51zM141 526c0 10 3.5 18.5 10.5 25.5s15.5 10.5 25.5 10.5s18.5 -3.5 25.5 -10.5s10.5 -15.5 10.5 -25.5
s-3.5 -18.5 -10.5 -25.5s-15.5 -10.5 -25.5 -10.5s-18.5 3.5 -25.5 10.5s-10.5 15.5 -10.5 25.5zM307 526c0 10 3.5 18.5 10.5 25.5s15.5 10.5 25.5 10.5s18.5 -3.5 25.5 -10.5s10.5 -15.5 10.5 -25.5s-3.5 -18.5 -10.5 -25.5s-15.5 -10.5 -25.5 -10.5s-18.5 3.5 -25.5 10.5
s-10.5 15.5 -10.5 25.5z" />
    <glyph glyph-name="divide" unicode="&#xf7;" 
d="M215 518c0 9.33301 3.5 17.5 10.5 24.5s15.167 10.5 24.5 10.5s17.5 -3.5 24.5 -10.5s10.5 -15.167 10.5 -24.5s-3.5 -17.5 -10.5 -24.5s-15.167 -10.5 -24.5 -10.5s-17.5 3.5 -24.5 10.5s-10.5 15.167 -10.5 24.5zM215 140c0 9.33301 3.5 17.5 10.5 24.5
s15.167 10.5 24.5 10.5s17.5 -3.5 24.5 -10.5s10.5 -15.167 10.5 -24.5s-3.5 -17.5 -10.5 -24.5s-15.167 -10.5 -24.5 -10.5s-17.5 3.5 -24.5 10.5s-10.5 15.167 -10.5 24.5zM33 310v38h434v-38h-434z" />
    <glyph glyph-name="oslash" unicode="&#xf8;" horiz-adv-x="521" 
d="M40 13l54.001 53c-31.333 40 -47 85.667 -47 137c0 60.667 20.5 111.5 61.5 152.5s91.833 61.5 152.5 61.5c53.333 0 98.666 -15.667 135.999 -47l53 53l25 -25l-53 -52c35.333 -39.333 53 -87 53 -143c0 -60.667 -20.5 -111.5 -61.5 -152.5s-91.833 -61.5 -152.5 -61.5
c-55.333 0 -103.333 17.667 -144 53l-52 -53zM394.001 317l-247.999 -246c31.333 -29.333 69.666 -44 114.999 -44c48.667 0 89.5 17 122.5 51s49.5 75.667 49.5 125c0 44 -13 82 -39 114zM123.002 95l246 247c-31.333 24.667 -67.333 37 -108 37
c-48.667 0 -89.5 -17 -122.5 -51s-49.5 -75.667 -49.5 -125c0 -41.333 11.333 -77.333 34 -108z" />
    <glyph glyph-name="ugrave" unicode="&#xf9;" horiz-adv-x="438" 
d="M72 408h40v-246c0 -47.333 8.66699 -81.333 26 -102c18.667 -22 45.667 -33 81 -33s62.333 11 81 33c17.333 20.667 26 54.667 26 102v246h40v-257c0 -48 -10.333 -85.333 -31 -112c-26 -33.333 -64.667 -50 -116 -50s-90 16.667 -116 50c-20.667 26.667 -31 64 -31 112
v257zM228 467l-105 128l43 25l92 -137z" />
    <glyph glyph-name="uacute" unicode="&#xfa;" horiz-adv-x="438" 
d="M72 408h40v-246c0 -47.333 8.66699 -81.333 26 -102c18.667 -22 45.667 -33 81 -33s62.333 11 81 33c17.333 20.667 26 54.667 26 102v246h40v-257c0 -48 -10.333 -85.333 -31 -112c-26 -33.333 -64.667 -50 -116 -50s-90 16.667 -116 50c-20.667 26.667 -31 64 -31 112
v257zM274 620l43 -25l-105 -128l-30 16z" />
    <glyph glyph-name="ucircumflex" unicode="&#xfb;" horiz-adv-x="438" 
d="M72 408h40v-246c0 -47.333 8.66699 -81.333 26 -102c18.667 -22 45.667 -33 81 -33s62.333 11 81 33c17.333 20.667 26 54.667 26 102v246h40v-257c0 -48 -10.333 -85.333 -31 -112c-26 -33.333 -64.667 -50 -116 -50s-90 16.667 -116 50c-20.667 26.667 -31 64 -31 112
v257zM219 535l-90 -68l-32 25l122 94l122 -94l-32 -25z" />
    <glyph glyph-name="udieresis" unicode="&#xfc;" horiz-adv-x="438" 
d="M72 408h40v-246c0 -47.333 8.66699 -81.333 26 -102c18.667 -22 45.667 -33 81 -33s62.333 11 81 33c17.333 20.667 26 54.667 26 102v246h40v-257c0 -48 -10.333 -85.333 -31 -112c-26 -33.333 -64.667 -50 -116 -50s-90 16.667 -116 50c-20.667 26.667 -31 64 -31 112
v257zM100 526c0 10 3.5 18.5 10.5 25.5s15.5 10.5 25.5 10.5s18.5 -3.5 25.5 -10.5s10.5 -15.5 10.5 -25.5s-3.5 -18.5 -10.5 -25.5s-15.5 -10.5 -25.5 -10.5s-18.5 3.5 -25.5 10.5s-10.5 15.5 -10.5 25.5zM266 526c0 10 3.5 18.5 10.5 25.5s15.5 10.5 25.5 10.5
s18.5 -3.5 25.5 -10.5s10.5 -15.5 10.5 -25.5s-3.5 -18.5 -10.5 -25.5s-15.5 -10.5 -25.5 -10.5s-18.5 3.5 -25.5 10.5s-10.5 15.5 -10.5 25.5z" />
    <glyph glyph-name="yacute" unicode="&#xfd;" horiz-adv-x="428" 
d="M106 -230l96 223l-194 415h46l171 -363l149 363h46l-268 -638h-46zM269 620l43 -25l-105 -128l-30 16z" />
    <glyph glyph-name="thorn" unicode="&#xfe;" horiz-adv-x="516" 
d="M112 73l0.00195312 -302.998h-40v959h40v-392c39.333 53.333 92.666 80 159.999 80c60 0 108 -19.833 144 -59.5s54 -89.834 54 -150.501c0 -62 -18.167 -113.833 -54.5 -155.5s-84.833 -62.5 -145.5 -62.5c-30.667 0 -58.334 6.16699 -83.001 18.5
s-41.667 23.666 -51 33.999s-17.333 20.833 -24 31.5zM269.002 27.002c50 0 89 17 117 51s42 77 42 129c0 54 -15.333 96.167 -46 126.5s-68 45.5 -112 45.5c-43.333 0 -80.833 -15 -112.5 -45s-47.5 -71.667 -47.5 -125c0 -52.667 14 -96.167 42 -130.5s67 -51.5 117 -51.5
z" />
    <glyph glyph-name="ydieresis" unicode="&#xff;" horiz-adv-x="428" 
d="M106 -230l96 223l-194 415h46l171 -363l149 363h46l-268 -638h-46zM95 526c0 10 3.5 18.5 10.5 25.5s15.5 10.5 25.5 10.5s18.5 -3.5 25.5 -10.5s10.5 -15.5 10.5 -25.5s-3.5 -18.5 -10.5 -25.5s-15.5 -10.5 -25.5 -10.5s-18.5 3.5 -25.5 10.5s-10.5 15.5 -10.5 25.5z
M261 526c0 10 3.5 18.5 10.5 25.5s15.5 10.5 25.5 10.5s18.5 -3.5 25.5 -10.5s10.5 -15.5 10.5 -25.5s-3.5 -18.5 -10.5 -25.5s-15.5 -10.5 -25.5 -10.5s-18.5 3.5 -25.5 10.5s-10.5 15.5 -10.5 25.5z" />
    <glyph glyph-name="Amacron" unicode="&#x100;" horiz-adv-x="586" 
d="M524 0l-89 219h-284l-89 -219h-48l281 687l277 -687h-48zM167 259h252l-125 316zM158 750v44h270v-44h-270z" />
    <glyph glyph-name="amacron" unicode="&#x101;" horiz-adv-x="516" 
d="M404 337v71.001h40v-408h-40v73c-36.667 -56 -89.667 -84 -159 -84c-55.333 0 -102.333 19.667 -141 59s-58 91.333 -58 156c0 63.333 18.333 114.666 55 153.999s84.667 59 144 59c68 0 121 -26.667 159 -80zM247 379.001c-43.333 0 -80.666 -15.499 -111.999 -46.499
s-47 -72.833 -47 -125.5c0 -48.667 14.333 -90.834 43 -126.501s67.667 -53.5 117 -53.5c48.667 0 87.167 17.5 115.5 52.5s42.5 77.5 42.5 127.5c0 55.333 -16.333 97.833 -49 127.5s-69.334 44.5 -110.001 44.5zM121 493.002v39h270v-39h-270z" />
    <glyph glyph-name="Abreve" unicode="&#x102;" horiz-adv-x="586" 
d="M524 0l-89 219h-284l-89 -219h-48l281 687l277 -687h-48zM167 259h252l-125 316zM166 826h40.002c4 -13.333 12 -24.666 24 -33.999c16 -12 37 -18 63 -18s47 6 63 18c12 9.33301 20 20.666 24 33.999h40c-2.66699 -22 -12.334 -41.333 -29.001 -58
c-24 -24 -56.667 -36 -98 -36s-74 12 -98 36c-16.667 16.667 -26.334 36 -29.001 58z" />
    <glyph glyph-name="abreve" unicode="&#x103;" horiz-adv-x="516" 
d="M404 337v71.001h40v-408h-40v73c-36.667 -56 -89.667 -84 -159 -84c-55.333 0 -102.333 19.667 -141 59s-58 91.333 -58 156c0 63.333 18.333 114.666 55 153.999s84.667 59 144 59c68 0 121 -26.667 159 -80zM247 379.001c-43.333 0 -80.666 -15.499 -111.999 -46.499
s-47 -72.833 -47 -125.5c0 -48.667 14.333 -90.834 43 -126.501s67.667 -53.5 117 -53.5c48.667 0 87.167 17.5 115.5 52.5s42.5 77.5 42.5 127.5c0 55.333 -16.333 97.833 -49 127.5s-69.334 44.5 -110.001 44.5zM132 573.002h38.0039
c3.33301 -14.667 11.666 -27 24.999 -37c17.333 -12.667 38 -19 62 -19s44.667 6.33301 62 19c13.333 10 21.666 22.333 24.999 37h38c-2.66699 -22 -12.334 -41.333 -29.001 -58c-24 -24 -56 -36 -96 -36s-72 12 -96 36c-16.667 16.667 -26.334 36 -29.001 58z" />
    <glyph glyph-name="Aogonek" unicode="&#x104;" horiz-adv-x="586" 
d="M524 0l-88.999 219h-284l-89 -219h-48l281 687l277 -687c-18 -12 -33.333 -26 -46 -42c-14.667 -19.333 -22 -37.666 -22 -54.999c0 -14.667 5 -26.5 15 -35.5s25 -13.5 45 -13.5c15.333 0 32.666 3 51.999 9l-9 -37c-14.667 -5.33301 -29.667 -8 -45 -8
c-30 0 -54.167 7.83301 -72.5 23.5s-27.5 35.5 -27.5 59.5c0 22 7.66699 42.667 23 62c10.667 13.333 25 25.666 43 36.999h-4zM167.001 259h252l-125 316z" />
    <glyph glyph-name="aogonek" unicode="&#x105;" horiz-adv-x="516" 
d="M404 337v71.001h40v-408c-18 -12 -33.333 -26 -46 -42c-14.667 -19.333 -22 -37.666 -22 -54.999c0 -14.667 5 -26.5 15 -35.5s25 -13.5 45 -13.5c15.333 0 32.666 3 51.999 9l-9 -36c-13.333 -5.33301 -28.333 -8 -45 -8c-31.333 0 -55.166 8.33301 -71.499 25
s-24.5 35.667 -24.5 57c0 22 7.66699 42.667 23 62c10.667 13.333 25 25.666 43 36.999v73c-36.667 -56 -89.667 -84 -159 -84c-55.333 0 -102.333 19.667 -141 59s-58 91.333 -58 156c0 63.333 18.333 114.666 55 153.999s84.667 59 144 59c68 0 121 -26.667 159 -80z
M247 379.001c-43.333 0 -80.666 -15.499 -111.999 -46.499s-47 -72.833 -47 -125.5c0 -48.667 14.333 -90.834 43 -126.501s67.667 -53.5 117 -53.5c48.667 0 87.167 17.5 115.5 52.5s42.5 77.5 42.5 127.5c0 55.333 -16.333 97.833 -49 127.5s-69.334 44.5 -110.001 44.5z
" />
    <glyph glyph-name="Cacute" unicode="&#x106;" horiz-adv-x="678" 
d="M624 589l-0.000976562 -58.002c-28.667 33.333 -62.5 59.166 -101.5 77.499s-80.167 27.5 -123.5 27.5c-84.667 0 -155.667 -29.667 -213 -89s-86 -131.666 -86 -216.999c0 -47.333 9.16699 -90.666 27.5 -129.999s42.333 -71.166 72 -95.499s61.834 -43 96.501 -56
s69.334 -19.5 104.001 -19.5c37.333 0 76 8.16699 116 24.5s76 41.833 108 76.5v-58c-62.667 -55.333 -136.667 -83 -222 -83c-98.667 0 -181.334 33.667 -248.001 101s-100 148 -100 242c0 96 33.667 177.333 101 244s149 100 245 100c88 0 162.667 -29 224 -87z
M445.999 853.998l50 -25l-134 -126l-32 18z" />
    <glyph glyph-name="cacute" unicode="&#x107;" horiz-adv-x="442" 
d="M399 365l0.000976562 -52.999c-38.667 44.667 -85.667 67 -141 67c-49.333 0 -90 -16.833 -122 -50.5s-48 -75.834 -48 -126.501c0 -54.667 17 -97.5 51 -128.5s73 -46.5 117 -46.5c54 0 103.333 24.333 148 73v-54c-42.667 -38 -92.334 -57 -149.001 -57
c-61.333 0 -111.5 20.167 -150.5 60.5s-58.5 90.833 -58.5 151.5c0 62 19.333 113.5 58 154.5s90 61.5 154 61.5c52.667 0 99.667 -17.333 141 -52zM305.001 620.001l43 -25l-105 -128l-30 16z" />
    <glyph glyph-name="Ccircumflex" unicode="&#x108;" horiz-adv-x="678" 
d="M624 589l-0.000976562 -58.002c-28.667 33.333 -62.5 59.166 -101.5 77.499s-80.167 27.5 -123.5 27.5c-84.667 0 -155.667 -29.667 -213 -89s-86 -131.666 -86 -216.999c0 -47.333 9.16699 -90.666 27.5 -129.999s42.333 -71.166 72 -95.499s61.834 -43 96.501 -56
s69.334 -19.5 104.001 -19.5c37.333 0 76 8.16699 116 24.5s76 41.833 108 76.5v-58c-62.667 -55.333 -136.667 -83 -222 -83c-98.667 0 -181.334 33.667 -248.001 101s-100 148 -100 242c0 96 33.667 177.333 101 244s149 100 245 100c88 0 162.667 -29 224 -87z
M399.999 785.998l-96 -64l-34 27l130 90l130 -90l-34 -27z" />
    <glyph glyph-name="ccircumflex" unicode="&#x109;" horiz-adv-x="442" 
d="M399 365l0.000976562 -52.999c-38.667 44.667 -85.667 67 -141 67c-49.333 0 -90 -16.833 -122 -50.5s-48 -75.834 -48 -126.501c0 -54.667 17 -97.5 51 -128.5s73 -46.5 117 -46.5c54 0 103.333 24.333 148 73v-54c-42.667 -38 -92.334 -57 -149.001 -57
c-61.333 0 -111.5 20.167 -150.5 60.5s-58.5 90.833 -58.5 151.5c0 62 19.333 113.5 58 154.5s90 61.5 154 61.5c52.667 0 99.667 -17.333 141 -52zM260.001 535.001l-90 -68l-32 25l122 94l122 -94l-32 -25z" />
    <glyph glyph-name="Cdotaccent" unicode="&#x10a;" horiz-adv-x="678" 
d="M624 589l-0.000976562 -58.002c-28.667 33.333 -62.5 59.166 -101.5 77.499s-80.167 27.5 -123.5 27.5c-84.667 0 -155.667 -29.667 -213 -89s-86 -131.666 -86 -216.999c0 -47.333 9.16699 -90.666 27.5 -129.999s42.333 -71.166 72 -95.499s61.834 -43 96.501 -56
s69.334 -19.5 104.001 -19.5c37.333 0 76 8.16699 116 24.5s76 41.833 108 76.5v-58c-62.667 -55.333 -136.667 -83 -222 -83c-98.667 0 -181.334 33.667 -248.001 101s-100 148 -100 242c0 96 33.667 177.333 101 244s149 100 245 100c88 0 162.667 -29 224 -87z
M360.999 780.998c0 12 3.83301 21.833 11.5 29.5s17.5 11.5 29.5 11.5s21.833 -3.83301 29.5 -11.5s11.5 -17.5 11.5 -29.5s-3.83301 -21.833 -11.5 -29.5s-17.5 -11.5 -29.5 -11.5s-21.833 3.83301 -29.5 11.5s-11.5 17.5 -11.5 29.5z" />
    <glyph glyph-name="cdotaccent" unicode="&#x10b;" horiz-adv-x="442" 
d="M399 365l0.000976562 -52.999c-38.667 44.667 -85.667 67 -141 67c-49.333 0 -90 -16.833 -122 -50.5s-48 -75.834 -48 -126.501c0 -54.667 17 -97.5 51 -128.5s73 -46.5 117 -46.5c54 0 103.333 24.333 148 73v-54c-42.667 -38 -92.334 -57 -149.001 -57
c-61.333 0 -111.5 20.167 -150.5 60.5s-58.5 90.833 -58.5 151.5c0 62 19.333 113.5 58 154.5s90 61.5 154 61.5c52.667 0 99.667 -17.333 141 -52zM222.001 527.001c0 11.333 3.66699 20.666 11 27.999s16.666 11 27.999 11s20.666 -3.66699 27.999 -11
s11 -16.666 11 -27.999s-3.66699 -20.666 -11 -27.999s-16.666 -11 -27.999 -11s-20.666 3.66699 -27.999 11s-11 16.666 -11 27.999z" />
    <glyph glyph-name="Ccaron" unicode="&#x10c;" horiz-adv-x="678" 
d="M624 589l-0.000976562 -58.002c-28.667 33.333 -62.5 59.166 -101.5 77.499s-80.167 27.5 -123.5 27.5c-84.667 0 -155.667 -29.667 -213 -89s-86 -131.666 -86 -216.999c0 -47.333 9.16699 -90.666 27.5 -129.999s42.333 -71.166 72 -95.499s61.834 -43 96.501 -56
s69.334 -19.5 104.001 -19.5c37.333 0 76 8.16699 116 24.5s76 41.833 108 76.5v-58c-62.667 -55.333 -136.667 -83 -222 -83c-98.667 0 -181.334 33.667 -248.001 101s-100 148 -100 242c0 96 33.667 177.333 101 244s149 100 245 100c88 0 162.667 -29 224 -87z
M399.999 774.998l96 64l34 -27l-130 -90l-130 90l34 27z" />
    <glyph glyph-name="ccaron" unicode="&#x10d;" horiz-adv-x="442" 
d="M399 365l0.000976562 -52.999c-38.667 44.667 -85.667 67 -141 67c-49.333 0 -90 -16.833 -122 -50.5s-48 -75.834 -48 -126.501c0 -54.667 17 -97.5 51 -128.5s73 -46.5 117 -46.5c54 0 103.333 24.333 148 73v-54c-42.667 -38 -92.334 -57 -149.001 -57
c-61.333 0 -111.5 20.167 -150.5 60.5s-58.5 90.833 -58.5 151.5c0 62 19.333 113.5 58 154.5s90 61.5 154 61.5c52.667 0 99.667 -17.333 141 -52zM260.001 517.001l90 68l32 -26l-122 -94l-122 94l32 26z" />
    <glyph glyph-name="Dcaron" unicode="&#x10e;" horiz-adv-x="618" 
d="M222 0l-132.002 -0.000976562v667h132c102 0 184 -31 246 -93c32.667 -32.667 56.834 -70.667 72.501 -114s23.5 -85.666 23.5 -126.999c0 -40.667 -7.66699 -82.5 -23 -125.5s-39.666 -81.167 -72.999 -114.5c-62 -62 -144 -93 -246 -93zM133.998 626.999
l-0.000976562 -587h87c88 0 159.5 27.167 214.5 81.5s82.5 124.833 82.5 211.5c0 86 -27.667 156.5 -83 211.5s-126.666 82.5 -213.999 82.5h-87zM229.997 774.999l96 64l34 -27l-130 -90l-130 90l34 27z" />
    <glyph glyph-name="dcaron" unicode="&#x10f;" horiz-adv-x="542" 
d="M404 337l0.000976562 392h40v-729h-40v73c-36.667 -56 -89.334 -84 -158.001 -84c-55.333 0 -102.5 19.167 -141.5 57.5s-58.5 91.5 -58.5 159.5c0 69.333 19.667 121.833 59 157.5s86.333 53.5 141 53.5c68 0 120.667 -26.667 158 -80zM246.001 379
c-44.667 0 -82.167 -15 -112.5 -45s-45.5 -72.333 -45.5 -127c0 -56.667 15.667 -100.834 47 -132.501s69 -47.5 113 -47.5c43.333 0 80.5 15.833 111.5 47.5s46.5 75.834 46.5 132.501c0 49.333 -14.333 90.333 -43 123s-67.667 49 -117 49zM482.001 520l46 160l44 -14
l-62 -156z" />
    <glyph glyph-name="Dcroat" unicode="&#x110;" horiz-adv-x="618" 
d="M222 0l-132.002 -0.000976562v345h-90v40h90v282h132c102 0 184 -31 246 -93c32.667 -32.667 56.834 -70.667 72.501 -114s23.5 -85.666 23.5 -126.999c0 -40.667 -7.66699 -82.5 -23 -125.5s-39.666 -81.167 -72.999 -114.5c-62 -62 -144 -93 -246 -93zM133.998 626.999
l-0.000976562 -242h136v-40h-136v-305h87c88 0 159.5 27.167 214.5 81.5s82.5 124.833 82.5 211.5c0 86 -27.667 156.5 -83 211.5s-126.666 82.5 -213.999 82.5h-87z" />
    <glyph glyph-name="dcroat" unicode="&#x111;" horiz-adv-x="516" 
d="M404 337l0.000976562 225h-180v38h180v129h40v-129h72v-38h-72v-562h-40v73c-36.667 -56 -89.334 -84 -158.001 -84c-55.333 0 -102.5 19.167 -141.5 57.5s-58.5 91.5 -58.5 159.5c0 69.333 19.667 121.833 59 157.5s86.333 53.5 141 53.5c68 0 120.667 -26.667 158 -80z
M246.001 379c-44.667 0 -82.167 -15 -112.5 -45s-45.5 -72.333 -45.5 -127c0 -56.667 15.667 -100.834 47 -132.501s69 -47.5 113 -47.5c43.333 0 80.5 15.833 111.5 47.5s46.5 75.834 46.5 132.501c0 49.333 -14.333 90.333 -43 123s-67.667 49 -117 49z" />
    <glyph glyph-name="Emacron" unicode="&#x112;" horiz-adv-x="464" 
d="M410 667v-40h-276v-242h270v-40h-270v-305h276v-40h-320v667h320zM115 750v44h270v-44h-270z" />
    <glyph glyph-name="emacron" unicode="&#x113;" horiz-adv-x="483" 
d="M437 199h-349.003c0 -50.667 15.833 -92 47.5 -124s69.834 -48 114.501 -48c32 0 60.333 8.5 85 25.5s43.667 39.5 57 67.5l34 -20c-15.333 -29.333 -37.666 -55.166 -66.999 -77.499s-66.666 -33.5 -111.999 -33.5c-62 0 -111 20.167 -147 60.5s-54 91.166 -54 152.499
c0 67.333 19.5 120 58.5 158s85.5 57 139.5 57c55.333 0 101.333 -20.333 138 -61s55 -93 55 -157zM90.9971 237h304c-5.33301 41.333 -21.833 75.333 -49.5 102s-61.5 40 -101.5 40c-40.667 0 -75 -13.5 -103 -40.5s-44.667 -60.833 -50 -101.5zM107.997 493v39h270v-39
h-270z" />
    <glyph glyph-name="Edotaccent" unicode="&#x116;" horiz-adv-x="464" 
d="M410 667v-40h-276v-242h270v-40h-270v-305h276v-40h-320v667h320zM209 781c0 12 3.83301 21.833 11.5 29.5s17.5 11.5 29.5 11.5s21.833 -3.83301 29.5 -11.5s11.5 -17.5 11.5 -29.5s-3.83301 -21.833 -11.5 -29.5s-17.5 -11.5 -29.5 -11.5s-21.833 3.83301 -29.5 11.5
s-11.5 17.5 -11.5 29.5z" />
    <glyph glyph-name="edotaccent" unicode="&#x117;" horiz-adv-x="483" 
d="M437 199h-349.003c0 -50.667 15.833 -92 47.5 -124s69.834 -48 114.501 -48c32 0 60.333 8.5 85 25.5s43.667 39.5 57 67.5l34 -20c-15.333 -29.333 -37.666 -55.166 -66.999 -77.499s-66.666 -33.5 -111.999 -33.5c-62 0 -111 20.167 -147 60.5s-54 91.166 -54 152.499
c0 67.333 19.5 120 58.5 158s85.5 57 139.5 57c55.333 0 101.333 -20.333 138 -61s55 -93 55 -157zM90.9971 237h304c-5.33301 41.333 -21.833 75.333 -49.5 102s-61.5 40 -101.5 40c-40.667 0 -75 -13.5 -103 -40.5s-44.667 -60.833 -50 -101.5zM203.997 527
c0 11.333 3.66699 20.666 11 27.999s16.666 11 27.999 11s20.666 -3.66699 27.999 -11s11 -16.666 11 -27.999s-3.66699 -20.666 -11 -27.999s-16.666 -11 -27.999 -11s-20.666 3.66699 -27.999 11s-11 16.666 -11 27.999z" />
    <glyph glyph-name="Eogonek" unicode="&#x118;" horiz-adv-x="464" 
d="M410 667v-39.998h-276v-242h270v-40h-270v-305h276v-40h-40c-45.333 -30 -68 -62 -68 -96c0 -16 4.66699 -28 14 -36c10 -9.33301 26.333 -14 49 -14c18 0 34.333 3 49 9l-9 -37c-14 -5.33301 -29 -8 -45 -8c-34 0 -60 9.33301 -78 28
c-14.667 15.333 -22 33.666 -22 54.999c0 22 7.66699 42.667 23 62c10.667 13.333 25 25.666 43 36.999h-236v667h320z" />
    <glyph glyph-name="eogonek" unicode="&#x119;" horiz-adv-x="485" 
d="M439 199l-351 -0.000976562c0 -50.667 15.667 -92.334 47 -125.001c30 -31.333 68.333 -47 115 -47c32 0 61.333 9 88 27c22 16 40 38 54 66l34 -20c-22 -41.333 -58.333 -75.333 -109 -102c-26 -13.333 -45.667 -27.666 -59 -42.999s-20 -32.666 -20 -51.999
c0 -16 5.66699 -28.333 17 -37c10 -8 24.333 -12 43 -12c14 0 31.333 3 52 9l-9 -36c-13.333 -5.33301 -28.333 -8 -45 -8c-31.333 0 -55.666 8.66699 -72.999 26c-15.333 15.333 -23 34 -23 56c0 16.667 5.33301 33.667 16 51c8.66699 14 20 26.333 34 37
c-62 0 -111 18.667 -147 56c-38 38.667 -57 91 -57 157s20 119 60 159c38.667 37.333 84.667 56 138 56s97.666 -17 132.999 -51c41.333 -41.333 62 -97 62 -167zM91 236.999h302c-6 43.333 -22.333 77.666 -49 102.999c-26.667 26 -60 39 -100 39
c-42.667 0 -77.667 -14 -105 -42c-25.333 -25.333 -41.333 -58.666 -48 -99.999z" />
    <glyph glyph-name="Ecaron" unicode="&#x11a;" horiz-adv-x="464" 
d="M410 667v-40h-276v-242h270v-40h-270v-305h276v-40h-320v667h320zM250 775l96 64l34 -27l-130 -90l-130 90l34 27z" />
    <glyph glyph-name="ecaron" unicode="&#x11b;" horiz-adv-x="483" 
d="M437 199h-349.003c0 -50.667 15.833 -92 47.5 -124s69.834 -48 114.501 -48c32 0 60.333 8.5 85 25.5s43.667 39.5 57 67.5l34 -20c-15.333 -29.333 -37.666 -55.166 -66.999 -77.499s-66.666 -33.5 -111.999 -33.5c-62 0 -111 20.167 -147 60.5s-54 91.166 -54 152.499
c0 67.333 19.5 120 58.5 158s85.5 57 139.5 57c55.333 0 101.333 -20.333 138 -61s55 -93 55 -157zM90.9971 237h304c-5.33301 41.333 -21.833 75.333 -49.5 102s-61.5 40 -101.5 40c-40.667 0 -75 -13.5 -103 -40.5s-44.667 -60.833 -50 -101.5zM242.997 517l90 68l32 -26
l-122 -94l-122 94l32 26z" />
    <glyph glyph-name="Gcircumflex" unicode="&#x11c;" horiz-adv-x="772" 
d="M438 280l-0.000976562 39.999h280c0 -88 -22.667 -161 -68 -219c-58.667 -74.667 -142.334 -112 -251.001 -112c-98.667 0 -180.834 32.333 -246.501 97s-98.5 146.667 -98.5 246c0 98 33.5 179.833 100.5 245.5s149.5 98.5 247.5 98.5c76.667 0 146.334 -24 209.001 -72
c30.667 -24 57.334 -52 80.001 -84l-35 -28c-16 27.333 -37.333 52 -64 74c-56 46.667 -119.667 70 -191 70c-85.333 0 -156.833 -29.667 -214.5 -89s-86.5 -131.666 -86.5 -216.999c0 -84 28.333 -155.167 85 -213.5s127.667 -87.5 213 -87.5
c52.667 0 99.5 11.167 140.5 33.5s71.5 48.833 91.5 79.5c26.667 41.333 41.334 87.333 44.001 138h-236zM399.999 785.999l-96 -64l-34 27l130 90l130 -90l-34 -27z" />
    <glyph glyph-name="gcircumflex" unicode="&#x11d;" horiz-adv-x="520" 
d="M408 408l40.002 -0.000976562v-396c0 -76.667 -18.167 -136.167 -54.5 -178.5s-86.5 -63.5 -150.5 -63.5c-55.333 0 -101.833 15.5 -139.5 46.5s-57.834 73.833 -60.501 128.5h42c3.33301 -42 19.5 -75.333 48.5 -100s65.5 -37 109.5 -37c30 0 56.167 6 78.5 18
s38.833 25.667 49.5 41s19 34 25 56s9.5 39 10.5 51s1.5 24.667 1.5 38v58c-38.667 -54 -92.334 -81 -161.001 -81c-54 0 -101 19 -141 57s-60 90.667 -60 158c0 60.667 18.667 111.334 56 152.001s87.333 61 150 61c66.667 0 118.667 -26.667 156 -80v71zM248.002 378.999
c-48.667 0 -87.499 -17.168 -116.499 -51.501s-43.5 -76.166 -43.5 -125.499c0 -50 14.5 -91.667 43.5 -125s67.167 -50 114.5 -50c49.333 0 89 17 119 51s45 76.667 45 128c0 48.667 -14.833 89.667 -44.5 123s-68.834 50 -117.501 50zM250.003 534.998l-90 -68l-32 25
l122 94l122 -94l-32 -25z" />
    <glyph glyph-name="Gbreve" unicode="&#x11e;" horiz-adv-x="772" 
d="M438 280l-0.000976562 39.999h280c0 -88 -22.667 -161 -68 -219c-58.667 -74.667 -142.334 -112 -251.001 -112c-98.667 0 -180.834 32.333 -246.501 97s-98.5 146.667 -98.5 246c0 98 33.5 179.833 100.5 245.5s149.5 98.5 247.5 98.5c76.667 0 146.334 -24 209.001 -72
c30.667 -24 57.334 -52 80.001 -84l-35 -28c-16 27.333 -37.333 52 -64 74c-56 46.667 -119.667 70 -191 70c-85.333 0 -156.833 -29.667 -214.5 -89s-86.5 -131.666 -86.5 -216.999c0 -84 28.333 -155.167 85 -213.5s127.667 -87.5 213 -87.5
c52.667 0 99.5 11.167 140.5 33.5s71.5 48.833 91.5 79.5c26.667 41.333 41.334 87.333 44.001 138h-236zM272.999 825.999h40.002c4 -13.333 12 -24.666 24 -33.999c16 -12 37 -18 63 -18s47 6 63 18c12 9.33301 20 20.666 24 33.999h40
c-2.66699 -22 -12.334 -41.333 -29.001 -58c-24 -24 -56.667 -36 -98 -36s-74 12 -98 36c-16.667 16.667 -26.334 36 -29.001 58z" />
    <glyph glyph-name="gbreve" unicode="&#x11f;" horiz-adv-x="520" 
d="M408 408l40.002 -0.000976562v-396c0 -76.667 -18.167 -136.167 -54.5 -178.5s-86.5 -63.5 -150.5 -63.5c-55.333 0 -101.833 15.5 -139.5 46.5s-57.834 73.833 -60.501 128.5h42c3.33301 -42 19.5 -75.333 48.5 -100s65.5 -37 109.5 -37c30 0 56.167 6 78.5 18
s38.833 25.667 49.5 41s19 34 25 56s9.5 39 10.5 51s1.5 24.667 1.5 38v58c-38.667 -54 -92.334 -81 -161.001 -81c-54 0 -101 19 -141 57s-60 90.667 -60 158c0 60.667 18.667 111.334 56 152.001s87.333 61 150 61c66.667 0 118.667 -26.667 156 -80v71zM248.002 378.999
c-48.667 0 -87.499 -17.168 -116.499 -51.501s-43.5 -76.166 -43.5 -125.499c0 -50 14.5 -91.667 43.5 -125s67.167 -50 114.5 -50c49.333 0 89 17 119 51s45 76.667 45 128c0 48.667 -14.833 89.667 -44.5 123s-68.834 50 -117.501 50zM125.003 572.998h38.0039
c3.33301 -14.667 11.666 -27 24.999 -37c17.333 -12.667 38 -19 62 -19s44.667 6.33301 62 19c13.333 10 21.666 22.333 24.999 37h38c-2.66699 -22 -12.334 -41.333 -29.001 -58c-24 -24 -56 -36 -96 -36s-72 12 -96 36c-16.667 16.667 -26.334 36 -29.001 58z" />
    <glyph glyph-name="Gdotaccent" unicode="&#x120;" horiz-adv-x="772" 
d="M438 280l-0.000976562 39.999h280c0 -88 -22.667 -161 -68 -219c-58.667 -74.667 -142.334 -112 -251.001 -112c-98.667 0 -180.834 32.333 -246.501 97s-98.5 146.667 -98.5 246c0 98 33.5 179.833 100.5 245.5s149.5 98.5 247.5 98.5c76.667 0 146.334 -24 209.001 -72
c30.667 -24 57.334 -52 80.001 -84l-35 -28c-16 27.333 -37.333 52 -64 74c-56 46.667 -119.667 70 -191 70c-85.333 0 -156.833 -29.667 -214.5 -89s-86.5 -131.666 -86.5 -216.999c0 -84 28.333 -155.167 85 -213.5s127.667 -87.5 213 -87.5
c52.667 0 99.5 11.167 140.5 33.5s71.5 48.833 91.5 79.5c26.667 41.333 41.334 87.333 44.001 138h-236zM361.999 780.999c0 12 3.83301 21.833 11.5 29.5s17.5 11.5 29.5 11.5s21.833 -3.83301 29.5 -11.5s11.5 -17.5 11.5 -29.5s-3.83301 -21.833 -11.5 -29.5
s-17.5 -11.5 -29.5 -11.5s-21.833 3.83301 -29.5 11.5s-11.5 17.5 -11.5 29.5z" />
    <glyph glyph-name="gdotaccent" unicode="&#x121;" horiz-adv-x="520" 
d="M408 408l40.002 -0.000976562v-396c0 -76.667 -18.167 -136.167 -54.5 -178.5s-86.5 -63.5 -150.5 -63.5c-55.333 0 -101.833 15.5 -139.5 46.5s-57.834 73.833 -60.501 128.5h42c3.33301 -42 19.5 -75.333 48.5 -100s65.5 -37 109.5 -37c30 0 56.167 6 78.5 18
s38.833 25.667 49.5 41s19 34 25 56s9.5 39 10.5 51s1.5 24.667 1.5 38v58c-38.667 -54 -92.334 -81 -161.001 -81c-54 0 -101 19 -141 57s-60 90.667 -60 158c0 60.667 18.667 111.334 56 152.001s87.333 61 150 61c66.667 0 118.667 -26.667 156 -80v71zM248.002 378.999
c-48.667 0 -87.499 -17.168 -116.499 -51.501s-43.5 -76.166 -43.5 -125.499c0 -50 14.5 -91.667 43.5 -125s67.167 -50 114.5 -50c49.333 0 89 17 119 51s45 76.667 45 128c0 48.667 -14.833 89.667 -44.5 123s-68.834 50 -117.501 50zM213.003 526.998
c0 11.333 3.66699 20.666 11 27.999s16.666 11 27.999 11s20.666 -3.66699 27.999 -11s11 -16.666 11 -27.999s-3.66699 -20.666 -11 -27.999s-16.666 -11 -27.999 -11s-20.666 3.66699 -27.999 11s-11 16.666 -11 27.999z" />
    <glyph glyph-name="Gcommaaccent" unicode="&#x122;" horiz-adv-x="772" 
d="M438 280l-0.000976562 39.999h280c0 -88 -22.667 -161 -68 -219c-58.667 -74.667 -142.334 -112 -251.001 -112c-98.667 0 -180.834 32.333 -246.501 97s-98.5 146.667 -98.5 246c0 98 33.5 179.833 100.5 245.5s149.5 98.5 247.5 98.5c76.667 0 146.334 -24 209.001 -72
c30.667 -24 57.334 -52 80.001 -84l-35 -28c-16 27.333 -37.333 52 -64 74c-56 46.667 -119.667 70 -191 70c-85.333 0 -156.833 -29.667 -214.5 -89s-86.5 -131.666 -86.5 -216.999c0 -84 28.333 -155.167 85 -213.5s127.667 -87.5 213 -87.5
c52.667 0 99.5 11.167 140.5 33.5s71.5 48.833 91.5 79.5c26.667 41.333 41.334 87.333 44.001 138h-236zM328.999 -190.001l46 140l44 -14l-62 -136z" />
    <glyph glyph-name="gcommaaccent" unicode="&#x123;" horiz-adv-x="520" 
d="M408 408l40.002 -0.000976562v-396c0 -76.667 -18.167 -136.167 -54.5 -178.5s-86.5 -63.5 -150.5 -63.5c-55.333 0 -101.833 15.5 -139.5 46.5s-57.834 73.833 -60.501 128.5h42c3.33301 -42 19.5 -75.333 48.5 -100s65.5 -37 109.5 -37c30 0 56.167 6 78.5 18
s38.833 25.667 49.5 41s19 34 25 56s9.5 39 10.5 51s1.5 24.667 1.5 38v58c-38.667 -54 -92.334 -81 -161.001 -81c-54 0 -101 19 -141 57s-60 90.667 -60 158c0 60.667 18.667 111.334 56 152.001s87.333 61 150 61c66.667 0 118.667 -26.667 156 -80v71zM248.002 378.999
c-48.667 0 -87.499 -17.168 -116.499 -51.501s-43.5 -76.166 -43.5 -125.499c0 -50 14.5 -91.667 43.5 -125s67.167 -50 114.5 -50c49.333 0 89 17 119 51s45 76.667 45 128c0 48.667 -14.833 89.667 -44.5 123s-68.834 50 -117.501 50zM324.003 632.998l-46 -140l-44 14
l62 136z" />
    <glyph glyph-name="Hcircumflex" unicode="&#x124;" horiz-adv-x="672" 
d="M134 667v-283h404v283h44v-667h-44v344h-404v-344h-44v667h44zM336 786l-96 -64l-34 27l130 90l130 -90l-34 -27z" />
    <glyph glyph-name="hcircumflex" unicode="&#x125;" horiz-adv-x="442" 
d="M72 0l-0.00195312 728.999h40v-385c27.333 48.667 69 73 125 73c50.667 0 88.334 -19 113.001 -57c13.333 -21.333 20 -55.666 20 -102.999v-257h-40v257c0 38 -5.33301 65.333 -16 82c-16 26.667 -42.667 40 -80 40c-45.333 0 -78.666 -19 -99.999 -57
c-14.667 -26 -22 -62.667 -22 -110v-212h-40zM89.998 774.999l-90 -68l-32 25l122 94l122 -94l-32 -25z" />
    <glyph glyph-name="Hbar" unicode="&#x126;" horiz-adv-x="672" 
d="M134 667v-54h404v54h44v-54h54v-34h-54v-579h-44v344h-404v-344h-44v579h-54v34h54v54h44zM538 579h-404v-195h404v195z" />
    <glyph glyph-name="hbar" unicode="&#x127;" horiz-adv-x="442" 
d="M72 0l-0.00195312 561.999h-72v38h72v129h40v-129h180v-38h-180v-218c27.333 48.667 69 73 125 73c50.667 0 88.334 -19 113.001 -57c13.333 -21.333 20 -55.666 20 -102.999v-257h-40v257c0 38 -5.33301 65.333 -16 82c-16 26.667 -42.667 40 -80 40
c-45.333 0 -78.666 -19 -99.999 -57c-14.667 -26 -22 -62.667 -22 -110v-212h-40z" />
    <glyph glyph-name="Imacron" unicode="&#x12a;" horiz-adv-x="224" 
d="M90 667h44v-667h-44v667zM10 750v44h204v-44h-204z" />
    <glyph glyph-name="imacron" unicode="&#x12b;" horiz-adv-x="184" 
d="M72 408h40v-408h-40v408zM12 493v39h160v-39h-160z" />
    <glyph glyph-name="Iogonek" unicode="&#x12e;" horiz-adv-x="224" 
d="M90 667h44.001v-667c-18 -12 -33.333 -26 -46 -42c-14.667 -19.333 -22 -37.666 -22 -54.999c0 -14.667 5 -26.5 15 -35.5s25 -13.5 45 -13.5c15.333 0 32.666 3 51.999 9l-9 -37c-14.667 -5.33301 -29.667 -8 -45 -8c-30 0 -54.167 7.83301 -72.5 23.5
s-27.5 35.5 -27.5 59.5c0 22 7.66699 42.667 23 62c10.667 13.333 25 25.666 43 36.999v667z" />
    <glyph glyph-name="iogonek" unicode="&#x12f;" horiz-adv-x="184" 
d="M72 408h40v-408c-18 -12 -33.333 -26 -46 -42c-14.667 -19.333 -22 -37.666 -22 -54.999c0 -14.667 5 -26.5 15 -35.5s25 -13.5 45 -13.5c15.333 0 32.666 3 51.999 9l-9 -36c-13.333 -5.33301 -28.333 -8 -45 -8c-31.333 0 -55.166 8.33301 -71.499 25
s-24.5 35.667 -24.5 57c0 22 7.66699 42.667 23 62c10.667 13.333 25 25.666 43 36.999v408zM92 507c-10 0 -18.5 3.5 -25.5 10.5s-10.5 15.833 -10.5 26.5s3.5 19.5 10.5 26.5s15.5 10.5 25.5 10.5s18.5 -3.5 25.5 -10.5s10.5 -15.833 10.5 -26.5s-3.5 -19.5 -10.5 -26.5
s-15.5 -10.5 -25.5 -10.5z" />
    <glyph glyph-name="Idotaccent" unicode="&#x130;" horiz-adv-x="224" 
d="M90 667h44v-667h-44v667zM71 781c0 12 3.83301 21.833 11.5 29.5s17.5 11.5 29.5 11.5s21.833 -3.83301 29.5 -11.5s11.5 -17.5 11.5 -29.5s-3.83301 -21.833 -11.5 -29.5s-17.5 -11.5 -29.5 -11.5s-21.833 3.83301 -29.5 11.5s-11.5 17.5 -11.5 29.5z" />
    <glyph glyph-name="dotlessi" unicode="&#x131;" horiz-adv-x="184" 
d="M72 408h40v-408h-40v408z" />
    <glyph glyph-name="Jcircumflex" unicode="&#x134;" horiz-adv-x="263" 
d="M129 667l44.001 0.00195312v-537c0 -50.667 -11 -87.334 -33 -110.001c-20.667 -20.667 -48.334 -31 -83.001 -31c-28 0 -52.333 8.33301 -73 25c-14.667 12 -27.667 27 -39 45l31 26c8.66699 -16.667 19 -29.334 31 -38.001c16 -12 33.333 -18 52 -18
c19.333 0 35.333 6.33301 48 19c14.667 14.667 22 39.667 22 75v544zM150.001 786.002l-96 -64l-34 27l130 90l130 -90l-34 -27z" />
    <glyph glyph-name="jcircumflex" unicode="&#x135;" horiz-adv-x="184" 
d="M72 408h40v-638h-40v638zM92 531l-70 -60l-30 26l100 86l100 -86l-30 -26z" />
    <glyph glyph-name="Kcommaaccent" unicode="&#x136;" horiz-adv-x="540" 
d="M134 667v-314l315 314h58l-323 -319l342 -348h-60l-314 318l-18 -17v-301h-44v667h44zM213 -190l46 140l44 -14l-62 -136z" />
    <glyph glyph-name="kcommaaccent" unicode="&#x137;" horiz-adv-x="396" 
d="M72 729h40v-496l168 175h52l-172 -177l228 -231h-54l-201 202l-21 -21v-181h-40v729zM140 -190l46 140l44 -14l-62 -136z" />
    <glyph glyph-name="Lacute" unicode="&#x139;" horiz-adv-x="334" 
d="M90 667h44v-627h186v-40h-230v667zM233 854l50 -25l-134 -126l-32 18z" />
    <glyph glyph-name="lacute" unicode="&#x13a;" horiz-adv-x="184" 
d="M72 729h40v-729h-40v729zM147 900l43 -25l-105 -128l-30 16z" />
    <glyph glyph-name="Lcommaaccent" unicode="&#x13b;" horiz-adv-x="334" 
d="M90 667h44v-627h186v-40h-230v667zM153 -190l46 140l44 -14l-62 -136z" />
    <glyph glyph-name="lcommaaccent" unicode="&#x13c;" horiz-adv-x="184" 
d="M72 729h40v-729h-40v729zM34 -190l46 140l44 -14l-62 -136z" />
    <glyph glyph-name="Lcaron" unicode="&#x13d;" horiz-adv-x="334" 
d="M90 667h44v-627h186v-40h-230v667zM232 520l46 160l44 -14l-62 -156z" />
    <glyph glyph-name="lcaron" unicode="&#x13e;" horiz-adv-x="210" 
d="M72 729h40v-729h-40v729zM150 520l46 160l44 -14l-62 -156z" />
    <glyph glyph-name="Ldot" unicode="&#x13f;" horiz-adv-x="334" 
d="M90 667h44v-627h186v-40h-230v667zM238 334c0 11.333 3.66699 20.666 11 27.999s16.666 11 27.999 11s20.666 -3.66699 27.999 -11s11 -16.666 11 -27.999s-3.66699 -20.666 -11 -27.999s-16.666 -11 -27.999 -11s-20.666 3.66699 -27.999 11s-11 16.666 -11 27.999z" />
    <glyph glyph-name="ldot" unicode="&#x140;" horiz-adv-x="272" 
d="M72 729h40v-729h-40v729zM189 365c0 11.333 3.66699 20.666 11 27.999s16.666 11 27.999 11s20.666 -3.66699 27.999 -11s11 -16.666 11 -27.999s-3.66699 -20.666 -11 -27.999s-16.666 -11 -27.999 -11s-20.666 3.66699 -27.999 11s-11 16.666 -11 27.999z" />
    <glyph glyph-name="Lslash" unicode="&#x141;" horiz-adv-x="334" 
d="M90 667h44v-281l100 64v-44l-100 -64v-302h186v-40h-230v318l-90 -58v44l90 58v305z" />
    <glyph glyph-name="lslash" unicode="&#x142;" horiz-adv-x="184" 
d="M72 729h40v-249l72 56v-44l-72 -56v-436h-40v412l-72 -56v44l72 56v273z" />
    <glyph glyph-name="Nacute" unicode="&#x143;" horiz-adv-x="784" 
d="M134 0h-44v674l560 -586v579h44v-684l-560 586v-569zM458 854l50 -25l-134 -126l-32 18z" />
    <glyph glyph-name="nacute" unicode="&#x144;" horiz-adv-x="442" 
d="M72 0l-0.00195312 407.999h40v-64c27.333 48.667 69 73 125 73c50.667 0 88.334 -19 113.001 -57c13.333 -21.333 20 -55.666 20 -102.999v-257h-40v257c0 38 -5.33301 65.333 -16 82c-16 26.667 -42.667 40 -80 40c-45.333 0 -78.666 -19 -99.999 -57
c-14.667 -26 -22 -62.667 -22 -110v-212h-40zM275.998 619.999l43 -25l-105 -128l-30 16z" />
    <glyph glyph-name="Ncommaaccent" unicode="&#x145;" horiz-adv-x="784" 
d="M134 0h-44v674l560 -586v579h44v-684l-560 586v-569zM335 -190l46 140l44 -14l-62 -136z" />
    <glyph glyph-name="ncommaaccent" unicode="&#x146;" horiz-adv-x="442" 
d="M72 0l-0.00195312 407.999h40v-64c27.333 48.667 69 73 125 73c50.667 0 88.334 -19 113.001 -57c13.333 -21.333 20 -55.666 20 -102.999v-257h-40v257c0 38 -5.33301 65.333 -16 82c-16 26.667 -42.667 40 -80 40c-45.333 0 -78.666 -19 -99.999 -57
c-14.667 -26 -22 -62.667 -22 -110v-212h-40zM162.998 -190.001l46 140l44 -14l-62 -136z" />
    <glyph glyph-name="Ncaron" unicode="&#x147;" horiz-adv-x="784" 
d="M134 0h-44v674l560 -586v579h44v-684l-560 586v-569zM392 775l96 64l34 -27l-130 -90l-130 90l34 27z" />
    <glyph glyph-name="ncaron" unicode="&#x148;" horiz-adv-x="442" 
d="M72 0l-0.00195312 407.999h40v-64c27.333 48.667 69 73 125 73c50.667 0 88.334 -19 113.001 -57c13.333 -21.333 20 -55.666 20 -102.999v-257h-40v257c0 38 -5.33301 65.333 -16 82c-16 26.667 -42.667 40 -80 40c-45.333 0 -78.666 -19 -99.999 -57
c-14.667 -26 -22 -62.667 -22 -110v-212h-40zM239.998 516.999l90 68l32 -26l-122 -94l-122 94l32 26z" />
    <glyph glyph-name="Omacron" unicode="&#x14c;" horiz-adv-x="800" 
d="M400 676c97.333 0 179.333 -33.333 246 -100s100 -148 100 -244s-33.333 -177.167 -100 -243.5s-148.667 -99.5 -246 -99.5c-98 0 -180.167 33.167 -246.5 99.5s-99.5 147.5 -99.5 243.5s33.333 177.333 100 244s148.667 100 246 100zM400 29
c85.333 0 156.666 29.167 213.999 87.5s86 130.166 86 215.499c0 86 -28.667 158.167 -86 216.5s-128.666 87.5 -213.999 87.5s-156.666 -29.167 -213.999 -87.5s-86 -130.5 -86 -216.5c0 -85.333 28.667 -157.166 86 -215.499s128.666 -87.5 213.999 -87.5zM265 750v44h270
v-44h-270z" />
    <glyph glyph-name="omacron" unicode="&#x14d;" horiz-adv-x="520" 
d="M260 417c60.667 0 111.5 -20.5 152.5 -61.5s61.5 -91.833 61.5 -152.5s-20.5 -111.5 -61.5 -152.5s-91.833 -61.5 -152.5 -61.5s-111.5 20.5 -152.5 61.5s-61.5 91.833 -61.5 152.5s20.5 111.5 61.5 152.5s91.833 61.5 152.5 61.5zM260 27c48.667 0 89.5 17 122.5 51
s49.5 75.667 49.5 125s-16.5 91 -49.5 125s-73.833 51 -122.5 51s-89.5 -17 -122.5 -51s-49.5 -75.667 -49.5 -125s16.5 -91 49.5 -125s73.833 -51 122.5 -51zM125 493v39h270v-39h-270z" />
    <glyph glyph-name="Obreve" unicode="&#x14e;" horiz-adv-x="800" 
d="M400 676c97.333 0 179.333 -33.333 246 -100s100 -148 100 -244s-33.333 -177.167 -100 -243.5s-148.667 -99.5 -246 -99.5c-98 0 -180.167 33.167 -246.5 99.5s-99.5 147.5 -99.5 243.5s33.333 177.333 100 244s148.667 100 246 100zM400 29
c85.333 0 156.666 29.167 213.999 87.5s86 130.166 86 215.499c0 86 -28.667 158.167 -86 216.5s-128.666 87.5 -213.999 87.5s-156.666 -29.167 -213.999 -87.5s-86 -130.5 -86 -216.5c0 -85.333 28.667 -157.166 86 -215.499s128.666 -87.5 213.999 -87.5zM273 826h40.002
c4 -13.333 12 -24.666 24 -33.999c16 -12 37 -18 63 -18s47 6 63 18c12 9.33301 20 20.666 24 33.999h40c-2.66699 -22 -12.334 -41.333 -29.001 -58c-24 -24 -56.667 -36 -98 -36s-74 12 -98 36c-16.667 16.667 -26.334 36 -29.001 58z" />
    <glyph glyph-name="obreve" unicode="&#x14f;" horiz-adv-x="520" 
d="M260 417c60.667 0 111.5 -20.5 152.5 -61.5s61.5 -91.833 61.5 -152.5s-20.5 -111.5 -61.5 -152.5s-91.833 -61.5 -152.5 -61.5s-111.5 20.5 -152.5 61.5s-61.5 91.833 -61.5 152.5s20.5 111.5 61.5 152.5s91.833 61.5 152.5 61.5zM260 27c48.667 0 89.5 17 122.5 51
s49.5 75.667 49.5 125s-16.5 91 -49.5 125s-73.833 51 -122.5 51s-89.5 -17 -122.5 -51s-49.5 -75.667 -49.5 -125s16.5 -91 49.5 -125s73.833 -51 122.5 -51zM135 573h38.0039c3.33301 -14.667 11.666 -27 24.999 -37c17.333 -12.667 38 -19 62 -19s44.667 6.33301 62 19
c13.333 10 21.666 22.333 24.999 37h38c-2.66699 -22 -12.334 -41.333 -29.001 -58c-24 -24 -56 -36 -96 -36s-72 12 -96 36c-16.667 16.667 -26.334 36 -29.001 58z" />
    <glyph glyph-name="Ohungarumlaut" unicode="&#x150;" horiz-adv-x="800" 
d="M400 676c97.333 0 179.333 -33.333 246 -100s100 -148 100 -244s-33.333 -177.167 -100 -243.5s-148.667 -99.5 -246 -99.5c-98 0 -180.167 33.167 -246.5 99.5s-99.5 147.5 -99.5 243.5s33.333 177.333 100 244s148.667 100 246 100zM400 29
c85.333 0 156.666 29.167 213.999 87.5s86 130.166 86 215.499c0 86 -28.667 158.167 -86 216.5s-128.666 87.5 -213.999 87.5s-156.666 -29.167 -213.999 -87.5s-86 -130.5 -86 -216.5c0 -85.333 28.667 -157.166 86 -215.499s128.666 -87.5 213.999 -87.5zM390 854l52 -26
l-100 -125l-36 15zM511 854l52 -26l-100 -125l-36 15z" />
    <glyph glyph-name="ohungarumlaut" unicode="&#x151;" horiz-adv-x="520" 
d="M260 417c60.667 0 111.5 -20.5 152.5 -61.5s61.5 -91.833 61.5 -152.5s-20.5 -111.5 -61.5 -152.5s-91.833 -61.5 -152.5 -61.5s-111.5 20.5 -152.5 61.5s-61.5 91.833 -61.5 152.5s20.5 111.5 61.5 152.5s91.833 61.5 152.5 61.5zM260 27c48.667 0 89.5 17 122.5 51
s49.5 75.667 49.5 125s-16.5 91 -49.5 125s-73.833 51 -122.5 51s-89.5 -17 -122.5 -51s-49.5 -75.667 -49.5 -125s16.5 -91 49.5 -125s73.833 -51 122.5 -51zM259 620l42 -25l-99 -128l-27 16zM370 620l42 -25l-99 -128l-27 16z" />
    <glyph glyph-name="OE" unicode="&#x152;" horiz-adv-x="1072" 
d="M1018 667l-0.000976562 -40h-275v-242h268v-40h-268v-305h275v-40h-319v171c-30 -56.667 -71.333 -101.167 -124 -133.5s-110.667 -48.5 -174 -48.5c-95.333 0 -177.166 33.667 -245.499 101s-102.5 148 -102.5 242c0 95.333 33.833 176.5 101.5 243.5
s149.5 100.5 245.5 100.5c64 0 122.167 -16 174.5 -48s93.833 -77 124.5 -135v174h319zM400.999 636c-83.333 0 -154.5 -29.666 -213.5 -88.999s-88.5 -131 -88.5 -215c0 -82.667 29.5 -153.834 88.5 -213.501s129.5 -89.5 211.5 -89.5s152.5 29.833 211.5 89.5
s88.5 130.834 88.5 213.501c0 34 -6.5 68.333 -19.5 103s-31.333 67.167 -55 97.5s-55.167 55.166 -94.5 74.499s-82.333 29 -129 29z" />
    <glyph glyph-name="oe" unicode="&#x153;" horiz-adv-x="869" 
d="M823 201l-349.001 -0.000976562c0 -51.333 15.333 -93.166 46 -125.499s69 -48.5 115 -48.5c33.333 0 62.166 8.66699 86.499 26s42.833 40 55.5 68l33 -20c-4.66699 -10 -10.5 -19.833 -17.5 -29.5s-17.667 -21.5 -32 -35.5s-32.666 -25.333 -54.999 -34
s-47.166 -13 -74.499 -13c-10.667 0 -21.667 1 -33 3s-26.833 6.33301 -46.5 13s-38.5 19 -56.5 37s-32.667 40.667 -44 68c-14 -26.667 -28.333 -46.667 -43 -60c-40.667 -40.667 -90.334 -61 -149.001 -61s-108.834 20.833 -150.501 62.5s-62.5 91.834 -62.5 150.501
c0 59.333 20.833 110 62.5 152s92.167 63 151.5 63c54.667 0 103.334 -19 146.001 -57c16 -14.667 31 -35.667 45 -63c14.667 37.333 37.667 66.666 69 87.999s67.333 32 108 32c56.667 0 103.334 -20 140.001 -60s55 -92 55 -156zM476.999 238.999h304
c-6 43.333 -23.167 77.5 -51.5 102.5s-61.833 37.5 -100.5 37.5s-72 -12.5 -100 -37.5s-45.333 -59.167 -52 -102.5zM258.999 378.999c-48 0 -88.501 -17 -121.501 -51s-49.5 -75.667 -49.5 -125s16.333 -91 49 -125s73 -51 121 -51c48.667 0 89.834 16.667 123.501 50
s50.5 74.333 50.5 123c0 50.667 -16.667 93.167 -50 127.5s-74.333 51.5 -123 51.5z" />
    <glyph glyph-name="Racute" unicode="&#x154;" horiz-adv-x="468" 
d="M420 0h-50.001l-216 315h-20v-315h-44v667h96c60.667 0 107.667 -11.333 141 -34c46 -32 69 -79.667 69 -143c0 -36.667 -9 -69.5 -27 -98.5s-46.333 -50.167 -85 -63.5c-25.333 -8.66699 -52.666 -13 -81.999 -13zM133.999 627v-272h64c47.333 0 84.5 12 111.5 36
s40.5 57.333 40.5 100c0 56 -19.667 94.667 -59 116c-23.333 13.333 -57.333 20 -102 20h-55zM299.999 854l50 -25l-134 -126l-32 18z" />
    <glyph glyph-name="racute" unicode="&#x155;" horiz-adv-x="260" 
d="M72 0l-0.00292969 408h40v-53c18 41.333 48 62 90 62c16 0 30.333 -3.33301 43 -10l-20 -36c-7.33301 5.33301 -17.333 8 -30 8c-19.333 0 -35.166 -5.5 -47.499 -16.5s-20.666 -26.333 -24.999 -46s-7.16602 -36.167 -8.49902 -49.5s-2 -29.333 -2 -48v-219h-40z
M204.997 620l43 -25l-105 -128l-30 16z" />
    <glyph glyph-name="Rcommaaccent" unicode="&#x156;" horiz-adv-x="468" 
d="M420 0h-50.001l-216 315h-20v-315h-44v667h96c60.667 0 107.667 -11.333 141 -34c46 -32 69 -79.667 69 -143c0 -36.667 -9 -69.5 -27 -98.5s-46.333 -50.167 -85 -63.5c-25.333 -8.66699 -52.666 -13 -81.999 -13zM133.999 627v-272h64c47.333 0 84.5 12 111.5 36
s40.5 57.333 40.5 100c0 56 -19.667 94.667 -59 116c-23.333 13.333 -57.333 20 -102 20h-55zM176.999 -190l46 140l44 -14l-62 -136z" />
    <glyph glyph-name="rcommaaccent" unicode="&#x157;" horiz-adv-x="260" 
d="M72 0l-0.00292969 408h40v-53c18 41.333 48 62 90 62c16 0 30.333 -3.33301 43 -10l-20 -36c-7.33301 5.33301 -17.333 8 -30 8c-19.333 0 -35.166 -5.5 -47.499 -16.5s-20.666 -26.333 -24.999 -46s-7.16602 -36.167 -8.49902 -49.5s-2 -29.333 -2 -48v-219h-40z
M71.9971 -190l46 140l44 -14l-62 -136z" />
    <glyph glyph-name="Rcaron" unicode="&#x158;" horiz-adv-x="468" 
d="M420 0h-50.001l-216 315h-20v-315h-44v667h96c60.667 0 107.667 -11.333 141 -34c46 -32 69 -79.667 69 -143c0 -36.667 -9 -69.5 -27 -98.5s-46.333 -50.167 -85 -63.5c-25.333 -8.66699 -52.666 -13 -81.999 -13zM133.999 627v-272h64c47.333 0 84.5 12 111.5 36
s40.5 57.333 40.5 100c0 56 -19.667 94.667 -59 116c-23.333 13.333 -57.333 20 -102 20h-55zM209.999 775l96 64l34 -27l-130 -90l-130 90l34 27z" />
    <glyph glyph-name="rcaron" unicode="&#x159;" horiz-adv-x="260" 
d="M72 0l-0.00292969 408h40v-53c18 41.333 48 62 90 62c16 0 30.333 -3.33301 43 -10l-20 -36c-7.33301 5.33301 -17.333 8 -30 8c-19.333 0 -35.166 -5.5 -47.499 -16.5s-20.666 -26.333 -24.999 -46s-7.16602 -36.167 -8.49902 -49.5s-2 -29.333 -2 -48v-219h-40z
M149.997 517l90 68l32 -26l-122 -94l-122 94l32 26z" />
    <glyph glyph-name="Sacute" unicode="&#x15a;" horiz-adv-x="514" 
d="M426 581l-32.001 -26.9961c-28 54.667 -71.667 82 -131 82c-38 0 -68.167 -12 -90.5 -36s-33.5 -53.333 -33.5 -88c0 -17.333 2.5 -32.333 7.5 -45s14 -24.334 27 -35.001s24.5 -18.834 34.5 -24.501s26 -13.834 48 -24.501c72 -34.667 116.333 -58 133 -70
c47.333 -32.667 71 -75.667 71 -129c0 -55.333 -20.333 -101.666 -61 -138.999s-89.667 -56 -147 -56c-63.333 0 -115 23.333 -155 70c-19.333 22.667 -33.666 47 -42.999 73l38 18c8 -24 20 -45.333 36 -64c30 -38 71.667 -57 125 -57c45.333 0 83.5 14.667 114.5 44
s46.5 66 46.5 110c0 43.333 -21.667 78.333 -65 105c-19.333 11.333 -57 30.666 -113 57.999c-36.667 18 -63.5 32.667 -80.5 44s-30.833 26 -41.5 44c-14 23.333 -21 48.666 -21 75.999c0 43.333 14.667 81.833 44 115.5s71.666 50.5 126.999 50.5
c34 0 65.333 -8.16699 94 -24.5s51.334 -39.833 68.001 -70.5zM335.999 854.004l50 -25l-134 -126l-32 18z" />
    <glyph glyph-name="sacute" unicode="&#x15b;" horiz-adv-x="334" 
d="M280 351l-34 -18c-13.333 30.667 -37 46 -71 46c-21.333 0 -38.166 -6.66699 -50.499 -20s-18.5 -28.333 -18.5 -45c0 -12.667 3.66699 -23.5 11 -32.5s15 -15.667 23 -20s20.667 -9.83301 38 -16.5c2.66699 -0.666992 9.16699 -3.16699 19.5 -7.5l20.5 -8.5
c3.33301 -1.33301 9.16602 -3.83301 17.499 -7.5s14.5 -7 18.5 -10s8.83301 -6.83301 14.5 -11.5s10.5 -9.66699 14.5 -15c14 -17.333 21 -39.333 21 -66c0 -43.333 -13.167 -75.833 -39.5 -97.5s-57.5 -32.5 -93.5 -32.5c-34.667 0 -64.667 9.66699 -90 29
s-42.333 45.666 -51 78.999l39 12c6.66699 -26 19.5 -46.167 38.5 -60.5s40.167 -21.5 63.5 -21.5c26 0 47.667 8.5 65 25.5s26 38.5 26 64.5c0 21.333 -6.66699 37.833 -20 49.5s-37 24.5 -71 38.5c-46.667 19.333 -76.334 37.333 -89.001 54c-12 16 -18 33.667 -18 53
c0 30.667 10.333 55.834 31 75.501s46.667 29.5 78 29.5c52.667 0 88.334 -22 107.001 -66zM237 620l43 -25l-105 -128l-30 16z" />
    <glyph glyph-name="Scircumflex" unicode="&#x15c;" horiz-adv-x="514" 
d="M426 581l-32.001 -26.9961c-28 54.667 -71.667 82 -131 82c-38 0 -68.167 -12 -90.5 -36s-33.5 -53.333 -33.5 -88c0 -17.333 2.5 -32.333 7.5 -45s14 -24.334 27 -35.001s24.5 -18.834 34.5 -24.501s26 -13.834 48 -24.501c72 -34.667 116.333 -58 133 -70
c47.333 -32.667 71 -75.667 71 -129c0 -55.333 -20.333 -101.666 -61 -138.999s-89.667 -56 -147 -56c-63.333 0 -115 23.333 -155 70c-19.333 22.667 -33.666 47 -42.999 73l38 18c8 -24 20 -45.333 36 -64c30 -38 71.667 -57 125 -57c45.333 0 83.5 14.667 114.5 44
s46.5 66 46.5 110c0 43.333 -21.667 78.333 -65 105c-19.333 11.333 -57 30.666 -113 57.999c-36.667 18 -63.5 32.667 -80.5 44s-30.833 26 -41.5 44c-14 23.333 -21 48.666 -21 75.999c0 43.333 14.667 81.833 44 115.5s71.666 50.5 126.999 50.5
c34 0 65.333 -8.16699 94 -24.5s51.334 -39.833 68.001 -70.5zM269.999 786.004l-96 -64l-34 27l130 90l130 -90l-34 -27z" />
    <glyph glyph-name="scircumflex" unicode="&#x15d;" horiz-adv-x="334" 
d="M280 351l-34 -18c-13.333 30.667 -37 46 -71 46c-21.333 0 -38.166 -6.66699 -50.499 -20s-18.5 -28.333 -18.5 -45c0 -12.667 3.66699 -23.5 11 -32.5s15 -15.667 23 -20s20.667 -9.83301 38 -16.5c2.66699 -0.666992 9.16699 -3.16699 19.5 -7.5l20.5 -8.5
c3.33301 -1.33301 9.16602 -3.83301 17.499 -7.5s14.5 -7 18.5 -10s8.83301 -6.83301 14.5 -11.5s10.5 -9.66699 14.5 -15c14 -17.333 21 -39.333 21 -66c0 -43.333 -13.167 -75.833 -39.5 -97.5s-57.5 -32.5 -93.5 -32.5c-34.667 0 -64.667 9.66699 -90 29
s-42.333 45.666 -51 78.999l39 12c6.66699 -26 19.5 -46.167 38.5 -60.5s40.167 -21.5 63.5 -21.5c26 0 47.667 8.5 65 25.5s26 38.5 26 64.5c0 21.333 -6.66699 37.833 -20 49.5s-37 24.5 -71 38.5c-46.667 19.333 -76.334 37.333 -89.001 54c-12 16 -18 33.667 -18 53
c0 30.667 10.333 55.834 31 75.501s46.667 29.5 78 29.5c52.667 0 88.334 -22 107.001 -66zM176 535l-90 -68l-32 25l122 94l122 -94l-32 -25z" />
    <glyph glyph-name="Scedilla" unicode="&#x15e;" horiz-adv-x="514" 
d="M426 581l-32.001 -26.9961c-28 54.667 -71.667 82 -131 82c-38 0 -68.167 -12 -90.5 -36s-33.5 -53.333 -33.5 -88c0 -17.333 2.5 -32.333 7.5 -45s14 -24.334 27 -35.001s24.5 -18.834 34.5 -24.501s26 -13.834 48 -24.501c72 -34.667 116.333 -58 133 -70
c47.333 -32.667 71 -75.667 71 -129c0 -55.333 -20.333 -101.666 -61 -138.999s-89.667 -56 -147 -56c-63.333 0 -115 23.333 -155 70c-19.333 22.667 -33.666 47 -42.999 73l38 18c8 -24 20 -45.333 36 -64c30 -38 71.667 -57 125 -57c45.333 0 83.5 14.667 114.5 44
s46.5 66 46.5 110c0 43.333 -21.667 78.333 -65 105c-19.333 11.333 -57 30.666 -113 57.999c-36.667 18 -63.5 32.667 -80.5 44s-30.833 26 -41.5 44c-14 23.333 -21 48.666 -21 75.999c0 43.333 14.667 81.833 44 115.5s71.666 50.5 126.999 50.5
c34 0 65.333 -8.16699 94 -24.5s51.334 -39.833 68.001 -70.5zM249.999 -49.9961l46 -26l-108 -126l-30 18z" />
    <glyph glyph-name="scedilla" unicode="&#x15f;" horiz-adv-x="334" 
d="M280 351l-34 -18c-13.333 30.667 -37 46 -71 46c-21.333 0 -38.166 -6.66699 -50.499 -20s-18.5 -28.333 -18.5 -45c0 -12.667 3.66699 -23.5 11 -32.5s15 -15.667 23 -20s20.667 -9.83301 38 -16.5c2.66699 -0.666992 9.16699 -3.16699 19.5 -7.5l20.5 -8.5
c3.33301 -1.33301 9.16602 -3.83301 17.499 -7.5s14.5 -7 18.5 -10s8.83301 -6.83301 14.5 -11.5s10.5 -9.66699 14.5 -15c14 -17.333 21 -39.333 21 -66c0 -43.333 -13.167 -75.833 -39.5 -97.5s-57.5 -32.5 -93.5 -32.5c-34.667 0 -64.667 9.66699 -90 29
s-42.333 45.666 -51 78.999l39 12c6.66699 -26 19.5 -46.167 38.5 -60.5s40.167 -21.5 63.5 -21.5c26 0 47.667 8.5 65 25.5s26 38.5 26 64.5c0 21.333 -6.66699 37.833 -20 49.5s-37 24.5 -71 38.5c-46.667 19.333 -76.334 37.333 -89.001 54c-12 16 -18 33.667 -18 53
c0 30.667 10.333 55.834 31 75.501s46.667 29.5 78 29.5c52.667 0 88.334 -22 107.001 -66zM170 -50l46 -20l-100 -124l-28 16z" />
    <glyph glyph-name="Scaron" unicode="&#x160;" horiz-adv-x="514" 
d="M426 581l-32.001 -26.9961c-28 54.667 -71.667 82 -131 82c-38 0 -68.167 -12 -90.5 -36s-33.5 -53.333 -33.5 -88c0 -17.333 2.5 -32.333 7.5 -45s14 -24.334 27 -35.001s24.5 -18.834 34.5 -24.501s26 -13.834 48 -24.501c72 -34.667 116.333 -58 133 -70
c47.333 -32.667 71 -75.667 71 -129c0 -55.333 -20.333 -101.666 -61 -138.999s-89.667 -56 -147 -56c-63.333 0 -115 23.333 -155 70c-19.333 22.667 -33.666 47 -42.999 73l38 18c8 -24 20 -45.333 36 -64c30 -38 71.667 -57 125 -57c45.333 0 83.5 14.667 114.5 44
s46.5 66 46.5 110c0 43.333 -21.667 78.333 -65 105c-19.333 11.333 -57 30.666 -113 57.999c-36.667 18 -63.5 32.667 -80.5 44s-30.833 26 -41.5 44c-14 23.333 -21 48.666 -21 75.999c0 43.333 14.667 81.833 44 115.5s71.666 50.5 126.999 50.5
c34 0 65.333 -8.16699 94 -24.5s51.334 -39.833 68.001 -70.5zM261.999 775.004l96 64l34 -27l-130 -90l-130 90l34 27z" />
    <glyph glyph-name="scaron" unicode="&#x161;" horiz-adv-x="334" 
d="M280 351l-34 -18c-13.333 30.667 -37 46 -71 46c-21.333 0 -38.166 -6.66699 -50.499 -20s-18.5 -28.333 -18.5 -45c0 -12.667 3.66699 -23.5 11 -32.5s15 -15.667 23 -20s20.667 -9.83301 38 -16.5c2.66699 -0.666992 9.16699 -3.16699 19.5 -7.5l20.5 -8.5
c3.33301 -1.33301 9.16602 -3.83301 17.499 -7.5s14.5 -7 18.5 -10s8.83301 -6.83301 14.5 -11.5s10.5 -9.66699 14.5 -15c14 -17.333 21 -39.333 21 -66c0 -43.333 -13.167 -75.833 -39.5 -97.5s-57.5 -32.5 -93.5 -32.5c-34.667 0 -64.667 9.66699 -90 29
s-42.333 45.666 -51 78.999l39 12c6.66699 -26 19.5 -46.167 38.5 -60.5s40.167 -21.5 63.5 -21.5c26 0 47.667 8.5 65 25.5s26 38.5 26 64.5c0 21.333 -6.66699 37.833 -20 49.5s-37 24.5 -71 38.5c-46.667 19.333 -76.334 37.333 -89.001 54c-12 16 -18 33.667 -18 53
c0 30.667 10.333 55.834 31 75.501s46.667 29.5 78 29.5c52.667 0 88.334 -22 107.001 -66zM174 517l90 68l32 -26l-122 -94l-122 94l32 26z" />
    <glyph glyph-name="Tcedilla" unicode="&#x162;" horiz-adv-x="418" 
d="M404 627h-173v-627h-44v627h-173v40h390v-40zM210 -50l46 -26l-108 -126l-30 18z" />
    <glyph glyph-name="tcedilla" unicode="&#x163;" horiz-adv-x="194" 
d="M186 370h-71v-370h-40v370h-45v38h45v146h40v-146h71v-38zM88 -50l46 -20l-100 -124l-28 16z" />
    <glyph glyph-name="Tcaron" unicode="&#x164;" horiz-adv-x="418" 
d="M404 627h-173v-627h-44v627h-173v40h390v-40zM209 775l96 64l34 -27l-130 -90l-130 90l34 27z" />
    <glyph glyph-name="tcaron" unicode="&#x165;" horiz-adv-x="206" 
d="M186 370h-71v-370h-40v370h-45v38h45v146h40v-146h71v-38zM146 520l46 160l44 -14l-62 -156z" />
    <glyph glyph-name="Utilde" unicode="&#x168;" horiz-adv-x="634" 
d="M90 667h44v-417c0 -35.333 1.83301 -63.5 5.5 -84.5s11.167 -40.833 22.5 -59.5c17.333 -28 40.5 -47.833 69.5 -59.5s57.5 -17.5 85.5 -17.5s56.5 5.83301 85.5 17.5s52.167 31.5 69.5 59.5c11.333 18.667 18.833 38.5 22.5 59.5s5.5 49.167 5.5 84.5v417h44v-417
c0 -41.333 -2.33301 -74.333 -7 -99s-15 -48.667 -31 -72c-41.333 -60 -104.333 -90 -189 -90s-147.667 30 -189 90c-16 23.333 -26.333 47.333 -31 72s-7 57.667 -7 99v417zM216 717l-29.001 21.998c7.33301 16.667 15 29.334 23 38.001c13.333 14.667 28.333 22 45 22
c14.667 0 36 -5.66699 64 -17c31.333 -12 51 -18 59 -18c8.66699 0 17 4 25 12c7.33301 8.66699 12.333 17.334 15 26.001l29 -22c-6 -18 -15.333 -32.333 -28 -43c-12.667 -11.333 -28 -17 -46 -17c-12 0 -31.333 5.66699 -58 17c-28.667 12 -48 18 -58 18
c-11.333 0 -20.666 -4.66699 -27.999 -14c-4 -4.66699 -8.33301 -12.667 -13 -24z" />
    <glyph glyph-name="utilde" unicode="&#x169;" horiz-adv-x="438" 
d="M72 408h40v-246c0 -47.333 8.66699 -81.333 26 -102c18.667 -22 45.667 -33 81 -33s62.333 11 81 33c17.333 20.667 26 54.667 26 102v246h40v-257c0 -48 -10.333 -85.333 -31 -112c-26 -33.333 -64.667 -50 -116 -50s-90 16.667 -116 50c-20.667 26.667 -31 64 -31 112
v257zM118 487l-26.001 18.999c6 16.667 13.667 29.334 23 38.001c12.667 12.667 28 19 46 19c14.667 0 38.667 -7.33301 72 -22c20.667 -8.66699 36.334 -13 47.001 -13s19.667 4 27 12c9.33301 12 14 20.333 14 25l25 -20c-6 -16 -14.667 -29.333 -26 -40
c-13.333 -11.333 -28.333 -17 -45 -17c-12 0 -31.333 5.66699 -58 17c-28.667 12 -48.334 18 -59.001 18c-11.333 0 -20.666 -4 -27.999 -12c-6 -6.66699 -10 -14.667 -12 -24z" />
    <glyph glyph-name="Umacron" unicode="&#x16a;" horiz-adv-x="634" 
d="M90 667h44v-417c0 -35.333 1.83301 -63.5 5.5 -84.5s11.167 -40.833 22.5 -59.5c17.333 -28 40.5 -47.833 69.5 -59.5s57.5 -17.5 85.5 -17.5s56.5 5.83301 85.5 17.5s52.167 31.5 69.5 59.5c11.333 18.667 18.833 38.5 22.5 59.5s5.5 49.167 5.5 84.5v417h44v-417
c0 -41.333 -2.33301 -74.333 -7 -99s-15 -48.667 -31 -72c-41.333 -60 -104.333 -90 -189 -90s-147.667 30 -189 90c-16 23.333 -26.333 47.333 -31 72s-7 57.667 -7 99v417zM182 750v44h270v-44h-270z" />
    <glyph glyph-name="umacron" unicode="&#x16b;" horiz-adv-x="438" 
d="M72 408h40v-246c0 -47.333 8.66699 -81.333 26 -102c18.667 -22 45.667 -33 81 -33s62.333 11 81 33c17.333 20.667 26 54.667 26 102v246h40v-257c0 -48 -10.333 -85.333 -31 -112c-26 -33.333 -64.667 -50 -116 -50s-90 16.667 -116 50c-20.667 26.667 -31 64 -31 112
v257zM84 493v39h270v-39h-270z" />
    <glyph glyph-name="Ubreve" unicode="&#x16c;" horiz-adv-x="634" 
d="M90 667h44v-417c0 -35.333 1.83301 -63.5 5.5 -84.5s11.167 -40.833 22.5 -59.5c17.333 -28 40.5 -47.833 69.5 -59.5s57.5 -17.5 85.5 -17.5s56.5 5.83301 85.5 17.5s52.167 31.5 69.5 59.5c11.333 18.667 18.833 38.5 22.5 59.5s5.5 49.167 5.5 84.5v417h44v-417
c0 -41.333 -2.33301 -74.333 -7 -99s-15 -48.667 -31 -72c-41.333 -60 -104.333 -90 -189 -90s-147.667 30 -189 90c-16 23.333 -26.333 47.333 -31 72s-7 57.667 -7 99v417zM190 826h40.002c4 -13.333 12 -24.666 24 -33.999c16 -12 37 -18 63 -18s47 6 63 18
c12 9.33301 20 20.666 24 33.999h40c-2.66699 -22 -12.334 -41.333 -29.001 -58c-24 -24 -56.667 -36 -98 -36s-74 12 -98 36c-16.667 16.667 -26.334 36 -29.001 58z" />
    <glyph glyph-name="ubreve" unicode="&#x16d;" horiz-adv-x="438" 
d="M72 408h40v-246c0 -47.333 8.66699 -81.333 26 -102c18.667 -22 45.667 -33 81 -33s62.333 11 81 33c17.333 20.667 26 54.667 26 102v246h40v-257c0 -48 -10.333 -85.333 -31 -112c-26 -33.333 -64.667 -50 -116 -50s-90 16.667 -116 50c-20.667 26.667 -31 64 -31 112
v257zM94 573h38.0039c3.33301 -14.667 11.666 -27 24.999 -37c17.333 -12.667 38 -19 62 -19s44.667 6.33301 62 19c13.333 10 21.666 22.333 24.999 37h38c-2.66699 -22 -12.334 -41.333 -29.001 -58c-24 -24 -56 -36 -96 -36s-72 12 -96 36
c-16.667 16.667 -26.334 36 -29.001 58z" />
    <glyph glyph-name="Uring" unicode="&#x16e;" horiz-adv-x="634" 
d="M90 667h44v-417c0 -35.333 1.83301 -63.5 5.5 -84.5s11.167 -40.833 22.5 -59.5c17.333 -28 40.5 -47.833 69.5 -59.5s57.5 -17.5 85.5 -17.5s56.5 5.83301 85.5 17.5s52.167 31.5 69.5 59.5c11.333 18.667 18.833 38.5 22.5 59.5s5.5 49.167 5.5 84.5v417h44v-417
c0 -41.333 -2.33301 -74.333 -7 -99s-15 -48.667 -31 -72c-41.333 -60 -104.333 -90 -189 -90s-147.667 30 -189 90c-16 23.333 -26.333 47.333 -31 72s-7 57.667 -7 99v417zM237 787c0 22 7.83301 40.833 23.5 56.5s34.5 23.5 56.5 23.5s40.833 -7.83301 56.5 -23.5
s23.5 -34.5 23.5 -56.5s-7.83301 -40.833 -23.5 -56.5s-34.5 -23.5 -56.5 -23.5s-40.833 7.83301 -56.5 23.5s-23.5 34.5 -23.5 56.5zM276 787c0 -12 3.83301 -21.833 11.5 -29.5s17.5 -11.5 29.5 -11.5s21.833 3.83301 29.5 11.5s11.5 17.5 11.5 29.5
s-3.83301 21.833 -11.5 29.5s-17.5 11.5 -29.5 11.5s-21.833 -3.83301 -29.5 -11.5s-11.5 -17.5 -11.5 -29.5z" />
    <glyph glyph-name="uring" unicode="&#x16f;" horiz-adv-x="438" 
d="M72 408h40v-246c0 -47.333 8.66699 -81.333 26 -102c18.667 -22 45.667 -33 81 -33s62.333 11 81 33c17.333 20.667 26 54.667 26 102v246h40v-257c0 -48 -10.333 -85.333 -31 -112c-26 -33.333 -64.667 -50 -116 -50s-90 16.667 -116 50c-20.667 26.667 -31 64 -31 112
v257zM142 549c0 22 7.33301 40.333 22 55s33 22 55 22s40.333 -7.33301 55 -22s22 -33 22 -55s-7.33301 -40.333 -22 -55s-33 -22 -55 -22s-40.333 7.33301 -55 22s-22 33 -22 55zM178 549c0 -12 3.83301 -21.833 11.5 -29.5s17.5 -11.5 29.5 -11.5
s21.833 3.83301 29.5 11.5s11.5 17.5 11.5 29.5s-3.83301 21.833 -11.5 29.5s-17.5 11.5 -29.5 11.5s-21.833 -3.83301 -29.5 -11.5s-11.5 -17.5 -11.5 -29.5z" />
    <glyph glyph-name="Uhungarumlaut" unicode="&#x170;" horiz-adv-x="634" 
d="M90 667h44v-417c0 -35.333 1.83301 -63.5 5.5 -84.5s11.167 -40.833 22.5 -59.5c17.333 -28 40.5 -47.833 69.5 -59.5s57.5 -17.5 85.5 -17.5s56.5 5.83301 85.5 17.5s52.167 31.5 69.5 59.5c11.333 18.667 18.833 38.5 22.5 59.5s5.5 49.167 5.5 84.5v417h44v-417
c0 -41.333 -2.33301 -74.333 -7 -99s-15 -48.667 -31 -72c-41.333 -60 -104.333 -90 -189 -90s-147.667 30 -189 90c-16 23.333 -26.333 47.333 -31 72s-7 57.667 -7 99v417zM307 854l52 -26l-100 -125l-36 15zM428 854l52 -26l-100 -125l-36 15z" />
    <glyph glyph-name="uhungarumlaut" unicode="&#x171;" horiz-adv-x="438" 
d="M72 408h40v-246c0 -47.333 8.66699 -81.333 26 -102c18.667 -22 45.667 -33 81 -33s62.333 11 81 33c17.333 20.667 26 54.667 26 102v246h40v-257c0 -48 -10.333 -85.333 -31 -112c-26 -33.333 -64.667 -50 -116 -50s-90 16.667 -116 50c-20.667 26.667 -31 64 -31 112
v257zM218 620l42 -25l-99 -128l-27 16zM329 620l42 -25l-99 -128l-27 16z" />
    <glyph glyph-name="Uogonek" unicode="&#x172;" horiz-adv-x="634" 
d="M90 667l44.002 -0.000976562v-427c0 -36 3.16699 -67 9.5 -93s19.833 -49 40.5 -69c34 -32.667 78.333 -49 133 -49c56 0 101 17 135 51c14.667 14.667 25.667 32.834 33 54.501s11.666 40.167 12.999 55.5s2 35.333 2 60v417h44v-417c0 -41.333 -2.33301 -74.333 -7 -99
s-15 -48.667 -31 -72c-12 -18 -24.5 -31.833 -37.5 -41.5s-30.833 -20.834 -53.5 -33.501c-30.667 -16 -52 -31 -64 -45c-15.333 -17.333 -23 -36 -23 -56c0 -12.667 4 -23.667 12 -33c9.33301 -10.667 25.333 -16 48 -16c20 0 37.333 3 52 9l-9 -37
c-14.667 -5.33301 -29.667 -8 -45 -8c-32.667 0 -58.334 9 -77.001 27c-15.333 14.667 -23 33.334 -23 56.001c0 17.333 5.66699 35 17 53c8.66699 14 20 26 34 36c-42 0 -77.5 4.16699 -106.5 12.5s-55.5 24.5 -79.5 48.5c-24.667 24.667 -41 51.5 -49 80.5
s-12 65.167 -12 108.5v427z" />
    <glyph glyph-name="uogonek" unicode="&#x173;" horiz-adv-x="438" 
d="M72 408l39.999 -0.000976562v-246c0 -47.333 8.66699 -81.333 26 -102c18.667 -22 45.667 -33 81 -33s62.333 11 81 33c17.333 20.667 26 54.667 26 102v246h40v-257c0 -49.333 -10.333 -86.666 -31 -111.999c-10.667 -12.667 -28.667 -26.667 -54 -42
c-22.667 -14 -39.667 -28.667 -51 -44c-12.667 -16.667 -19 -33.334 -19 -50.001c0 -14 4 -25 12 -33c10.667 -10.667 26.667 -16 48 -16c18 0 35.333 3 52 9l-9 -36c-16 -5.33301 -31 -8 -45 -8c-31.333 0 -55.666 8.66699 -72.999 26c-15.333 15.333 -23 34 -23 56
c0 19.333 6.33301 38 19 56c8.66699 12.667 19 23.334 31 32.001c-54 0 -94 16.667 -120 50c-20.667 26.667 -31 64 -31 112v257z" />
    <glyph glyph-name="Ydieresis" unicode="&#x178;" horiz-adv-x="516" 
d="M233 0v285l-219 382h50l192 -337l196 337h50l-225 -382v-285h-44zM127 780c0 10.667 3.66699 19.667 11 27s16.333 11 27 11s19.667 -3.66699 27 -11s11 -16.333 11 -27s-3.66699 -19.667 -11 -27s-16.333 -11 -27 -11s-19.667 3.66699 -27 11s-11 16.333 -11 27z
M313 780c0 10.667 3.66699 19.667 11 27s16.333 11 27 11s19.667 -3.66699 27 -11s11 -16.333 11 -27s-3.66699 -19.667 -11 -27s-16.333 -11 -27 -11s-19.667 3.66699 -27 11s-11 16.333 -11 27z" />
    <glyph glyph-name="Zacute" unicode="&#x179;" horiz-adv-x="554" 
d="M517 667l-406 -627h395v-40h-469l406 627h-367v40h441zM356 854l50 -25l-134 -126l-32 18z" />
    <glyph glyph-name="zacute" unicode="&#x17a;" horiz-adv-x="452" 
d="M434 408l-330 -370h328v-38h-414l334 370h-282v38h364zM295 620l43 -25l-105 -128l-30 16z" />
    <glyph glyph-name="Zdotaccent" unicode="&#x17b;" horiz-adv-x="554" 
d="M517 667l-406 -627h395v-40h-469l406 627h-367v40h441zM249 781c0 12 3.83301 21.833 11.5 29.5s17.5 11.5 29.5 11.5s21.833 -3.83301 29.5 -11.5s11.5 -17.5 11.5 -29.5s-3.83301 -21.833 -11.5 -29.5s-17.5 -11.5 -29.5 -11.5s-21.833 3.83301 -29.5 11.5
s-11.5 17.5 -11.5 29.5z" />
    <glyph glyph-name="zdotaccent" unicode="&#x17c;" horiz-adv-x="452" 
d="M434 408l-330 -370h328v-38h-414l334 370h-282v38h364zM201 527c0 11.333 3.66699 20.666 11 27.999s16.666 11 27.999 11s20.666 -3.66699 27.999 -11s11 -16.666 11 -27.999s-3.66699 -20.666 -11 -27.999s-16.666 -11 -27.999 -11s-20.666 3.66699 -27.999 11
s-11 16.666 -11 27.999z" />
    <glyph glyph-name="Zcaron" unicode="&#x17d;" horiz-adv-x="554" 
d="M517 667l-406 -627h395v-40h-469l406 627h-367v40h441zM290 775l96 64l34 -27l-130 -90l-130 90l34 27z" />
    <glyph glyph-name="zcaron" unicode="&#x17e;" horiz-adv-x="452" 
d="M434 408l-330 -370h328v-38h-414l334 370h-282v38h364zM240 517l90 68l32 -26l-122 -94l-122 94l32 26z" />
    <glyph glyph-name="uni018F" unicode="&#x18f;" horiz-adv-x="773" 
d="M54 320h619v10c0 86 -28.667 158.5 -86 217.5s-129 88.5 -215 88.5c-72.667 0 -136.334 -23.333 -191.001 -70c-26.667 -22 -48 -46.667 -64 -74l-35 28c22.667 32 49.334 60 80.001 84c62.667 48 132.334 72 209.001 72c98 0 180.5 -32.833 247.5 -98.5
s100.5 -147.5 100.5 -245.5c0 -99.333 -32.833 -181.333 -98.5 -246s-147.834 -97 -246.501 -97c-108 0 -191.667 37.333 -251 112c-46 58 -69 131 -69 219zM669 280h-569c2.66699 -52 17 -98 43 -138c20 -30.667 50.5 -57.167 91.5 -79.5s87.833 -33.5 140.5 -33.5
c77.333 0 143 24.167 197 72.5s86.333 107.833 97 178.5z" />
    <glyph glyph-name="florin" unicode="&#x192;" horiz-adv-x="548" 
d="M184 370l7 37.999h62l45 235c6.66699 32.667 17.667 56.667 33 72c16.667 16.667 39.667 25 69 25c20 0 39.333 -4.66699 58 -14l-8 -36c-15.333 8 -30.666 12 -45.999 12c-20 0 -35.333 -5 -46 -15s-17.667 -24.667 -21 -44l-44 -235h101l-7 -38h-101l-72 -385
c-10.667 -59.333 -25.667 -98.666 -45 -117.999c-18 -18 -42.667 -27 -74 -27c-25.333 0 -48 4.66699 -68 14l8 37c19.333 -8.66699 38 -13 56 -13c21.333 0 37.666 5.66699 48.999 17c12 12 22.333 40 31 84l75 391h-62z" />
    <glyph glyph-name="uni01CF" unicode="&#x1cf;" horiz-adv-x="224" 
d="M90 667h44v-667h-44v667zM112 779l80 60l35 -28l-115 -89l-115 89l35 28z" />
    <glyph glyph-name="uni01D0" unicode="&#x1d0;" horiz-adv-x="184" 
d="M72 408h40v-408h-40v408zM92 523l70 60l30 -26l-100 -86l-100 86l30 26z" />
    <glyph glyph-name="uni01DD" unicode="&#x1dd;" horiz-adv-x="483" 
d="M46 207h349.001c0 53.333 -15.667 95.333 -47 126s-69.666 46 -114.999 46c-32 0 -60.333 -8.5 -85 -25.5s-43.667 -39.5 -57 -67.5l-34 20c15.333 29.333 37.666 55.166 66.999 77.499s66.666 33.5 111.999 33.5c62 0 111 -20.167 147 -60.5s54 -91.166 54 -152.499
c0 -67.333 -19.5 -120 -58.5 -158s-85.5 -57 -139.5 -57c-56 0 -102.167 19.833 -138.5 59.5s-54.5 92.5 -54.5 158.5zM392.001 169h-304c5.33301 -41.333 21.833 -75.333 49.5 -102s61.5 -40 101.5 -40c40.667 0 75 13.5 103 40.5s44.667 60.833 50 101.5z" />
    <glyph glyph-name="Gcaron" unicode="&#x1e6;" horiz-adv-x="772" 
d="M438 280l-0.000976562 39.999h280c0 -88 -22.667 -161 -68 -219c-58.667 -74.667 -142.334 -112 -251.001 -112c-98.667 0 -180.834 32.333 -246.501 97s-98.5 146.667 -98.5 246c0 98 33.5 179.833 100.5 245.5s149.5 98.5 247.5 98.5c76.667 0 146.334 -24 209.001 -72
c30.667 -24 57.334 -52 80.001 -84l-35 -28c-16 27.333 -37.333 52 -64 74c-56 46.667 -119.667 70 -191 70c-85.333 0 -156.833 -29.667 -214.5 -89s-86.5 -131.666 -86.5 -216.999c0 -84 28.333 -155.167 85 -213.5s127.667 -87.5 213 -87.5
c52.667 0 99.5 11.167 140.5 33.5s71.5 48.833 91.5 79.5c26.667 41.333 41.334 87.333 44.001 138h-236zM385.999 774.999l96 64l34 -27l-130 -90l-130 90l34 27z" />
    <glyph glyph-name="gcaron" unicode="&#x1e7;" horiz-adv-x="520" 
d="M408 408l40.002 -0.000976562v-396c0 -76.667 -18.167 -136.167 -54.5 -178.5s-86.5 -63.5 -150.5 -63.5c-55.333 0 -101.833 15.5 -139.5 46.5s-57.834 73.833 -60.501 128.5h42c3.33301 -42 19.5 -75.333 48.5 -100s65.5 -37 109.5 -37c30 0 56.167 6 78.5 18
s38.833 25.667 49.5 41s19 34 25 56s9.5 39 10.5 51s1.5 24.667 1.5 38v58c-38.667 -54 -92.334 -81 -161.001 -81c-54 0 -101 19 -141 57s-60 90.667 -60 158c0 60.667 18.667 111.334 56 152.001s87.333 61 150 61c66.667 0 118.667 -26.667 156 -80v71zM248.002 378.999
c-48.667 0 -87.499 -17.168 -116.499 -51.501s-43.5 -76.166 -43.5 -125.499c0 -50 14.5 -91.667 43.5 -125s67.167 -50 114.5 -50c49.333 0 89 17 119 51s45 76.667 45 128c0 48.667 -14.833 89.667 -44.5 123s-68.834 50 -117.501 50zM260.003 516.998l90 68l32 -26
l-122 -94l-122 94l32 26z" />
    <glyph glyph-name="AEacute" unicode="&#x1fc;" horiz-adv-x="852" 
d="M523 0l-89 219h-285l-87 -219h-48l269 667h289l17 -40h-275l99 -242h268l17 -40h-268l124 -305h273l18 -40h-322zM165 259h252l-127 314zM492 854l50 -25l-134 -126l-32 18z" />
    <glyph glyph-name="aeacute" unicode="&#x1fd;" horiz-adv-x="792" 
d="M747 198l-350.003 -0.000976562c0.666992 -50.667 16 -91.834 46 -123.501s67.333 -47.5 112 -47.5c62.667 0 111.667 30.667 147 92l34 -24c-45.333 -70.667 -106 -106 -182 -106c-77.333 0 -133.333 34 -168 102c-11.333 -33.333 -31.833 -58.666 -61.5 -75.999
s-65.5 -26 -107.5 -26c-54.667 0 -97 12.5 -127 37.5s-45 54.833 -45 89.5c0 32.667 14 62.334 42 89.001s73.667 40 137 40c55.333 0 99 -14 131 -42c0 117.333 -47.333 176 -142 176c-44.667 0 -91 -12.333 -139 -37v41c45.333 22.667 92.333 34 141 34
c38.667 0 72.334 -9.66699 101.001 -29s49.334 -47.666 62.001 -84.999c17.333 35.333 41.333 63.166 72 83.499s65 30.5 103 30.5c52.667 0 97.834 -19 135.501 -57s57.167 -92 58.5 -162zM401.997 235.999h302.999c-6 41.333 -23.167 75.5 -51.5 102.5
s-62.166 40.5 -101.499 40.5s-72.833 -13.667 -100.5 -41s-44.167 -61.333 -49.5 -102zM222.996 206.999c-44 0 -77.667 -8.66797 -101 -26.001s-35 -39 -35 -65c0 -25.333 11.167 -46.5 33.5 -63.5s54.5 -25.5 96.5 -25.5c46.667 0 80.834 9.5 102.501 28.5
s32.5 40.5 32.5 64.5c0 22.667 -10.333 42.834 -31 60.501s-53.334 26.5 -98.001 26.5zM450.996 619.998l43 -25l-105 -128l-30 16z" />
    <glyph glyph-name="Scommaaccent" unicode="&#x218;" horiz-adv-x="514" 
d="M426 581l-32.001 -26.9961c-28 54.667 -71.667 82 -131 82c-38 0 -68.167 -12 -90.5 -36s-33.5 -53.333 -33.5 -88c0 -17.333 2.5 -32.333 7.5 -45s14 -24.334 27 -35.001s24.5 -18.834 34.5 -24.501s26 -13.834 48 -24.501c72 -34.667 116.333 -58 133 -70
c47.333 -32.667 71 -75.667 71 -129c0 -55.333 -20.333 -101.666 -61 -138.999s-89.667 -56 -147 -56c-63.333 0 -115 23.333 -155 70c-19.333 22.667 -33.666 47 -42.999 73l38 18c8 -24 20 -45.333 36 -64c30 -38 71.667 -57 125 -57c45.333 0 83.5 14.667 114.5 44
s46.5 66 46.5 110c0 43.333 -21.667 78.333 -65 105c-19.333 11.333 -57 30.666 -113 57.999c-36.667 18 -63.5 32.667 -80.5 44s-30.833 26 -41.5 44c-14 23.333 -21 48.666 -21 75.999c0 43.333 14.667 81.833 44 115.5s71.666 50.5 126.999 50.5
c34 0 65.333 -8.16699 94 -24.5s51.334 -39.833 68.001 -70.5zM192.999 -189.996l46 140l44 -14l-62 -136z" />
    <glyph glyph-name="scommaaccent" unicode="&#x219;" horiz-adv-x="334" 
d="M280 351l-34 -18c-13.333 30.667 -37 46 -71 46c-21.333 0 -38.166 -6.66699 -50.499 -20s-18.5 -28.333 -18.5 -45c0 -12.667 3.66699 -23.5 11 -32.5s15 -15.667 23 -20s20.667 -9.83301 38 -16.5c2.66699 -0.666992 9.16699 -3.16699 19.5 -7.5l20.5 -8.5
c3.33301 -1.33301 9.16602 -3.83301 17.499 -7.5s14.5 -7 18.5 -10s8.83301 -6.83301 14.5 -11.5s10.5 -9.66699 14.5 -15c14 -17.333 21 -39.333 21 -66c0 -43.333 -13.167 -75.833 -39.5 -97.5s-57.5 -32.5 -93.5 -32.5c-34.667 0 -64.667 9.66699 -90 29
s-42.333 45.666 -51 78.999l39 12c6.66699 -26 19.5 -46.167 38.5 -60.5s40.167 -21.5 63.5 -21.5c26 0 47.667 8.5 65 25.5s26 38.5 26 64.5c0 21.333 -6.66699 37.833 -20 49.5s-37 24.5 -71 38.5c-46.667 19.333 -76.334 37.333 -89.001 54c-12 16 -18 33.667 -18 53
c0 30.667 10.333 55.834 31 75.501s46.667 29.5 78 29.5c52.667 0 88.334 -22 107.001 -66zM104 -190l46 140l44 -14l-62 -136z" />
    <glyph glyph-name="Tcommaaccent" unicode="&#x21a;" horiz-adv-x="418" 
d="M404 627h-173v-627h-44v627h-173v40h390v-40zM153 -190l46 140l44 -14l-62 -136z" />
    <glyph glyph-name="tcommaaccent" unicode="&#x21b;" horiz-adv-x="194" 
d="M186 370h-71v-370h-40v370h-45v38h45v146h40v-146h71v-38zM42 -190l46 140l44 -14l-62 -136z" />
    <glyph glyph-name="uni0228" unicode="&#x228;" horiz-adv-x="464" 
d="M410 667v-40h-276v-242h270v-40h-270v-305h276v-40h-320v667h320zM252 -50l46 -26l-108 -126l-30 18z" />
    <glyph glyph-name="uni0229" unicode="&#x229;" horiz-adv-x="483" 
d="M437 199h-349.003c0 -50.667 15.833 -92 47.5 -124s69.834 -48 114.501 -48c32 0 60.333 8.5 85 25.5s43.667 39.5 57 67.5l34 -20c-15.333 -29.333 -37.666 -55.166 -66.999 -77.499s-66.666 -33.5 -111.999 -33.5c-62 0 -111 20.167 -147 60.5s-54 91.166 -54 152.499
c0 67.333 19.5 120 58.5 158s85.5 57 139.5 57c55.333 0 101.333 -20.333 138 -61s55 -93 55 -157zM90.9971 237h304c-5.33301 41.333 -21.833 75.333 -49.5 102s-61.5 40 -101.5 40c-40.667 0 -75 -13.5 -103 -40.5s-44.667 -60.833 -50 -101.5zM258.997 -50l46 -20
l-100 -124l-28 16z" />
    <glyph glyph-name="uni0237" unicode="&#x237;" horiz-adv-x="184" 
d="M72 408h40v-638h-40v638z" />
    <glyph glyph-name="uni0259" unicode="&#x259;" horiz-adv-x="483" 
d="M46 207h349.001c0 53.333 -15.667 95.333 -47 126s-69.666 46 -114.999 46c-32 0 -60.333 -8.5 -85 -25.5s-43.667 -39.5 -57 -67.5l-34 20c15.333 29.333 37.666 55.166 66.999 77.499s66.666 33.5 111.999 33.5c62 0 111 -20.167 147 -60.5s54 -91.166 54 -152.499
c0 -67.333 -19.5 -120 -58.5 -158s-85.5 -57 -139.5 -57c-56 0 -102.167 19.833 -138.5 59.5s-54.5 92.5 -54.5 158.5zM392.001 169h-304c5.33301 -41.333 21.833 -75.333 49.5 -102s61.5 -40 101.5 -40c40.667 0 75 13.5 103 40.5s44.667 60.833 50 101.5z" />
    <glyph glyph-name="afii57929" unicode="&#x2bc;" 
d="M192 520l46 160l44 -14l-62 -156z" />
    <glyph glyph-name="circumflex" unicode="&#x2c6;" 
d="M250 535l-90 -68l-32 25l122 94l122 -94l-32 -25z" />
    <glyph glyph-name="caron" unicode="&#x2c7;" 
d="M250 517l90 68l32 -26l-122 -94l-122 94l32 26z" />
    <glyph glyph-name="uni02C9" unicode="&#x2c9;" 
d="M115 493v39h270v-39h-270z" />
    <glyph glyph-name="breve" unicode="&#x2d8;" 
d="M125 573h38.0039c3.33301 -14.667 11.666 -27 24.999 -37c17.333 -12.667 38 -19 62 -19s44.667 6.33301 62 19c13.333 10 21.666 22.333 24.999 37h38c-2.66699 -22 -12.334 -41.333 -29.001 -58c-24 -24 -56 -36 -96 -36s-72 12 -96 36
c-16.667 16.667 -26.334 36 -29.001 58z" />
    <glyph glyph-name="dotaccent" unicode="&#x2d9;" 
d="M211 527c0 11.333 3.66699 20.666 11 27.999s16.666 11 27.999 11s20.666 -3.66699 27.999 -11s11 -16.666 11 -27.999s-3.66699 -20.666 -11 -27.999s-16.666 -11 -27.999 -11s-20.666 3.66699 -27.999 11s-11 16.666 -11 27.999z" />
    <glyph glyph-name="ring" unicode="&#x2da;" 
d="M173 549c0 22 7.33301 40.333 22 55s33 22 55 22s40.333 -7.33301 55 -22s22 -33 22 -55s-7.33301 -40.333 -22 -55s-33 -22 -55 -22s-40.333 7.33301 -55 22s-22 33 -22 55zM209 549c0 -12 3.83301 -21.833 11.5 -29.5s17.5 -11.5 29.5 -11.5s21.833 3.83301 29.5 11.5
s11.5 17.5 11.5 29.5s-3.83301 21.833 -11.5 29.5s-17.5 11.5 -29.5 11.5s-21.833 -3.83301 -29.5 -11.5s-11.5 -17.5 -11.5 -29.5z" />
    <glyph glyph-name="ogonek" unicode="&#x2db;" 
d="M358 -137l-9 -36c-13.333 -5.33301 -28.333 -8 -45 -8c-31.333 0 -55.166 8.33301 -71.499 25s-24.5 35.667 -24.5 57c0 22 7.66699 42.667 23 62c10.667 13.333 25 25.666 43 36.999h40c-18 -12 -33.333 -26 -46 -42c-14.667 -19.333 -22 -37.666 -22 -54.999
c0 -14.667 5 -26.5 15 -35.5s25 -13.5 45 -13.5c15.333 0 32.666 3 51.999 9z" />
    <glyph glyph-name="tilde" unicode="&#x2dc;" 
d="M149 487l-26.001 18.999c6 16.667 13.667 29.334 23 38.001c12.667 12.667 28 19 46 19c14.667 0 38.667 -7.33301 72 -22c20.667 -8.66699 36.334 -13 47.001 -13s19.667 4 27 12c9.33301 12 14 20.333 14 25l25 -20c-6 -16 -14.667 -29.333 -26 -40
c-13.333 -11.333 -28.333 -17 -45 -17c-12 0 -31.333 5.66699 -58 17c-28.667 12 -48.334 18 -59.001 18c-11.333 0 -20.666 -4 -27.999 -12c-6 -6.66699 -10 -14.667 -12 -24z" />
    <glyph glyph-name="hungarumlaut" unicode="&#x2dd;" 
d="M249 620l42 -25l-99 -128l-27 16zM360 620l42 -25l-99 -128l-27 16z" />
    <glyph glyph-name="acutecomb" unicode="&#x301;" horiz-adv-x="2" 
d="M-173 620l43 -25l-105 -128l-30 16z" />
    <glyph glyph-name="uni0394" unicode="&#x394;" horiz-adv-x="628" 
d="M614 0h-600l280 667h40zM314 603l-234 -563h468z" />
    <glyph glyph-name="uni0394" unicode="&#x2206;" horiz-adv-x="628" 
d="M614 0h-600l280 667h40zM314 603l-234 -563h468z" />
    <glyph glyph-name="uni03A9" unicode="&#x3a9;" horiz-adv-x="666" 
d="M28 40h204c-43.333 22 -82 52.667 -116 92c-58.667 67.333 -88 141.333 -88 222c0 41.333 7.66699 82.666 23 123.999s38 77.666 68 108.999c56.667 59.333 128 89 214 89s157.333 -29.667 214 -89c60.667 -62 91 -138.667 91 -230c0 -82.667 -29.333 -157.667 -88 -225
c-34 -39.333 -72.667 -70 -116 -92h204v-40h-256v44c57.333 30.667 103.333 67 138 109c48 58 72 124 72 198c0 84.667 -26.333 154 -79 208c-50 51.333 -110 77 -180 77c-71.333 0 -131.333 -25.667 -180 -77c-26 -27.333 -45.667 -59.666 -59 -96.999
s-20 -74.666 -20 -111.999c0 -73.333 24 -139 72 -197c34.667 -42 80.667 -78.333 138 -109v-44h-256v40z" />
    <glyph glyph-name="uni03A9" unicode="&#x2126;" horiz-adv-x="666" 
d="M28 40h204c-43.333 22 -82 52.667 -116 92c-58.667 67.333 -88 141.333 -88 222c0 41.333 7.66699 82.666 23 123.999s38 77.666 68 108.999c56.667 59.333 128 89 214 89s157.333 -29.667 214 -89c60.667 -62 91 -138.667 91 -230c0 -82.667 -29.333 -157.667 -88 -225
c-34 -39.333 -72.667 -70 -116 -92h204v-40h-256v44c57.333 30.667 103.333 67 138 109c48 58 72 124 72 198c0 84.667 -26.333 154 -79 208c-50 51.333 -110 77 -180 77c-71.333 0 -131.333 -25.667 -180 -77c-26 -27.333 -45.667 -59.666 -59 -96.999
s-20 -74.666 -20 -111.999c0 -73.333 24 -139 72 -197c34.667 -42 80.667 -78.333 138 -109v-44h-256v40z" />
    <glyph glyph-name="pi" unicode="&#x3c0;" horiz-adv-x="492" 
d="M134 0h-40v370h-72v38h448v-38h-72v-370h-40v370h-224v-370z" />
    <glyph glyph-name="afii10023" unicode="&#x401;" horiz-adv-x="464" 
d="M410 667v-40h-276v-242h270v-40h-270v-305h276v-40h-320v667h320zM121 780c0 10.667 3.66699 19.667 11 27s16.333 11 27 11s19.667 -3.66699 27 -11s11 -16.333 11 -27s-3.66699 -19.667 -11 -27s-16.333 -11 -27 -11s-19.667 3.66699 -27 11s-11 16.333 -11 27z
M307 780c0 10.667 3.66699 19.667 11 27s16.333 11 27 11s19.667 -3.66699 27 -11s11 -16.333 11 -27s-3.66699 -19.667 -11 -27s-16.333 -11 -27 -11s-19.667 3.66699 -27 11s-11 16.333 -11 27z" />
    <glyph glyph-name="afii10051" unicode="&#x402;" horiz-adv-x="616" 
d="M424 627l-200.004 -0.000976562v-262c46 15.333 91.667 23 137 23c76.667 0 132.334 -20.333 167.001 -61c28 -32.667 42 -77 42 -133c0 -73.333 -22.333 -127.666 -67 -162.999c-31.333 -24.667 -73.666 -37 -126.999 -37c-20 0 -42.667 2 -68 6v40
c18.667 -4 39.667 -6 63 -6c46.667 0 82.334 11 107.001 33c30.667 27.333 46 69 46 125c0 43.333 -11 79 -33 107c-27.333 32.667 -69.666 49 -126.999 49c-47.333 0 -94 -7.66699 -140 -23v-325h-44v627h-166v40h410v-40z" />
    <glyph glyph-name="afii10052" unicode="&#x403;" horiz-adv-x="400" 
d="M90 0v667h296v-40h-252v-627h-44zM316 854l50 -25l-134 -126l-32 18z" />
    <glyph glyph-name="afii10053" unicode="&#x404;" horiz-adv-x="678" 
d="M624 589l0.000976562 -57.999c-28.667 33.333 -62.5 59.166 -101.5 77.499s-80.167 27.5 -123.5 27.5c-76.667 0 -143.5 -25.667 -200.5 -77s-89.167 -116.333 -96.5 -195h442v-40h-444c2 -88.667 33.5 -160 94.5 -214s129.5 -81 205.5 -81c37.333 0 76 8.16699 116 24.5
s76 41.833 108 76.5v-58c-62.667 -55.333 -136.667 -83 -222 -83c-98.667 0 -181.334 33.667 -248.001 101s-100 148 -100 242c0 96 33.667 177.333 101 244s149 100 245 100c88 0 162.667 -29 224 -87z" />
    <glyph glyph-name="afii10054" unicode="&#x405;" horiz-adv-x="514" 
d="M426 581l-32.0059 -26.9961c-28 54.667 -71.667 82 -131 82c-38 0 -68.167 -12 -90.5 -36s-33.5 -53.333 -33.5 -88c0 -17.333 2.5 -32.333 7.5 -45s14 -24.334 27 -35.001s24.5 -18.834 34.5 -24.501s26 -13.834 48 -24.501c72 -34.667 116.333 -58 133 -70
c47.333 -32.667 71 -75.667 71 -129c0 -55.333 -20.333 -101.666 -61 -138.999s-89.667 -56 -147 -56c-63.333 0 -115 23.333 -155 70c-19.333 22.667 -33.666 47 -42.999 73l38 18c8 -24 20 -45.333 36 -64c30 -38 71.667 -57 125 -57c45.333 0 83.5 14.667 114.5 44
s46.5 66 46.5 110c0 43.333 -21.667 78.333 -65 105c-19.333 11.333 -57 30.666 -113 57.999c-3.33301 1.33301 -10.666 4.83301 -21.999 10.5s-19.166 9.66699 -23.499 12s-11.166 6.33301 -20.499 12s-16.666 10.667 -21.999 15s-11.166 10 -17.499 17
s-11.833 14.167 -16.5 21.5c-14 23.333 -21 48.666 -21 75.999c0 43.333 14.667 81.833 44 115.5s71.666 50.5 126.999 50.5c34 0 65.333 -8.16699 94 -24.5s51.334 -39.833 68.001 -70.5z" />
    <glyph glyph-name="afii10055" unicode="&#x406;" horiz-adv-x="224" 
d="M90 667h44v-667h-44v667z" />
    <glyph glyph-name="afii10056" unicode="&#x407;" horiz-adv-x="224" 
d="M90 667h44v-667h-44v667zM10 780c0 10.667 3.66699 19.667 11 27s16.333 11 27 11s19.667 -3.66699 27 -11s11 -16.333 11 -27s-3.66699 -19.667 -11 -27s-16.333 -11 -27 -11s-19.667 3.66699 -27 11s-11 16.333 -11 27zM138 780c0 10.667 3.66699 19.667 11 27
s16.333 11 27 11s19.667 -3.66699 27 -11s11 -16.333 11 -27s-3.66699 -19.667 -11 -27s-16.333 -11 -27 -11s-19.667 3.66699 -27 11s-11 16.333 -11 27z" />
    <glyph glyph-name="afii10057" unicode="&#x408;" horiz-adv-x="263" 
d="M129 667l44 0.00195312v-537c0 -50.667 -11 -87.334 -33 -110.001c-20.667 -20.667 -48.334 -31 -83.001 -31c-25.333 0 -49.666 8.33301 -72.999 25c-12 8.66699 -24.667 23.667 -38 45l30 26c8.66699 -16.667 19 -29.334 31 -38.001c16 -12 33.333 -18 52 -18
c21.333 0 37.333 6.33301 48 19c14.667 16 22 43.333 22 82v537z" />
    <glyph glyph-name="afii10058" unicode="&#x409;" horiz-adv-x="922" 
d="M154 667l376.002 -0.00195312v-287h116c153.333 0 230 -61 230 -183c0 -55.333 -17.833 -102 -53.5 -140s-89.834 -57 -162.501 -57h-174v627h-288v-388c0 -33.333 -0.5 -59.166 -1.5 -77.499s-5.16699 -40.166 -12.5 -65.499s-18.333 -46 -33 -62
c-24 -26.667 -56.333 -40 -97 -40c-10.667 0 -24 2 -40 6v40c13.333 -4 25.666 -6 36.999 -6c26 0 47.667 8.66699 65 26c12 12 20.833 29 26.5 51s9 41.167 10 57.5s1.5 39.833 1.5 70.5v428zM530.002 339.998v-300.001h112c67.333 0 116 14.667 146 44
c28 26.667 42 64.334 42 113.001c0 58 -23 99 -69 123c-26 13.333 -68.333 20 -127 20h-104z" />
    <glyph glyph-name="afii10059" unicode="&#x40a;" horiz-adv-x="974" 
d="M134 667l0.000976562 -287h404v287h44v-287h116c153.333 0 230 -61 230 -183c0 -55.333 -17.833 -102 -53.5 -140s-89.834 -57 -162.501 -57h-174v340h-404v-340h-44v667h44zM582.001 340v-300.001h112c67.333 0 116 14.667 146 44c28 26.667 42 64.334 42 113.001
c0 58 -23 99 -69 123c-26 13.333 -68.333 20 -127 20h-104z" />
    <glyph glyph-name="afii10060" unicode="&#x40b;" horiz-adv-x="670" 
d="M424 627h-199.998v-243h170c60.667 0 106 -7.33301 136 -22c29.333 -14 48.333 -32.5 57 -55.5s13 -54.167 13 -93.5v-213h-44v213c0 12.667 -0.333008 23 -1 31s-2.66699 18 -6 30s-8.83301 22.667 -16.5 32s-17.834 17 -30.501 23c-20.667 10 -61.334 15 -122.001 15
h-156v-344h-44v627h-166v40h410v-40z" />
    <glyph glyph-name="afii10061" unicode="&#x40c;" horiz-adv-x="540" 
d="M134 667v-314l315 314h58l-323 -319l342 -348h-60l-314 318l-18 -17v-301h-44v667h44zM336 854l50 -25l-134 -126l-32 18z" />
    <glyph glyph-name="afii10062" unicode="&#x40e;" horiz-adv-x="550" 
d="M14 667h50l231 -432l195 432h46l-305 -667h-46l85 186zM145 803l35 19c19.333 -42.667 54.333 -64 105 -64s85.667 21.333 105 64l35 -19c-14 -30.667 -34.167 -52.5 -60.5 -65.5s-52.833 -19.5 -79.5 -19.5s-53.167 6.5 -79.5 19.5s-46.5 34.833 -60.5 65.5z" />
    <glyph glyph-name="afii10145" unicode="&#x40f;" horiz-adv-x="666" 
d="M90 0v667h44v-627h398v627h44v-667h-221v-150h-44v150h-221z" />
    <glyph glyph-name="afii10017" unicode="&#x410;" horiz-adv-x="586" 
d="M524 0l-89 219h-284l-89 -219h-48l281 687l277 -687h-48zM167 259h252l-125 316z" />
    <glyph glyph-name="afii10018" unicode="&#x411;" horiz-adv-x="534" 
d="M90 0l0.000976562 667h321v-40h-277v-247h116c153.333 0 230 -61 230 -183c0 -55.333 -17.833 -102 -53.5 -140s-89.834 -57 -162.501 -57h-174zM134.001 340v-300.001h112c67.333 0 116 14.667 146 44c28 26.667 42 64.334 42 113.001c0 58 -23 99 -69 123
c-26.667 13.333 -69 20 -127 20h-104z" />
    <glyph glyph-name="afii10019" unicode="&#x412;" horiz-adv-x="534" 
d="M90 0l-0.00195312 667.001h146c57.333 0 102.333 -15.167 135 -45.5s49 -70.833 49 -121.5c0 -65.333 -26 -114 -78 -146c42.667 -6.66699 76.334 -25.334 101.001 -56.001s37 -67.667 37 -111c0 -57.333 -19.167 -102.833 -57.5 -136.5s-88.166 -50.5 -149.499 -50.5
h-183zM133.998 627.001v-262.001h106c38 0 68.333 9.33301 91 28c29.333 24 44 58 44 102c0 44.667 -15 79.334 -45 104.001c-24 18.667 -61 28 -111 28h-85zM133.998 325l0.000976562 -285h112c20.667 0 37 0.5 49 1.5s27.5 4.5 46.5 10.5s35.5 15.333 49.5 28
c28.667 25.333 43 59.333 43 102c0 60.667 -23.667 102 -71 124c-28.667 12.667 -70.334 19 -125.001 19h-104z" />
    <glyph glyph-name="afii10020" unicode="&#x413;" horiz-adv-x="400" 
d="M90 0v667h296v-40h-252v-627h-44z" />
    <glyph glyph-name="afii10021" unicode="&#x414;" horiz-adv-x="610" 
d="M144 667l375.998 -0.000976562v-627h76v-174h-42v134h-498v-134h-42v174c22.667 0 43.334 8.33301 62.001 25s33.334 38.334 44.001 65.001c16 40.667 24 99 24 175v362zM187.998 626.999v-322c0 -82 -8 -144 -24 -186c-11.333 -30 -28.333 -56.333 -51 -79h363v587h-288
z" />
    <glyph glyph-name="afii10022" unicode="&#x415;" horiz-adv-x="464" 
d="M410 667v-40h-276v-242h270v-40h-270v-305h276v-40h-320v667h320z" />
    <glyph glyph-name="afii10024" unicode="&#x416;" horiz-adv-x="796" 
d="M376 667h44v-314l282 314h58l-296 -323l318 -344h-58l-291 314l-13 -13v-301h-44v301l-13 13l-291 -314h-58l318 344l-296 323h58l282 -314v314z" />
    <glyph glyph-name="afii10025" unicode="&#x417;" horiz-adv-x="554" 
d="M136 554l-31.999 26.999c38.667 63.333 99 95 181 95c50.667 0 91 -14.333 121 -43c32 -29.333 48 -69.333 48 -120c0 -66 -29.333 -114.667 -88 -146c42.667 -10.667 75.667 -32 99 -64s35 -69.333 35 -112c0 -70 -25.333 -123.333 -76 -160
c-38.667 -28 -87 -42 -145 -42c-55.333 0 -102 13.5 -140 40.5s-66.333 60.5 -85 100.5l42 20c16.667 -40 42.834 -70.167 78.501 -90.5s71.5 -30.5 107.5 -30.5c45.333 0 83.666 11.667 114.999 35c38 28 57 70.333 57 127c0 46.667 -15.833 83 -47.5 109
s-75.167 39 -130.5 39h-60v40h60c35.333 0 66.166 12.167 92.499 36.5s39.5 56.833 39.5 97.5c0 34.667 -10.333 63.334 -31 86.001c-22.667 24.667 -55 37 -97 37c-60.667 0 -108.667 -27.333 -144 -82z" />
    <glyph glyph-name="afii10026" unicode="&#x418;" horiz-adv-x="700" 
d="M566 0v556l-476 -573v684h44v-566l476 573v-674h-44z" />
    <glyph glyph-name="afii10027" unicode="&#x419;" horiz-adv-x="700" 
d="M566 0v556l-476 -573v684h44v-566l476 573v-674h-44zM210 803l35 19c19.333 -42.667 54.333 -64 105 -64s85.667 21.333 105 64l35 -19c-14 -30.667 -34.167 -52.5 -60.5 -65.5s-52.833 -19.5 -79.5 -19.5s-53.167 6.5 -79.5 19.5s-46.5 34.833 -60.5 65.5z" />
    <glyph glyph-name="afii10028" unicode="&#x41a;" horiz-adv-x="540" 
d="M134 667v-314l315 314h58l-323 -319l342 -348h-60l-314 318l-18 -17v-301h-44v667h44z" />
    <glyph glyph-name="afii10029" unicode="&#x41b;" horiz-adv-x="620" 
d="M154 667l376.001 -0.00195312v-667h-44v627h-288v-388c0 -33.333 -0.5 -59.166 -1.5 -77.499s-5.16699 -40.166 -12.5 -65.499s-18.333 -46 -33 -62c-24 -26.667 -56.333 -40 -97 -40c-10.667 0 -24 2 -40 6v40c13.333 -4 25.666 -6 36.999 -6c26 0 47.667 8.66699 65 26
c12 12 20.833 29 26.5 51s9 41.167 10 57.5s1.5 39.833 1.5 70.5v428z" />
    <glyph glyph-name="afii10030" unicode="&#x41c;" horiz-adv-x="896" 
d="M127 0h-44l76 690l289 -617l289 617l76 -690h-44l-59 536l-262 -560l-262 560z" />
    <glyph glyph-name="afii10031" unicode="&#x41d;" horiz-adv-x="672" 
d="M134 667v-283h404v283h44v-667h-44v344h-404v-344h-44v667h44z" />
    <glyph glyph-name="afii10032" unicode="&#x41e;" horiz-adv-x="800" 
d="M400 676c97.333 0 179.333 -33.333 246 -100s100 -148 100 -244s-33.333 -177.167 -100 -243.5s-148.667 -99.5 -246 -99.5s-179.333 33.167 -246 99.5s-100 147.5 -100 243.5s33.333 177.333 100 244s148.667 100 246 100zM400 29c85.333 0 156.666 29.167 213.999 87.5
s86 130.166 86 215.499c0 86 -28.667 158.167 -86 216.5s-128.666 87.5 -213.999 87.5s-156.666 -29.167 -213.999 -87.5s-86 -130.5 -86 -216.5c0 -85.333 28.667 -157.166 86 -215.499s128.666 -87.5 213.999 -87.5z" />
    <glyph glyph-name="afii10033" unicode="&#x41f;" horiz-adv-x="672" 
d="M90 667h492v-667h-44v627h-404v-627h-44v667z" />
    <glyph glyph-name="afii10034" unicode="&#x420;" horiz-adv-x="446" 
d="M220 317l-86.001 -0.000976562v-317h-44v667h129c56.667 0 103.334 -15.167 140.001 -45.5s55 -73.166 55 -128.499c0 -54.667 -17.667 -97.667 -53 -129s-82.333 -47 -141 -47zM133.999 626.999v-269.999h88c44 0 79.333 12.167 106 36.5s40 57.166 40 98.499
c0 42 -13.5 75 -40.5 99s-64.5 36 -112.5 36h-81z" />
    <glyph glyph-name="afii10035" unicode="&#x421;" horiz-adv-x="678" 
d="M624 589l-0.000976562 -58.002c-28.667 33.333 -62.5 59.166 -101.5 77.499s-80.167 27.5 -123.5 27.5c-84.667 0 -155.667 -29.667 -213 -89s-86 -131.666 -86 -216.999c0 -47.333 9.16699 -90.666 27.5 -129.999s42.333 -71.166 72 -95.499s61.834 -43 96.501 -56
s69.334 -19.5 104.001 -19.5c37.333 0 76 8.16699 116 24.5s76 41.833 108 76.5v-58c-62.667 -55.333 -136.667 -83 -222 -83c-98.667 0 -181.334 33.667 -248.001 101s-100 148 -100 242c0 96 33.667 177.333 101 244s149 100 245 100c88 0 162.667 -29 224 -87z" />
    <glyph glyph-name="afii10036" unicode="&#x422;" horiz-adv-x="418" 
d="M404 627h-173v-627h-44v627h-173v40h390v-40z" />
    <glyph glyph-name="afii10037" unicode="&#x423;" horiz-adv-x="550" 
d="M14 667h50l231 -432l195 432h46l-305 -667h-46l85 186z" />
    <glyph glyph-name="afii10038" unicode="&#x424;" horiz-adv-x="820" 
d="M388 0v94h-28c-47.333 0 -89.5 5.66699 -126.5 17s-66.5 25.666 -88.5 42.999s-40.167 38 -54.5 62s-24 47.167 -29 69.5s-7.5 45.166 -7.5 68.499s2.5 46.166 7.5 68.499s14.667 45.5 29 69.5s32.5 44.667 54.5 62s51.5 31.666 88.5 42.999s79.167 17 126.5 17h28v80h44
v-80h28c47.333 0 89.5 -5.66699 126.5 -17s66.5 -25.666 88.5 -42.999s40.167 -38 54.5 -62s24 -47.167 29 -69.5s7.5 -45.166 7.5 -68.499s-2.5 -46.166 -7.5 -68.499s-14.667 -45.5 -29 -69.5s-32.5 -44.667 -54.5 -62s-51.5 -31.666 -88.5 -42.999
s-79.167 -17 -126.5 -17h-28v-94h-44zM388 134v440.006h-30c-48.667 0 -90.834 -6.83301 -126.501 -20.5s-62.5 -31.834 -80.5 -54.501s-31 -45.834 -39 -69.501s-12 -48.834 -12 -75.501s4 -51.834 12 -75.501s21 -46.834 39 -69.501s44.833 -40.834 80.5 -54.501
s77.834 -20.5 126.501 -20.5h30zM432 574.006v-440.006h30c48.667 0 90.834 6.83301 126.501 20.5s62.5 31.834 80.5 54.501s31 45.834 39 69.501s12 48.834 12 75.501s-4 51.834 -12 75.501s-21 46.834 -39 69.501s-44.833 40.834 -80.5 54.501s-77.834 20.5 -126.501 20.5
h-30z" />
    <glyph glyph-name="afii10039" unicode="&#x425;" horiz-adv-x="470" 
d="M23 0l183 340l-175 327h48l151 -285l152 285h48l-174 -327l183 -340h-48l-161 300l-159 -300h-48z" />
    <glyph glyph-name="afii10040" unicode="&#x426;" horiz-adv-x="666" 
d="M90 0v667h44v-627h398v627h44v-627h76v-174h-42v134h-520z" />
    <glyph glyph-name="afii10041" unicode="&#x427;" horiz-adv-x="580" 
d="M446 0v300c-74.667 -4.66699 -131.334 -7 -170.001 -7c-60.667 0 -106 7.33301 -136 22c-29.333 14 -48.333 32.5 -57 55.5s-13 54.167 -13 93.5v203h44v-203c0 -13.333 0.333008 -23.833 1 -31.5s2.5 -17.5 5.5 -29.5s8.5 -22.667 16.5 -32s18.333 -17 31 -23
c20.667 -10 61.334 -15 122.001 -15c46 0 98 2.33301 156 7v327h44v-667h-44z" />
    <glyph glyph-name="afii10042" unicode="&#x428;" horiz-adv-x="920" 
d="M90 0v667h44v-627h304v627h44v-627h304v627h44v-667h-740z" />
    <glyph glyph-name="afii10043" unicode="&#x429;" horiz-adv-x="920" 
d="M90 0v667h44v-627h304v627h44v-627h304v627h44v-627h76v-174h-42v134h-774z" />
    <glyph glyph-name="afii10044" unicode="&#x42a;" horiz-adv-x="610" 
d="M174 0l0.000976562 627h-160v40h204v-287h116c153.333 0 230 -61 230 -183c0 -55.333 -17.833 -102 -53.5 -140s-89.834 -57 -162.501 -57h-174zM218.001 340v-300.001h112c67.333 0 116 14.667 146 44c28 26.667 42 64.334 42 113.001c0 58 -23 99 -69 123
c-26 13.333 -68.333 20 -127 20h-104z" />
    <glyph glyph-name="afii10045" unicode="&#x42b;" horiz-adv-x="690" 
d="M90 0l0.000976562 667h44v-287h116c153.333 0 230 -61 230 -183c0 -55.333 -17.833 -102 -53.5 -140s-89.834 -57 -162.501 -57h-174zM134.001 340v-300.001h112c67.333 0 116 14.667 146 44c28 26.667 42 64.334 42 113.001c0 58 -23 99 -69 123
c-26 13.333 -68.333 20 -127 20h-104zM556.001 666.999h44v-667h-44v667z" />
    <glyph glyph-name="afii10046" unicode="&#x42c;" horiz-adv-x="526" 
d="M90 0l0.000976562 667h44v-287h116c153.333 0 230 -61 230 -183c0 -55.333 -17.833 -102 -53.5 -140s-89.834 -57 -162.501 -57h-174zM134.001 340v-300.001h112c67.333 0 116 14.667 146 44c28 26.667 42 64.334 42 113.001c0 58 -23 99 -69 123
c-26 13.333 -68.333 20 -127 20h-104z" />
    <glyph glyph-name="afii10047" unicode="&#x42d;" horiz-adv-x="678" 
d="M54 72v57.999c32 -34.667 68 -60.167 108 -76.5s78.667 -24.5 116 -24.5c76 0 144.333 27 205 81s92.334 125.333 95.001 214h-444v40h442c-7.33301 78.667 -39.5 143.667 -96.5 195s-123.833 77 -200.5 77c-43.333 0 -84.5 -9.16699 -123.5 -27.5
s-72.833 -44.166 -101.5 -77.499v58c61.333 58 136 87 224 87c96 0 177.667 -33.333 245 -100s101 -148 101 -244c0 -94 -33.333 -174.667 -100 -242s-149.334 -101 -248.001 -101c-85.333 0 -159.333 27.667 -222 83z" />
    <glyph glyph-name="afii10048" unicode="&#x42e;" horiz-adv-x="960" 
d="M134 372h102c10 88 46.667 160.667 110 218s138 86 224 86c94.667 0 174.334 -33.333 239.001 -100s97 -148 97 -244s-32.333 -177.167 -97 -243.5s-144.334 -99.5 -239.001 -99.5s-174 33.333 -238 100s-96.667 147.667 -98 243h-100v-332h-44v667h44v-295zM570 29
c83.333 0 152.5 29.167 207.5 87.5s82.5 130.166 82.5 215.499s-27.667 157.333 -83 216s-124.333 88 -207 88s-151.667 -29.333 -207 -88s-83 -130.667 -83 -216s27.5 -157.166 82.5 -215.499s124.167 -87.5 207.5 -87.5z" />
    <glyph glyph-name="afii10049" unicode="&#x42f;" horiz-adv-x="470" 
d="M34 0l202.002 299.003c-25.333 0.666992 -50.333 5.66699 -75 15c-8.66699 3.33301 -17.5 7.83301 -26.5 13.5s-20.333 14.667 -34 27s-24.834 29.666 -33.501 51.999s-13 47.833 -13 76.5c0 39.333 8.66699 72.166 26 98.499s37.666 46.166 60.999 59.499
c29.333 17.333 71 26 125 26h114v-667h-44v299h-50l-200 -299h-52zM336.002 627.003l-70.001 0.000976562c-38.667 0 -69 -5.33301 -91 -16c-23.333 -10.667 -41.666 -27.334 -54.999 -50.001s-20 -48.667 -20 -78c0 -46.667 14.667 -83 44 -109
c26 -23.333 64.667 -35 116 -35h76v288z" />
    <glyph glyph-name="afii10065" unicode="&#x430;" horiz-adv-x="516" 
d="M404 337v71.001h40v-408h-40v73c-36.667 -56 -89.667 -84 -159 -84c-55.333 0 -102.333 19.667 -141 59s-58 91.333 -58 156c0 63.333 18.333 114.666 55 153.999s84.667 59 144 59c68 0 121 -26.667 159 -80zM247 379.001c-43.333 0 -80.666 -15.499 -111.999 -46.499
s-47 -72.833 -47 -125.5c0 -48.667 14.333 -90.834 43 -126.501s67.667 -53.5 117 -53.5c48.667 0 87.167 17.5 115.5 52.5s42.5 77.5 42.5 127.5c0 55.333 -16.333 97.833 -49 127.5s-69.334 44.5 -110.001 44.5z" />
    <glyph glyph-name="afii10066" unicode="&#x431;" horiz-adv-x="520" 
d="M87 311l1.99902 -0.00195312c15.333 35.333 39.5 61.833 72.5 79.5s68.5 26.5 106.5 26.5c62 0 111.833 -19.667 149.5 -59s56.5 -90.666 56.5 -153.999c0 -65.333 -20.333 -117.5 -61 -156.5s-92 -58.5 -154 -58.5c-58.667 0 -106.334 17 -143.001 51
c-46.667 44 -70 116.667 -70 218c0 164 42.667 273.667 128 329c8 5.33301 16.667 10.166 26 14.499s17.5 7.83301 24.5 10.5s16.5 5.5 28.5 8.5s20.667 5 26 6l28.5 5.5c13.667 2.66699 21.834 4.33398 24.501 5.00098c49.333 10.667 79.333 28.334 90 53.001h50
c-7.33301 -16.667 -16.5 -30.834 -27.5 -42.501s-24.333 -21 -40 -28s-28.667 -12 -39 -15s-24.166 -6.5 -41.499 -10.5c-66 -13.333 -113.667 -31.666 -143 -54.999c-30.667 -24.667 -53.5 -58 -68.5 -100s-23.5 -84.667 -25.5 -128zM258.999 26.998
c57.333 0 100.5 17.832 129.5 53.499s43.5 76.834 43.5 123.501s-14.667 87.5 -44 122.5s-69.333 52.5 -120 52.5c-54.667 0 -97.667 -17.667 -129 -53s-47 -76 -47 -122c0 -44.667 13 -84 39 -118c30 -39.333 72.667 -59 128 -59z" />
    <glyph glyph-name="afii10067" unicode="&#x432;" horiz-adv-x="414" 
d="M72 408h132.999c38 0 67 -8 87 -24c24 -19.333 36 -45.333 36 -78c0 -37.333 -15 -65.666 -45 -84.999c18.667 -2.66699 35.334 -10.334 50.001 -23.001c23.333 -20.667 35 -48 35 -82c0 -38 -13.667 -67.333 -41 -88c-24 -18.667 -57.333 -28 -100 -28h-155v408z
M111.999 230h92.999c24.667 0 44 5.66699 58 17c16.667 13.333 25 31.333 25 54c0 22 -8.33301 39.667 -25 53c-13.333 10.667 -32.666 16 -57.999 16h-93v-140zM111.998 38h115c30.667 0 54 6 70 18c19.333 14.667 29 35 29 61c0 24 -9 43 -27 57c-16 12 -40 18 -72 18
h-115v-154z" />
    <glyph glyph-name="afii10068" unicode="&#x433;" horiz-adv-x="300" 
d="M72 0v408h220v-38h-180v-370h-40z" />
    <glyph glyph-name="afii10069" unicode="&#x434;" horiz-adv-x="440" 
d="M100 408h268v-370h60v-148h-38v110h-344v-110h-38v148c33.333 2 58.333 20 75 54c11.333 23.333 17 60 17 110v206zM328 38v332h-188v-180c0 -72 -17.333 -122.667 -52 -152h240z" />
    <glyph glyph-name="afii10070" unicode="&#x435;" horiz-adv-x="483" 
d="M437 199h-349.003c0 -50.667 15.833 -92 47.5 -124s69.834 -48 114.501 -48c32 0 60.333 8.5 85 25.5s43.667 39.5 57 67.5l34 -20c-15.333 -29.333 -37.666 -55.166 -66.999 -77.499s-66.666 -33.5 -111.999 -33.5c-62 0 -111 20.167 -147 60.5s-54 91.166 -54 152.499
c0 67.333 19.5 120 58.5 158s85.5 57 139.5 57c55.333 0 101.333 -20.333 138 -61s55 -93 55 -157zM90.9971 237h304c-5.33301 41.333 -21.833 75.333 -49.5 102s-61.5 40 -101.5 40c-40.667 0 -75 -13.5 -103 -40.5s-44.667 -60.833 -50 -101.5z" />
    <glyph glyph-name="afii10072" unicode="&#x436;" horiz-adv-x="560" 
d="M260 408h40v-194l184 194h52l-190 -196l206 -212h-54l-178 186l-20 -20v-166h-40v166l-20 20l-178 -186h-54l206 212l-190 196h52l184 -194v194z" />
    <glyph glyph-name="afii10073" unicode="&#x437;" horiz-adv-x="400" 
d="M105 322l-32.999 23.001c28 48 71 72 129 72c39.333 0 69.333 -9.66699 90 -29c22 -19.333 33 -45.666 33 -78.999c0 -40 -15.667 -68.333 -47 -85c18 -4 34 -13 48 -27c19.333 -19.333 29 -45.333 29 -78c0 -42 -16 -75.333 -48 -100
c-26.667 -20 -61.334 -30 -104.001 -30c-44 0 -79.667 10.333 -107 31c-22 18 -38.333 37.667 -49 59l36 23c10 -22 24.333 -39.333 43 -52c20.667 -15.333 46.334 -23 77.001 -23c34 0 60 7.66699 78 23c21.333 17.333 32 40.666 32 69.999c0 26 -9.33301 46 -28 60
c-16 12 -41 18 -75 18h-42v38h31c26 0 46.333 5.66699 61 17c16.667 13.333 25 30.666 25 51.999s-7 39 -21 53c-15.333 14 -36.333 21 -63 21c-42.667 0 -74.334 -19 -95.001 -57z" />
    <glyph glyph-name="afii10074" unicode="&#x438;" horiz-adv-x="474" 
d="M72 408h40v-327l290 350v-431h-40v325l-290 -350v433z" />
    <glyph glyph-name="afii10075" unicode="&#x439;" horiz-adv-x="474" 
d="M72 408h40v-327l290 350v-431h-40v325l-290 -350v433zM118 573l34 17c5.33301 -20.667 16.5 -38 33.5 -52s37.833 -21 62.5 -21s45.5 7 62.5 21s28.167 31.333 33.5 52l34 -17c-20 -62.667 -63.333 -94 -130 -94s-110 31.333 -130 94z" />
    <glyph glyph-name="afii10076" unicode="&#x43a;" horiz-adv-x="396" 
d="M72 408h40v-194l206 194h54l-208 -194l224 -214h-58l-196 187l-22 -21v-166h-40v408z" />
    <glyph glyph-name="afii10077" unicode="&#x43b;" horiz-adv-x="430" 
d="M358 408l-0.000976562 -408.001h-40v370h-188v-236c0 -44.667 -8 -77.667 -24 -99c-18 -24.667 -44 -37 -78 -37c-4 0 -10.667 0.666992 -20 2v38c6.66699 -1.33301 11.667 -2 15 -2c22.667 0 40.334 9 53.001 27c9.33301 14.667 14 38.334 14 71.001v274h268z" />
    <glyph glyph-name="afii10078" unicode="&#x43c;" horiz-adv-x="566" 
d="M24 0l96 433l163 -368l163 368l96 -433h-42l-66 319l-151 -344l-151 344l-66 -319h-42z" />
    <glyph glyph-name="afii10079" unicode="&#x43d;" horiz-adv-x="454" 
d="M72 0v408h40v-180h230v180h40v-408h-40v190h-230v-190h-40z" />
    <glyph glyph-name="afii10080" unicode="&#x43e;" horiz-adv-x="520" 
d="M260 417c60.667 0 111.5 -20.5 152.5 -61.5s61.5 -91.833 61.5 -152.5s-20.5 -111.5 -61.5 -152.5s-91.833 -61.5 -152.5 -61.5s-111.5 20.5 -152.5 61.5s-61.5 91.833 -61.5 152.5s20.5 111.5 61.5 152.5s91.833 61.5 152.5 61.5zM260 27c48.667 0 89.5 17 122.5 51
s49.5 75.667 49.5 125s-16.5 91 -49.5 125s-73.833 51 -122.5 51s-89.5 -17 -122.5 -51s-49.5 -75.667 -49.5 -125s16.5 -91 49.5 -125s73.833 -51 122.5 -51z" />
    <glyph glyph-name="afii10081" unicode="&#x43f;" horiz-adv-x="448" 
d="M72 0v408h304v-408h-40v370h-224v-370h-40z" />
    <glyph glyph-name="afii10082" unicode="&#x440;" horiz-adv-x="516" 
d="M112 73l0.00195312 -302.998h-40v638h40v-71c39.333 53.333 92.666 80 159.999 80c60 0 108 -19.833 144 -59.5s54 -89.834 54 -150.501c0 -62 -18.167 -113.833 -54.5 -155.5s-84.833 -62.5 -145.5 -62.5c-30.667 0 -58.334 6.16699 -83.001 18.5
s-41.667 23.666 -51 33.999s-17.333 20.833 -24 31.5zM269.002 27.002c50 0 89 17 117 51s42 77 42 129c0 54 -15.333 96.167 -46 126.5s-68 45.5 -112 45.5c-43.333 0 -80.833 -15 -112.5 -45s-47.5 -71.667 -47.5 -125c0 -52.667 14 -96.167 42 -130.5s67 -51.5 117 -51.5
z" />
    <glyph glyph-name="afii10083" unicode="&#x441;" horiz-adv-x="442" 
d="M399 365l0.000976562 -52.999c-38.667 44.667 -85.667 67 -141 67c-49.333 0 -90 -16.833 -122 -50.5s-48 -75.834 -48 -126.501c0 -54.667 17 -97.5 51 -128.5s73 -46.5 117 -46.5c54 0 103.333 24.333 148 73v-54c-42.667 -38 -92.334 -57 -149.001 -57
c-61.333 0 -111.5 20.167 -150.5 60.5s-58.5 90.833 -58.5 151.5c0 62 19.333 113.5 58 154.5s90 61.5 154 61.5c52.667 0 99.667 -17.333 141 -52z" />
    <glyph glyph-name="afii10084" unicode="&#x442;" horiz-adv-x="340" 
d="M150 0v370h-142v38h324v-38h-142v-370h-40z" />
    <glyph glyph-name="afii10085" unicode="&#x443;" horiz-adv-x="428" 
d="M106 -230l96 223l-194 415h46l171 -363l149 363h46l-268 -638h-46z" />
    <glyph glyph-name="afii10086" unicode="&#x444;" horiz-adv-x="600" 
d="M280 -230v223c-68 0 -123 17.667 -165 53c-46 38.667 -69 91.334 -69 158.001c0 67.333 23 120.333 69 159c41.333 34 96.333 51 165 51v253h40v-253c68.667 0 123.667 -17 165 -51c46 -38.667 69 -91.667 69 -159c0 -66.667 -23 -119.334 -69 -158.001
c-42 -35.333 -97 -53 -165 -53v-223h-40zM280 31v345c-57.333 0 -103 -14 -137 -42c-36.667 -30.667 -55 -74 -55 -130c0 -56.667 18.333 -100 55 -130c35.333 -28.667 81 -43 137 -43zM320 376v-345c56 0 101.667 14.333 137 43c36.667 30 55 73.333 55 130
c0 56 -18.333 99.333 -55 130c-34 28 -79.667 42 -137 42z" />
    <glyph glyph-name="afii10087" unicode="&#x445;" horiz-adv-x="400" 
d="M8 0l165 214l-151 194h49l129 -168l127 168h49l-148 -194l164 -214h-49l-143 188l-143 -188h-49z" />
    <glyph glyph-name="afii10088" unicode="&#x446;" horiz-adv-x="444" 
d="M72 0v408h40v-370h220v370h40v-370h60v-148h-38v110h-322z" />
    <glyph glyph-name="afii10089" unicode="&#x447;" horiz-adv-x="412" 
d="M300 0l0.000976562 169c-44 -6.66699 -79.667 -10 -107 -10c-43.333 0 -75.333 7.33301 -96 22c-24.667 18 -37 52.667 -37 104v123h40v-123c0 -37.333 9 -62.333 27 -75c12.667 -8.66699 33 -13 61 -13c31.333 0 68.666 3.33301 111.999 10v201h40v-408h-40z" />
    <glyph glyph-name="afii10090" unicode="&#x448;" horiz-adv-x="644" 
d="M72 0v408h40v-370h190v370h40v-370h190v370h40v-408h-500z" />
    <glyph glyph-name="afii10091" unicode="&#x449;" horiz-adv-x="644" 
d="M72 0v408h40v-370h190v370h40v-370h190v370h40v-370h60v-148h-38v110h-522z" />
    <glyph glyph-name="afii10092" unicode="&#x44a;" horiz-adv-x="416" 
d="M8 408h139.999v-170h97c46.667 0 81.334 -12.667 104.001 -38c19.333 -21.333 29 -48.333 29 -81c0 -36.667 -12 -66 -36 -88c-22 -20.667 -54.667 -31 -98 -31h-136v370h-100v38zM147.999 38h96c28 0 49.333 6.33301 64 19c18.667 15.333 28 36 28 62
c0 27.333 -9.66699 48.333 -29 63c-16 12 -37.667 18 -65 18h-94v-162z" />
    <glyph glyph-name="afii10093" unicode="&#x44b;" 
d="M72 408h39.999v-170h97c46.667 0 81.334 -12.667 104.001 -38c19.333 -21.333 29 -48.333 29 -81c0 -36.667 -12 -66 -36 -88c-22 -20.667 -54.667 -31 -98 -31h-136v408zM111.999 38h96c28 0 49.333 6.33301 64 19c18.667 15.333 28 36 28 62
c0 27.333 -9.66699 48.333 -29 63c-16 12 -37.667 18 -65 18h-94v-162zM387.999 408h40v-408h-40v408z" />
    <glyph glyph-name="afii10094" unicode="&#x44c;" horiz-adv-x="380" 
d="M72 408h39.999v-170h97c46.667 0 81.334 -12.667 104.001 -38c19.333 -21.333 29 -48.333 29 -81c0 -36.667 -12 -66 -36 -88c-22 -20.667 -54.667 -31 -98 -31h-136v408zM111.999 38h96c28 0 49.333 6.33301 64 19c18.667 15.333 28 36 28 62
c0 27.333 -9.66699 48.333 -29 63c-16 12 -37.667 18 -65 18h-94v-162z" />
    <glyph glyph-name="afii10095" unicode="&#x44d;" horiz-adv-x="412" 
d="M38 10l0.000976562 42c30 -16.667 66.667 -25 110 -25c55.333 0 99.333 17.667 132 53c27.333 28.667 42 65.334 44 110.001h-239v38h239c-5.33301 49.333 -27.666 88.666 -66.999 117.999c-30.667 22 -68 33 -112 33c-42 0 -76.333 -7 -103 -21v40
c33.333 12.667 67.666 19 102.999 19c63.333 0 114.333 -17 153 -51c45.333 -39.333 68 -93 68 -161c0 -66 -20.333 -118.667 -61 -158c-40 -38.667 -92.333 -58 -157 -58c-44.667 0 -81.334 7 -110.001 21z" />
    <glyph glyph-name="afii10096" unicode="&#x44e;" horiz-adv-x="640" 
d="M112 228l70 -0.000976562c6 54.667 28.167 99.834 66.5 135.501s84.833 53.5 139.5 53.5c58.667 0 107.667 -20.5 147 -61.5s59 -91.833 59 -152.5s-19.667 -111.5 -59 -152.5s-88.333 -61.5 -147 -61.5c-54.667 0 -102 18.5 -142 55.5s-61.333 85.5 -64 145.5h-70v-190
h-40v408h40v-180zM388 26.999c46.667 0 85.667 16.833 117 50.5s47 75.5 47 125.5s-15.667 91.833 -47 125.5s-70.333 50.5 -117 50.5s-85.667 -16.833 -117 -50.5s-47 -75.5 -47 -125.5s15.667 -91.833 47 -125.5s70.333 -50.5 117 -50.5z" />
    <glyph glyph-name="afii10097" unicode="&#x44f;" horiz-adv-x="386" 
d="M28 0l130 178c-31.333 1.33301 -58 11.333 -80 30c-22.667 20 -34 47 -34 81c0 39.333 12.333 69.333 37 90c22 19.333 54.333 29 97 29h136v-408h-40v176h-70l-128 -176h-48zM274 214v155.999h-96c-28 0 -49.667 -6 -65 -18c-18 -15.333 -27 -36 -27 -62
c0 -25.333 8.66699 -44.666 26 -57.999c16 -12 38 -18 66 -18h96z" />
    <glyph glyph-name="afii10071" unicode="&#x451;" horiz-adv-x="483" 
d="M437 199h-349.003c0 -50.667 15.833 -92 47.5 -124s69.834 -48 114.501 -48c32 0 60.333 8.5 85 25.5s43.667 39.5 57 67.5l34 -20c-15.333 -29.333 -37.666 -55.166 -66.999 -77.499s-66.666 -33.5 -111.999 -33.5c-62 0 -111 20.167 -147 60.5s-54 91.166 -54 152.499
c0 67.333 19.5 120 58.5 158s85.5 57 139.5 57c55.333 0 101.333 -20.333 138 -61s55 -93 55 -157zM90.9971 237h304c-5.33301 41.333 -21.833 75.333 -49.5 102s-61.5 40 -101.5 40c-40.667 0 -75 -13.5 -103 -40.5s-44.667 -60.833 -50 -101.5zM126.997 526
c0 10 3.5 18.5 10.5 25.5s15.5 10.5 25.5 10.5s18.5 -3.5 25.5 -10.5s10.5 -15.5 10.5 -25.5s-3.5 -18.5 -10.5 -25.5s-15.5 -10.5 -25.5 -10.5s-18.5 3.5 -25.5 10.5s-10.5 15.5 -10.5 25.5zM292.997 526c0 10 3.5 18.5 10.5 25.5s15.5 10.5 25.5 10.5
s18.5 -3.5 25.5 -10.5s10.5 -15.5 10.5 -25.5s-3.5 -18.5 -10.5 -25.5s-15.5 -10.5 -25.5 -10.5s-18.5 3.5 -25.5 10.5s-10.5 15.5 -10.5 25.5z" />
    <glyph glyph-name="afii10099" unicode="&#x452;" horiz-adv-x="442" 
d="M72 0l-0.00195312 521.999h-72v38h72v169h40v-169h180v-38h-180v-218c27.333 48.667 69 73 125 73c50.667 0 88.334 -19 113.001 -57c13.333 -21.333 20 -55.666 20 -102.999v-312c0 -50 -11.667 -86.333 -35 -109c-18 -17.333 -42 -26 -72 -26c-11.333 0 -23 2 -35 6v37
c8 -3.33301 17.333 -5 28 -5c21.333 0 38 5.66699 50 17c16 15.333 24 44.333 24 87v305c0 38 -5.33301 65.333 -16 82c-16 26.667 -42.667 40 -80 40c-45.333 0 -78.666 -19 -99.999 -57c-14.667 -26 -22 -62.667 -22 -110v-172h-40z" />
    <glyph glyph-name="afii10100" unicode="&#x453;" horiz-adv-x="300" 
d="M72 0v408h220v-38h-180v-370h-40zM235 620l43 -25l-105 -128l-30 16z" />
    <glyph glyph-name="afii10101" unicode="&#x454;" horiz-adv-x="441" 
d="M398 365l0.000976562 -53c-38.667 44.667 -85.667 67 -141 67c-45.333 0 -83.833 -14.5 -115.5 -43.5s-49.5 -64.833 -53.5 -107.5h238v-38h-238c1.33301 -48 18.5 -87.167 51.5 -117.5s71.5 -45.5 115.5 -45.5c54 0 103.333 24.333 148 73v-54
c-42.667 -38 -92.334 -57 -149.001 -57c-60.667 0 -110.5 20.167 -149.5 60.5s-58.5 90.833 -58.5 151.5c0 62 19.167 113.5 57.5 154.5s89.5 61.5 153.5 61.5c52.667 0 99.667 -17.333 141 -52z" />
    <glyph glyph-name="afii10102" unicode="&#x455;" horiz-adv-x="334" 
d="M280 351l-34 -18c-13.333 30.667 -37 46 -71 46c-21.333 0 -38.166 -6.66699 -50.499 -20s-18.5 -28.333 -18.5 -45c0 -12.667 3.66699 -23.5 11 -32.5s15 -15.667 23 -20s20.667 -9.83301 38 -16.5c2.66699 -0.666992 9.16699 -3.16699 19.5 -7.5l20.5 -8.5
c3.33301 -1.33301 9.16602 -3.83301 17.499 -7.5s14.5 -7 18.5 -10s8.83301 -6.83301 14.5 -11.5s10.5 -9.66699 14.5 -15c14 -17.333 21 -39.333 21 -66c0 -43.333 -13.167 -75.833 -39.5 -97.5s-57.5 -32.5 -93.5 -32.5c-34.667 0 -64.667 9.66699 -90 29
s-42.333 45.666 -51 78.999l39 12c6.66699 -26 19.5 -46.167 38.5 -60.5s40.167 -21.5 63.5 -21.5c26 0 47.667 8.5 65 25.5s26 38.5 26 64.5c0 21.333 -6.66699 37.833 -20 49.5s-37 24.5 -71 38.5c-46.667 19.333 -76.334 37.333 -89.001 54c-12 16 -18 33.667 -18 53
c0 30.667 10.333 55.834 31 75.501s46.667 29.5 78 29.5c52.667 0 88.334 -22 107.001 -66z" />
    <glyph glyph-name="afii10103" unicode="&#x456;" horiz-adv-x="184" 
d="M72 408h40v-408h-40v408zM92 507c-10 0 -18.5 3.5 -25.5 10.5s-10.5 15.833 -10.5 26.5s3.5 19.5 10.5 26.5s15.5 10.5 25.5 10.5s18.5 -3.5 25.5 -10.5s10.5 -15.833 10.5 -26.5s-3.5 -19.5 -10.5 -26.5s-15.5 -10.5 -25.5 -10.5z" />
    <glyph glyph-name="afii10104" unicode="&#x457;" horiz-adv-x="184" 
d="M71 408h40v-408h-40v408zM8 545c0 10 3.5 18.5 10.5 25.5s15.5 10.5 25.5 10.5s18.5 -3.5 25.5 -10.5s10.5 -15.5 10.5 -25.5s-3.5 -18.5 -10.5 -25.5s-15.5 -10.5 -25.5 -10.5s-18.5 3.5 -25.5 10.5s-10.5 15.5 -10.5 25.5zM104 545c0 10 3.5 18.5 10.5 25.5
s15.5 10.5 25.5 10.5s18.5 -3.5 25.5 -10.5s10.5 -15.5 10.5 -25.5s-3.5 -18.5 -10.5 -25.5s-15.5 -10.5 -25.5 -10.5s-18.5 3.5 -25.5 10.5s-10.5 15.5 -10.5 25.5z" />
    <glyph glyph-name="afii10105" unicode="&#x458;" horiz-adv-x="184" 
d="M72 408h40v-638h-40v638zM92 507c-10 0 -18.5 3.5 -25.5 10.5s-10.5 15.833 -10.5 26.5s3.5 19.5 10.5 26.5s15.5 10.5 25.5 10.5s18.5 -3.5 25.5 -10.5s10.5 -15.833 10.5 -26.5s-3.5 -19.5 -10.5 -26.5s-15.5 -10.5 -25.5 -10.5z" />
    <glyph glyph-name="afii10106" unicode="&#x459;" horiz-adv-x="626" 
d="M358 408l-0.00195312 -170.001h97c46.667 0 81.334 -12.667 104.001 -38c19.333 -21.333 29 -48.333 29 -81c0 -36.667 -12 -66 -36 -88c-22 -20.667 -54.667 -31 -98 -31h-136v370h-188v-236c0 -44.667 -8 -77.667 -24 -99c-18 -24.667 -44 -37 -78 -37
c-4 0 -10.667 0.666992 -20 2v38c6.66699 -1.33301 11.667 -2 15 -2c22.667 0 40.334 9 53.001 27c9.33301 14.667 14 38.334 14 71.001v274h268zM357.998 37.999h96c28 0 49.333 6.33301 64 19c18.667 15.333 28 36 28 62c0 27.333 -9.66699 48.333 -29 63
c-16 12 -37.667 18 -65 18h-94v-162z" />
    <glyph glyph-name="afii10107" unicode="&#x45a;" horiz-adv-x="650" 
d="M72 0l-0.000976562 408h40v-170h230v170h40v-170h97c46.667 0 81.334 -12.667 104.001 -38c19.333 -21.333 29 -48.333 29 -81c0 -36.667 -12 -66 -36 -88c-22 -20.667 -54.667 -31 -98 -31h-136v200h-230v-200h-40zM381.999 38h96c28 0 49.333 6.33301 64 19
c18.667 15.333 28 36 28 62c0 27.333 -9.66699 48.333 -29 63c-16 12 -37.667 18 -65 18h-94v-162z" />
    <glyph glyph-name="afii10108" unicode="&#x45b;" horiz-adv-x="442" 
d="M72 0l-0.00195312 521.999h-72v38h72v169h40v-169h180v-38h-180v-218c27.333 48.667 69 73 125 73c50.667 0 88.334 -19 113.001 -57c13.333 -21.333 20 -55.666 20 -102.999v-217h-40v217c0 38 -5.33301 65.333 -16 82c-16 26.667 -42.667 40 -80 40
c-45.333 0 -78.666 -19 -99.999 -57c-14.667 -26 -22 -62.667 -22 -110v-172h-40z" />
    <glyph glyph-name="afii10109" unicode="&#x45c;" horiz-adv-x="396" 
d="M72 408h40v-194l206 194h54l-208 -194l224 -214h-58l-196 187l-22 -21v-166h-40v408zM253 620l43 -25l-105 -128l-30 16z" />
    <glyph glyph-name="afii10110" unicode="&#x45e;" horiz-adv-x="428" 
d="M106 -230l96 223l-194 415h46l171 -363l149 363h46l-268 -638h-46zM90 573l34 17c5.33301 -20.667 16.5 -38 33.5 -52s37.833 -21 62.5 -21s45.5 7 62.5 21s28.167 31.333 33.5 52l34 -17c-20 -62.667 -63.333 -94 -130 -94s-110 31.333 -130 94z" />
    <glyph glyph-name="afii10193" unicode="&#x45f;" horiz-adv-x="444" 
d="M72 0v408h40v-370h220v370h40v-408h-130v-120h-40v120h-130z" />
    <glyph glyph-name="afii10146" unicode="&#x462;" horiz-adv-x="610" 
d="M174 0l0.000976562 527h-160v40h160v127h44v-127h200v-40h-200v-147h116c153.333 0 230 -61 230 -183c0 -55.333 -17.833 -102 -53.5 -140s-89.834 -57 -162.501 -57h-174zM218.001 340v-300.001h112c67.333 0 116 14.667 146 44c28 26.667 42 64.334 42 113.001
c0 58 -23 99 -69 123c-26 13.333 -68.333 20 -127 20h-104z" />
    <glyph glyph-name="afii10194" unicode="&#x463;" horiz-adv-x="416" 
d="M8 408h99.999v259h40v-259h120v-38h-120v-132h97c46.667 0 81.334 -12.667 104.001 -38c19.333 -21.333 29 -48.333 29 -81c0 -36.667 -12 -66 -36 -88c-22 -20.667 -54.667 -31 -98 -31h-136v370h-100v38zM147.999 38h96c28 0 49.333 6.33301 64 19
c18.667 15.333 28 36 28 62c0 27.333 -9.66699 48.333 -29 63c-16 12 -37.667 18 -65 18h-94v-162z" />
    <glyph glyph-name="afii10147" unicode="&#x472;" horiz-adv-x="800" 
d="M400 676c97.333 0 179.333 -33.333 246 -100s100 -148 100 -244s-33.333 -177.167 -100 -243.5s-148.667 -99.5 -246 -99.5s-179.333 33.167 -246 99.5s-100 147.5 -100 243.5s33.333 177.333 100 244s148.667 100 246 100zM400 29c86.667 0 157.5 28.5 212.5 85.5
s84.167 125.5 87.5 205.5h-600c3.33301 -80 32.5 -148.5 87.5 -205.5s125.833 -85.5 212.5 -85.5zM101 360h597.996c-7.33301 82 -39.666 148.5 -96.999 199.5s-124.666 76.5 -201.999 76.5s-144.666 -25.5 -201.999 -76.5s-89.666 -117.5 -96.999 -199.5z" />
    <glyph glyph-name="afii10195" unicode="&#x473;" horiz-adv-x="520" 
d="M260 417c60.667 0 111.5 -20.5 152.5 -61.5s61.5 -91.833 61.5 -152.5s-20.5 -111.5 -61.5 -152.5s-91.833 -61.5 -152.5 -61.5s-111.5 20.5 -152.5 61.5s-61.5 91.833 -61.5 152.5s20.5 111.5 61.5 152.5s91.833 61.5 152.5 61.5zM431 189h-342
c2.66699 -47.333 20.667 -86.166 54 -116.499s72.333 -45.5 117 -45.5s83.667 15.167 117 45.5s51.333 69.166 54 116.499zM89 227h342.002c-6 47.333 -25.833 84.5 -59.5 111.5s-70.834 40.5 -111.501 40.5s-77.834 -13.5 -111.501 -40.5s-53.5 -64.167 -59.5 -111.5z" />
    <glyph glyph-name="afii10148" unicode="&#x474;" horiz-adv-x="510" 
d="M14 667h48l196 -568l190 568h48l-238 -694z" />
    <glyph glyph-name="afii10196" unicode="&#x475;" horiz-adv-x="390" 
d="M8 408h44l144 -339l142 339h44l-186 -433z" />
    <glyph glyph-name="afii10050" unicode="&#x490;" horiz-adv-x="400" 
d="M90 0v667h254v133h42v-173h-252v-627h-44z" />
    <glyph glyph-name="afii10098" unicode="&#x491;" horiz-adv-x="300" 
d="M72 0v408h182v110h38v-148h-180v-370h-40z" />
    <glyph glyph-name="uni0492" unicode="&#x492;" horiz-adv-x="400" 
d="M90 0v345h-90v40h90v282h296v-40h-252v-242h136v-40h-136v-345h-44z" />
    <glyph glyph-name="uni0493" unicode="&#x493;" horiz-adv-x="300" 
d="M72 0v200h-72v38h72v170h220v-38h-180v-132h100v-38h-100v-200h-40z" />
    <glyph glyph-name="uni0494" unicode="&#x494;" horiz-adv-x="526" 
d="M386 627l-252.004 -0.000976562v-262c46 15.333 91.667 23 137 23c76.667 0 132.334 -20.333 167.001 -61c28 -32.667 42 -77 42 -133c0 -73.333 -22.333 -127.666 -67 -162.999c-31.333 -24.667 -73.666 -37 -126.999 -37c-20 0 -42.667 2 -68 6v40
c18.667 -4 39.667 -6 63 -6c46.667 0 82.334 11 107.001 33c30.667 27.333 46 69 46 125c0 43.333 -11 79 -33 107c-27.333 32.667 -69.666 49 -126.999 49c-47.333 0 -94 -7.66699 -140 -23v-325h-44v667h296v-40z" />
    <glyph glyph-name="uni0495" unicode="&#x495;" horiz-adv-x="380" 
d="M72 0l0.000976562 408.001h220v-38h-180v-134h30c47.333 0 87.333 -11.667 120 -35c48 -34.667 72 -90 72 -166c0 -72 -23.333 -131.333 -70 -178c-34.667 -34.667 -77.667 -56.334 -129 -65.001v40c40 8.66699 73.667 27.334 101 56.001c37.333 39.333 56 89 56 149
c0 28.667 -5.33301 55.167 -16 79.5s-25.667 43.166 -45 56.499c-24.667 16.667 -54.334 25 -89.001 25h-30v-198h-40z" />
    <glyph glyph-name="uni0496" unicode="&#x496;" horiz-adv-x="796" 
d="M376 667h44v-314l282 314h58l-296 -323l281 -304h37v-174h-42v134h-16l-291 314l-13 -13v-301h-44v301l-13 13l-291 -314h-58l318 344l-296 323h58l282 -314v314z" />
    <glyph glyph-name="uni0497" unicode="&#x497;" horiz-adv-x="560" 
d="M260 408h40v-194l184 194h52l-190 -196l169 -174h37v-148h-38v110h-16l-178 186l-20 -20v-166h-40v166l-20 20l-178 -186h-54l206 212l-190 196h52l184 -194v194z" />
    <glyph glyph-name="uni0498" unicode="&#x498;" horiz-adv-x="554" 
d="M136 554l-31.998 27c19.333 31.333 44 55 74 71c29.333 16 64 24 104 24c52 0 93.333 -14.333 124 -43c32 -29.333 48 -69.333 48 -120c0 -33.333 -8.66699 -63.666 -26 -90.999c-16.667 -26 -37.334 -44.333 -62.001 -55c33.333 -8 61.666 -23.667 84.999 -47
c32.667 -34 49 -76.333 49 -127c0 -61.333 -19 -110.333 -57 -147c-36 -34.667 -84 -53.334 -144 -56.001v-140h-44v141c-48 1.33301 -90.667 17 -128 47c-30 24 -54.333 54.667 -73 92l42 20c14 -28.667 33.333 -53.667 58 -75c36.667 -30.667 79.334 -46 128.001 -46
c23.333 0 47.166 4.33301 71.499 13s44.166 20.667 59.499 36c27.333 27.333 41 65 41 113c0 45.333 -16 81.666 -48 108.999c-30.667 26 -74 39 -130 39h-60v40h50c44.667 0 80.334 13.667 107.001 41c23.333 23.333 35 54.333 35 93c0 34.667 -10.333 63.334 -31 86.001
c-22.667 24.667 -55.334 37 -98.001 37c-36 0 -67.333 -9.66699 -94 -29c-19.333 -14 -35.666 -31.667 -48.999 -53z" />
    <glyph glyph-name="uni0499" unicode="&#x499;" horiz-adv-x="400" 
d="M105 322l-32.999 23c28 48 71 72 129 72c39.333 0 69.333 -9.66699 90 -29c22 -19.333 33 -45.666 33 -78.999c0 -40 -15.667 -68.333 -47 -85c18 -4 34 -13 48 -27c19.333 -19.333 29 -45.666 29 -78.999c0 -42 -16 -75 -48 -99c-25.333 -19.333 -54 -29.333 -86 -30
v-109h-40v110c-30.667 2 -58.334 11.667 -83.001 29c-20.667 13.333 -37.667 33.333 -51 60l36 23c10 -22 24.333 -39.333 43 -52c20.667 -15.333 46.334 -23 77.001 -23c34 0 60 7.66699 78 23c21.333 17.333 32 40.666 32 69.999c0 26 -9.33301 46 -28 60
c-16 12 -41 18 -75 18h-42v38h31c26 0 46.333 5.66699 61 17c16.667 13.333 25 30.666 25 51.999s-7 39 -21 53c-15.333 14 -36.333 21 -63 21c-42.667 0 -74.334 -19 -95.001 -57z" />
    <glyph glyph-name="uni049A" unicode="&#x49a;" horiz-adv-x="540" 
d="M90 667h44v-314l315 314h58l-323 -319l303 -308h39v-174h-42v134h-18l-314 318l-18 -17v-301h-44v667z" />
    <glyph glyph-name="uni049B" unicode="&#x49b;" horiz-adv-x="396" 
d="M72 408h40v-194l206 194h54l-208 -194l184 -176h40v-148h-38v110h-20l-196 187l-22 -21v-166h-40v408z" />
    <glyph glyph-name="uni049C" unicode="&#x49c;" horiz-adv-x="600" 
d="M90 667h44v-303h72v140h40v-140l269 303h52l-287 -319l306 -348h-54l-286 324v-160h-40v160h-72v-324h-44v667z" />
    <glyph glyph-name="uni049D" unicode="&#x49d;" horiz-adv-x="400" 
d="M72 408h40v-178h43v100h38v-100l149 178h46l-162 -194l166 -214h-50l-149 192v-120h-38v120h-43v-192h-40v408z" />
    <glyph glyph-name="uni04A0" unicode="&#x4a0;" horiz-adv-x="624" 
d="M174 0v627h-160v40h204v-314l315 314h58l-323 -319l342 -348h-60l-314 318l-18 -17v-301h-44z" />
    <glyph glyph-name="uni04A1" unicode="&#x4a1;" horiz-adv-x="432" 
d="M108 0v370h-100v38h140v-194l206 194h54l-208 -194l224 -214h-58l-196 187l-22 -21v-166h-40z" />
    <glyph glyph-name="uni04A2" unicode="&#x4a2;" horiz-adv-x="672" 
d="M90 0v667h44v-283h404v283h44v-627h76v-174h-42v134h-78v344h-404v-344h-44z" />
    <glyph glyph-name="uni04A3" unicode="&#x4a3;" horiz-adv-x="454" 
d="M72 0v408h40v-180h230v180h40v-370h60v-148h-38v110h-62v190h-230v-190h-40z" />
    <glyph glyph-name="uni04A4" unicode="&#x4a4;" horiz-adv-x="848" 
d="M90 0v667h44v-283h404v283h296v-40h-252v-627h-44v344h-404v-344h-44z" />
    <glyph glyph-name="uni04A5" unicode="&#x4a5;" horiz-adv-x="570" 
d="M72 0v408h40v-180h230v180h220v-38h-180v-370h-40v190h-230v-190h-40z" />
    <glyph glyph-name="uni04AA" unicode="&#x4aa;" horiz-adv-x="678" 
d="M624 589l-0.000976562 -58c-30 35.333 -65.167 61.666 -105.5 78.999s-80.166 26 -119.499 26c-83.333 0 -154.333 -30 -213 -90c-57.333 -58.667 -86 -130.667 -86 -216c0 -83.333 28 -153.333 84 -210c59.333 -60.667 132 -91 218 -91c82.667 0 156.667 33.667 222 101
v-58c-59.333 -51.333 -123.666 -78.666 -192.999 -81.999v-140h-44v141c-88.667 1.33301 -166 34.333 -232 99c-67.333 66 -101 146.667 -101 242c0 97.333 34 179.333 102 246c65.333 65.333 146.666 98 243.999 98c88 0 162.667 -29 224 -87z" />
    <glyph glyph-name="uni04AB" unicode="&#x4ab;" horiz-adv-x="442" 
d="M399 365v-52.999c-38.667 44.667 -85 67 -139 67c-50.667 0 -92 -16.667 -124 -50c-32 -34 -48 -76.333 -48 -127s15.667 -92.334 47 -125.001c32 -33.333 72.333 -50 121 -50c56 0 105.333 24.333 148 73v-54c-36 -32 -77 -50.667 -123 -56v-110h-40v110
c-54 2 -99.667 22 -137 60c-38.667 40 -58 90.333 -58 151c0 64.667 20 117 60 157c38 39.333 88 59 150 59c53.333 0 101 -17.333 143 -52z" />
    </font>
</defs>
</svg>
