<svg xmlns="http://www.w3.org/2000/svg">
    <symbol id="studio" viewBox="0 0 60 48">
        <g>
            <path d="M59.9796 11.404C59.9788 8.33497 54.9531 5.18952 49.0588 3.17647C48.6002 3.01991 47.4509 3.06992 47.2941 3.52941C47.1372 3.98879 47.8936 4.43144 48.3529 4.58824C53.4063 6.31406 58.2218 9.17848 58.2218 11.4046C58.2218 14.1655 53.7421 16.9604 46.5308 18.6988C46.1361 18.794 45.8579 19.147 45.8579 19.5531L45.8575 23.952L43.4903 23.4556L36.7965 16.7593C36.488 16.4508 36.0004 16.4153 35.6504 16.6754L29.4387 21.2946L23.0147 14.3275C22.8347 14.1324 22.5772 14.0283 22.3112 14.0462C22.0463 14.0636 21.8034 14.1999 21.6504 14.4168L16.2389 22.0901L14.0759 22.5353V19.5422C14.0759 19.1364 13.7981 18.7834 13.4038 18.688C6.22031 16.9492 1.75781 14.1584 1.75781 11.4047C1.75781 9.18176 4.64894 6.9177 9.68988 5.19282C15.0989 3.34196 22.3083 2.32266 29.9898 2.32266C35.9588 2.32266 43.501 3.41871 48.3529 4.58824C48.8252 4.70226 47.4766 3.93376 47.5904 3.46196C47.7042 2.99005 49.5306 3.29026 49.0588 3.17647C44.074 1.97495 36.0954 0.56485 29.9898 0.56485C22.1197 0.56485 14.7083 1.61778 9.1207 3.52969C3.23918 5.54227 0 8.33895 0 11.4047L0.00172626 23.0679C0.00172626 23.5534 0.393516 23.0679 0.878906 23.0679C1.3643 23.0679 1.75781 23.609 1.75781 23.1234V15.1814C3.74402 17.2089 7.35844 18.9566 12.318 20.229V45.4263C5.77371 43.6801 1.75781 41.0322 1.75781 38.413V23.1234C1.75781 22.6379 1.3643 22.2445 0.878906 22.2445C0.393516 22.2445 0 22.6379 0 23.1234V38.413C0 42.1372 4.73484 45.4167 12.9906 47.4106C13.0589 47.4271 13.128 47.4352 13.1968 47.4352C13.3922 47.4352 13.584 47.37 13.7406 47.2468C13.9523 47.0802 14.0759 46.8257 14.0759 46.5563V30.9663C15.1268 30.7276 16.2272 30.5119 17.3566 30.3232C17.8354 30.2432 18.1587 29.7904 18.0788 29.3115C17.9988 28.8327 17.5455 28.5083 17.0671 28.5894C16.0429 28.7604 15.041 28.9533 14.0759 29.1653V24.33L16.9338 23.7418C17.1527 23.6968 17.3462 23.5702 17.475 23.3876L22.4598 16.3192L28.6825 23.0679C28.9873 23.3985 29.4922 23.4457 29.853 23.1775L36.0901 18.5395L42.4321 24.8838C42.5529 25.0045 42.7062 25.0875 42.8734 25.1225L45.8575 25.7483L45.8571 29.1656C41.1107 28.1224 35.6442 27.5733 29.9657 27.5733C26.8983 27.5733 23.875 27.7342 20.9798 28.0515C20.4974 28.1044 20.1491 28.5383 20.202 29.0209C20.2549 29.5035 20.689 29.852 21.1714 29.7988C24.0033 29.4885 26.962 29.3311 29.9657 29.3311C35.6715 29.3311 41.1478 29.8957 45.857 30.9667L45.8555 46.5563C45.8555 46.8258 45.979 47.0803 46.1906 47.247C46.3472 47.3702 46.5391 47.4353 46.7344 47.4353C46.8033 47.4353 46.8725 47.4272 46.9407 47.4107C55.2401 45.4062 60 42.1266 60 38.4123L59.9796 11.404ZM47.6133 45.4265L47.6157 20.2407C52.6017 18.9669 56.2331 17.2141 58.2247 15.1793L58.2422 38.413C58.2422 41.0233 54.2 43.6717 47.6133 45.4265Z" fill="url(#paint0_linear)"/>
            <path d="M59.9796 11.404C59.9788 8.33497 54.9531 5.18952 49.0588 3.17647C48.6002 3.01991 47.4509 3.06992 47.2941 3.52941C47.1372 3.98879 47.8936 4.43144 48.3529 4.58824C53.4063 6.31406 58.2218 9.17848 58.2218 11.4046C58.2218 14.1655 53.7421 16.9604 46.5308 18.6988C46.1361 18.794 45.8579 19.147 45.8579 19.5531L45.8575 23.952L43.4903 23.4556L36.7965 16.7593C36.488 16.4508 36.0004 16.4153 35.6504 16.6754L29.4387 21.2946L23.0147 14.3275C22.8347 14.1324 22.5772 14.0283 22.3112 14.0462C22.0463 14.0636 21.8034 14.1999 21.6504 14.4168L16.2389 22.0901L14.0759 22.5353V19.5422C14.0759 19.1364 13.7981 18.7834 13.4038 18.688C6.22031 16.9492 1.75781 14.1584 1.75781 11.4047C1.75781 9.18176 4.64894 6.9177 9.68988 5.19282C15.0989 3.34196 22.3083 2.32266 29.9898 2.32266C35.9588 2.32266 43.501 3.41871 48.3529 4.58824C48.8252 4.70226 47.4766 3.93376 47.5904 3.46196C47.7042 2.99005 49.5306 3.29026 49.0588 3.17647C44.074 1.97495 36.0954 0.56485 29.9898 0.56485C22.1197 0.56485 14.7083 1.61778 9.1207 3.52969C3.23918 5.54227 0 8.33895 0 11.4047L0.00172626 23.0679C0.00172626 23.5534 0.393516 23.0679 0.878906 23.0679C1.3643 23.0679 1.75781 23.609 1.75781 23.1234V15.1814C3.74402 17.2089 7.35844 18.9566 12.318 20.229V45.4263C5.77371 43.6801 1.75781 41.0322 1.75781 38.413V23.1234C1.75781 22.6379 1.3643 22.2445 0.878906 22.2445C0.393516 22.2445 0 22.6379 0 23.1234V38.413C0 42.1372 4.73484 45.4167 12.9906 47.4106C13.0589 47.4271 13.128 47.4352 13.1968 47.4352C13.3922 47.4352 13.584 47.37 13.7406 47.2468C13.9523 47.0802 14.0759 46.8257 14.0759 46.5563V30.9663C15.1268 30.7276 16.2272 30.5119 17.3566 30.3232C17.8354 30.2432 18.1587 29.7904 18.0788 29.3115C17.9988 28.8327 17.5455 28.5083 17.0671 28.5894C16.0429 28.7604 15.041 28.9533 14.0759 29.1653V24.33L16.9338 23.7418C17.1527 23.6968 17.3462 23.5702 17.475 23.3876L22.4598 16.3192L28.6825 23.0679C28.9873 23.3985 29.4922 23.4457 29.853 23.1775L36.0901 18.5395L42.4321 24.8838C42.5529 25.0045 42.7062 25.0875 42.8734 25.1225L45.8575 25.7483L45.8571 29.1656C41.1107 28.1224 35.6442 27.5733 29.9657 27.5733C26.8983 27.5733 23.875 27.7342 20.9798 28.0515C20.4974 28.1044 20.1491 28.5383 20.202 29.0209C20.2549 29.5035 20.689 29.852 21.1714 29.7988C24.0033 29.4885 26.962 29.3311 29.9657 29.3311C35.6715 29.3311 41.1478 29.8957 45.857 30.9667L45.8555 46.5563C45.8555 46.8258 45.979 47.0803 46.1906 47.247C46.3472 47.3702 46.5391 47.4353 46.7344 47.4353C46.8033 47.4353 46.8725 47.4272 46.9407 47.4107C55.2401 45.4062 60 42.1266 60 38.4123L59.9796 11.404ZM47.6133 45.4265L47.6157 20.2407C52.6017 18.9669 56.2331 17.2141 58.2247 15.1793L58.2422 38.413C58.2422 41.0233 54.2 43.6717 47.6133 45.4265Z" fill="#282828" fill-opacity="0.3"/>
            <path d="M25.8 9.9054C25.8 12.2095 27.674 14.0842 29.9776 14.0842C32.2812 14.0842 34.1552 12.2095 34.1552 9.9054C34.1552 7.60126 32.2812 5.72661 29.9776 5.72661C27.674 5.72661 25.8 7.60126 25.8 9.9054ZM32.3975 9.9054C32.3975 11.2404 31.3119 12.3264 29.9777 12.3264C28.6434 12.3264 27.5579 11.2403 27.5579 9.9054C27.5579 8.57051 28.6434 7.48442 29.9777 7.48442C31.3119 7.48442 32.3975 8.5704 32.3975 9.9054Z" fill="url(#paint1_linear)"/>
            <path d="M25.8 9.9054C25.8 12.2095 27.674 14.0842 29.9776 14.0842C32.2812 14.0842 34.1552 12.2095 34.1552 9.9054C34.1552 7.60126 32.2812 5.72661 29.9776 5.72661C27.674 5.72661 25.8 7.60126 25.8 9.9054ZM32.3975 9.9054C32.3975 11.2404 31.3119 12.3264 29.9777 12.3264C28.6434 12.3264 27.5579 11.2403 27.5579 9.9054C27.5579 8.57051 28.6434 7.48442 29.9777 7.48442C31.3119 7.48442 32.3975 8.5704 32.3975 9.9054Z" fill="#282828" fill-opacity="0.3"/>
            <defs>
            <linearGradient id="paint0_linear" x1="0.252101" y1="24.197" x2="60" y2="24.197" gradientUnits="userSpaceOnUse">
            <stop stop-color="#FF99FF"/>
            <stop offset="1" stop-color="#AAE6FF"/>
            </linearGradient>
            <linearGradient id="paint1_linear" x1="25.8351" y1="9.94051" x2="34.1552" y2="9.94051" gradientUnits="userSpaceOnUse">
            <stop stop-color="#FF99FF"/>
            <stop offset="1" stop-color="#AAE6FF"/>
            </linearGradient>
            </defs>
        </g>
    </symbol>
</svg>